<svg width="16" height="16" viewBox="0 0 16 16" xmlns="http://www.w3.org/2000/svg">
<path fill-rule="evenodd" clip-rule="evenodd" d="M5.86941 11.8005C5.61142 12.0632 5.18932 12.067 4.92664 11.809L1.5327 8.47563C1.40507 8.35028 1.33317 8.17889 1.33317 8C1.33317 7.82111 1.40507 7.64972 1.5327 7.52437L4.92664 4.19103C5.18932 3.93304 5.61142 3.93684 5.86941 4.19953C6.1274 4.46221 6.1236 4.88431 5.86092 5.1423L3.63004 7.33333L13.9998 7.33333C14.368 7.33333 14.6665 7.63181 14.6665 8C14.6665 8.36819 14.368 8.66667 13.9998 8.66667L3.63004 8.66667L5.86092 10.8577C6.1236 11.1157 6.1274 11.5378 5.86941 11.8005Z" />
</svg>
