<svg width="69" height="12" viewBox="0 0 69 12" fill="none" xmlns="http://www.w3.org/2000/svg">
<path d="M24.2905 12C21.8182 12 19.5273 11.2636 18 9.89045C17.4539 9.39973 17.0187 8.79813 16.7236 8.12582C16.4285 7.45352 16.2802 6.72599 16.2886 5.99182C16.2869 5.26067 16.4383 4.53727 16.7331 3.86816C17.0278 3.19906 17.4594 2.59907 18 2.10682C19.4182 0.818182 21.9273 0 24.2905 0C26.9046 0 28.9977 0.658636 30.5973 2.10955C31.1358 2.60163 31.5644 3.20173 31.8553 3.87068C32.1462 4.53963 32.2928 5.2624 32.2855 5.99182C32.2818 6.72196 32.1304 7.44381 31.8402 8.11385C31.5501 8.78388 31.1273 9.38823 30.5973 9.89045C29.1068 11.2718 26.7668 12 24.2905 12V10.4209C25.6009 10.4209 26.8173 9.96818 27.6668 9.12273C28.5164 8.27727 28.9023 7.25182 28.9023 5.98636C28.9023 4.77818 28.4782 3.64909 27.6668 2.85C26.8282 2.025 25.5832 1.56 24.2905 1.56C22.9977 1.56 21.7473 2.02091 20.9086 2.85C20.1 3.65045 19.6814 4.78364 19.6814 5.98636C19.6692 6.56422 19.7714 7.13877 19.982 7.67702C20.1926 8.21526 20.5075 8.70657 20.9086 9.12273C21.7473 9.95864 22.9896 10.4209 24.2905 10.4209V12ZM6.23864 0C4.91728 0 3.41592 0.248182 2.14774 0.818182C0.964099 1.34727 8.40242e-06 2.19682 8.40242e-06 3.60545C-0.00176987 4.34312 0.278775 5.05351 0.784099 5.59091C1.12637 5.90727 1.67864 6.44455 3.12137 6.76091C3.76637 6.89727 5.14501 7.11682 6.51819 7.26136C7.89137 7.40591 9.22228 7.53409 9.76773 7.68C10.2014 7.79045 10.9309 7.94046 10.9309 8.75864C10.9309 9.57682 10.1632 9.82227 10.0296 9.87545C9.89592 9.92864 8.9741 10.3514 7.31864 10.3514C6.22181 10.3209 5.13493 10.134 4.09092 9.79636C3.47319 9.57545 2.82546 9.285 2.22137 8.54727C1.97758 8.19986 1.84233 7.78794 1.83274 7.36364H0.332736V11.5636H1.9991V10.995C1.99884 10.9528 2.00982 10.9113 2.03092 10.8748C2.05202 10.8383 2.08248 10.8081 2.11915 10.7872C2.15583 10.7664 2.19739 10.7557 2.23956 10.7563C2.28174 10.7568 2.323 10.7686 2.3591 10.7905C3.14418 11.1321 3.96079 11.3961 4.79728 11.5786C5.67274 11.7614 6.23864 11.8936 7.32683 11.8936C8.47509 11.9155 9.61949 11.7539 10.7168 11.415C11.4455 11.2153 12.1292 10.8778 12.7309 10.4209C13.0694 10.1609 13.3429 9.82602 13.5301 9.44248C13.7172 9.05893 13.8129 8.63721 13.8096 8.21045C13.8152 7.3997 13.5023 6.61914 12.9382 6.03682C12.6245 5.73238 12.2611 5.4838 11.8636 5.30182C11.4364 5.10878 10.9928 4.95408 10.5382 4.83955C9.67364 4.62818 7.73183 4.36364 6.80319 4.27091C5.82955 4.17 4.14001 4.02955 3.46501 3.82091C3.26046 3.75682 2.84319 3.55909 2.84319 3.075C2.84319 2.73 3.0341 2.43818 3.41046 2.20227C4.0091 1.82727 5.21728 1.59409 6.47728 1.59409C7.69689 1.57937 8.90649 1.81563 10.0309 2.28818C10.333 2.41979 10.6171 2.58933 10.8764 2.79273C11.299 3.15369 11.5917 3.64322 11.7096 4.18636H13.0555V0.530455H11.5555V0.954545C11.5555 1.09091 11.4191 1.27091 11.1464 1.12227C10.47 0.770455 8.5691 0.00954545 6.23864 0ZM39.1691 0.670909L46.5 7.28591L46.425 2.83227C46.4168 2.24727 46.3105 2.00318 45.6777 2.00318H44.3005V0.670909H50.5732V2.00318H49.2273C48.5836 2.00318 48.5455 2.21045 48.5346 2.83227L48.6477 11.3427H46.5L38.055 3.80727V9.15409C38.0618 9.73636 38.0891 10.0105 38.6877 10.0105H40.1877V11.3427H34.0391V10.0105H35.4791C36.0164 10.0105 35.9945 9.49773 35.9945 9.12409V2.88273C35.9945 2.47364 35.9373 2.00455 35.0945 2.00455H33.9273V0.670909H39.1691ZM57.7295 10.0077C57.8535 10.0077 57.9774 9.99999 58.1005 9.98455C58.1644 9.96536 58.2233 9.9325 58.2733 9.88822C58.3232 9.84395 58.3629 9.78934 58.3895 9.72818C58.4084 9.63343 58.418 9.53707 58.4182 9.44046V7.33364C58.4182 7.26273 58.4182 7.26136 58.3282 7.14955C58.2382 7.03773 54.4882 2.78591 54.3177 2.595C54.105 2.36318 53.7314 2.00455 53.1627 2.00455H51.8605V0.670909H59.2105V2.00182H58.3241C58.1195 2.00182 57.9832 2.19682 58.1577 2.41091C58.1577 2.41091 60.6314 5.37 60.6545 5.40136C60.6777 5.43273 60.6982 5.43955 60.7295 5.41091C60.7609 5.38227 63.2645 2.43818 63.2836 2.41091C63.3132 2.37207 63.3311 2.32555 63.335 2.27688C63.3389 2.22821 63.3288 2.17944 63.3058 2.13636C63.2828 2.09327 63.248 2.05769 63.2054 2.03384C63.1628 2.00999 63.1142 1.99888 63.0655 2.00182H62.1559V0.670909H68.1818V2.00455H66.8359C66.3477 2.00455 66.1541 2.09455 65.7818 2.50909L61.725 7.13727C61.6853 7.19457 61.6678 7.26439 61.6759 7.33364V9.43909C61.6766 9.53574 61.6867 9.6321 61.7059 9.72682C61.7321 9.78804 61.7715 9.84273 61.8212 9.88704C61.871 9.93134 61.9298 9.96416 61.9936 9.98318C62.1157 9.99931 62.2387 10.0071 62.3618 10.0064H63.7377V11.34H56.4259V10.0064L57.7295 10.0077Z" fill="white"/>
</svg>
