<svg version="1.1" id="Layer_1" fill='#FFD166' xmlns="http://www.w3.org/2000/svg" xmlns:xlink="http://www.w3.org/1999/xlink" x="0px" y="0px"
	 viewBox="0 0 956.11 763.06" style="enable-background:new 0 0 956.11 763.06;" xml:space="preserve">

<g>
	<path class="st0" d="M376.01,156.78c-0.76,0-0.76,0-0.76,0.75C376.01,157.53,376.01,157.53,376.01,156.78z"/>
	<path class="st0" d="M891.38,419.03c3.76-0.76,3.76-5.29,6.04-7.56c-5.29,2.27-0.75-0.76,0-3.02c-3.78,0.75-4.53,4.53-6.8,6.8
		C893.63,415.25,890.61,416.76,891.38,419.03z"/>
	<path class="st0" d="M900.43,397.87h-0.75c-1.51,1.51-1.51,2.25,0,2.25C899.69,399.38,900.43,398.62,900.43,397.87z"/>
	<path class="st0" d="M582.37,404.67c0.75-0.76,0.75-1.51,0.75-3.78h-0.75C581.61,401.66,580.1,404.67,582.37,404.67z"/>
	<path class="st0" d="M904.21,380.5c0.76,0,0.76-0.76,0.76-1.51C904.21,378.99,904.21,379.73,904.21,380.5z"/>
	<path class="st0" d="M898.18,386.53h-0.76C897.41,388.8,898.18,388.8,898.18,386.53z"/>
	<path class="st0" d="M460.51,332.41c2.27,0,3.02,0,3.02-0.76C461.27,331.65,460.51,331.65,460.51,332.41z"/>
	<path class="st0" d="M453.83,664.49v0.75c1.51,1.51,2.27,1.51,2.27,0C455.34,665.24,454.58,664.49,453.83,664.49z"/>
	<path class="st0" d="M865.67,322.33c-1.51,0-3.02,0.75-3.76,1.51h3.02C864.93,323.07,865.67,323.07,865.67,322.33z"/>
	<path class="st0" d="M672.26,194.63c-0.75,0-1.51,0-1.51,0.76C671.51,195.39,672.26,195.39,672.26,194.63z"/>
	<path class="st0" d="M504.33,326.36c-0.76,0.76-1.51,0.76-3.02,0.76C500.55,330.89,507.35,328.63,504.33,326.36z"/>
	<path class="st0" d="M515.66,324.09c-2.25-0.75-5.29,1.51-5.29-0.75c14.36-3.02,25.69,1.51,38.54-7.56c3.02,0,6.05-0.75,9.07-1.51
		c-0.76-3.78-3.78-0.75-1.51-6.04c5.29-2.27,8.31-3.04,14.34-8.32c-2.25,0-3.02-0.75-3.02-1.51c3.02,0,4.53-0.75,4.53-1.51
		c-2.25,0.76-4.53-5.29-5.27-2.27c3.02,2.27-2.27,3.04,0,0c-2.27-0.75-6.05-0.75-6.82-3.02c3.78,0.76,5.29-0.75,6.05-3.02
		c-2.27,0-3.78,0-3.78-0.76c7.21-0.6-7.25-1.47,4.54-5.29c-66.49-2.25-136.01-6.8-209.28-1.51c-4.36,15.99-8.71,14.1,9.05,54.41
		c32.5-3.02,61.21-1.51,90.67-1.51c0.76-2.27-4.53-2.27-2.27-5.29c12.85-2.27,21.92,4.53,31.74-0.76c-2.27-3.02-8.31,0-9.07-0.75
		c5.29-3.78,20.4-3.04,26.45-0.76C506.6,323.34,512.64,327.12,515.66,324.09z M409.13,330.14c-3.02-2.27,2.27-2.27,2.27-3.02
		C414.42,329.38,409.13,329.38,409.13,330.14z M413.66,330.14c0-2.27,3.78-0.76,6.05-1.51C417.44,330.89,416.7,329.38,413.66,330.14
		z M420.46,330.14c0-0.76,1.53-1.51,4.54-1.51C425.75,329.38,424.24,330.14,420.46,330.14z M446.16,330.14
		c-4.54,0.75-9.07,0.75-13.61-0.76c0,0.76-0.75,0.76-0.75,1.51c-2.27,0,0-2.25-2.27-1.51c5.87-1.43,1.25,0.57,17.38-0.75
		C446.91,329.38,443.89,329.38,446.16,330.14z M446.91,330.89c0-0.75,1.51-1.51,5.29-1.51
		C451.43,332.41,450.69,330.14,446.91,330.89z M468.81,324.09c2.27,0,2.27,2.27,6.05,1.51
		C474.87,326.36,468.07,327.12,468.81,324.09z"/>
	<path class="st0" d="M488.46,326.36c0,0.76-0.76,1.51-0.76,2.27c2.27,0,4.54-0.76,5.29-2.27
		C490.74,326.36,489.23,327.12,488.46,326.36z"/>
	<path class="st0" d="M914.76,382.75c0-0.75,0.76-0.75,1.51-0.75C916.27,382.75,915.52,382.75,914.76,382.75z"/>
	<path class="st0" d="M685.87,631.34c1.51,0,3.02-0.76,3.76-2.27C687.38,629.06,686.62,629.81,685.87,631.34z"/>
	<path class="st0" d="M375.25,159.04v-1.51C374.5,157.53,374.5,159.04,375.25,159.04z"/>
	<path class="st0" d="M236.98,196.81c-2.25,0-2.25-3.02-2.25,0C236.24,198.34,236.98,198.34,236.98,196.81z"/>
	<path class="st0" d="M364.67,202.1c3.78-5.29,9.83-13.6,9.07-18.89L364.67,202.1z"/>
	<path class="st0" d="M492.37,728.7c-5.29,0-6.82-3.02-9.07-6.04c0.75,0,0.75,0.76,1.51,0.76c-2.77-3.71-4.75-6.81-9.82-19.65
		c-5.29,3.02-6.8-3.02-9.83-5.29l3.04-6.05c-3.78-3.76-6.05-7.54-9.83-12.83c0.76-2.27,2.27-0.76,2.27-3.02
		c-10.11-11.48-0.1-1.2-22.67-24.94c0-8.31-12.85-12.09-10.58-21.9c-2.27,0-3.02-0.76-3.02-1.51c0.75,0,1.51-0.76,1.51-1.51
		c-0.76,0-1.51-0.76-2.27-0.76c0,0.76-2.25,0.76,0,0c-1.51-4.53-3.76-8.31-6.8-11.34c0,0.76-2.25,0.76,0,0
		c0-2.25-0.75-1.51-0.75-2.25c-2.27-0.76-3.04,1.51-5.29-0.76c0-0.75,1.51-1.51,1.51-2.25c-3.78-1.53-5.29-4.54-3.78-9.83
		c-2.27-2.25-3.02,0-5.29-3.02c0.76-2.27,2.27,1.51,3.02-0.76c-3.76-0.75-1.51-3.02-3.76-5.29c0,1.53,0,2.27-0.76,2.27
		c-0.76-2.27-5.29-2.27-3.02-6.04c-2.27,0-3.02-0.76-3.02-1.51c4.1-1.67-6.42-10.35-10.58-19.65c2.25-2.27-0.76-3.02-3.04-3.78
		c0-2.27,2.27,0,2.27-2.27c-0.75-0.75-3.02,0-3.02-2.25c1.51-1.51,2.27-2.27,2.27-1.51c-2.27-0.76-1.53-2.27-3.78-4.54
		c-6.92,2.71-1.11-11.65-11.34-20.4c0.76-0.75,1.51-1.51,1.51-2.27h-1.51c0,0.76-2.25,0.76,0,0c0.76-3.76-1.51-3.76-1.51-6.8
		c-3.02,2.27-3.78-2.25-4.53-4.53c1.51,0,2.25-0.76,2.25-1.51h-3.02c0.76-5.29-5.29-5.29-3.02-13.6
		c-6.35-6.45-0.03-0.06-11.33-23.43c0.75,0,0.75,0.76,1.51,0.76c-3.78-8.31-5.29-18.14-11.34-26.45c1.42-6.11,0.6-0.21-7.54-18.89
		c3.02-3.02,0-8.31-2.27-10.58c0,0.76-0.76,1.51-2.27,1.51c-2.25-9.05-6.04-13.6-8.31-23.41c0.77-0.77,1.22-0.92,1.59-0.88
		c-2.97-3.16-8.06-6.49-6.12-14.22c-3.04-5.29-6.8-12.85-6.05-18.14c2.27,0.76,1.51,6.8,3.78,4.53c-3.02-5.27-3.78-10.56-6.8-15.85
		c-0.76,2.25,1.51,3.78-0.76,3.78c-5.29-5.29-4.53-15.12-9.82-23.43c0,2.27-2.27,2.27-2.27,0h2.27c-3.02-6.04-3.02-9.82-5.29-16.62
		c-2.27-0.76-0.75,2.25-3.02,1.51c-3.64-6.85,2.82-5.39-9.82-24.94c3.76-5.29-1.53-7.54-3.78-10.58c-0.76,0-0.76-2.25,0-2.25v2.25
		h1.51c-0.76-5.29,0.75-5.29-1.51-9.05c2.25-2.27,4.53-3.78,4.53-7.56c-3.78,0.76-3.02,5.29-6.8,6.04
		c-0.83,1.33-1.06,2.48-3.02-1.51c2.25-3.02,7.54-3.02,6.8-9.05c9.07-5.29,12.09-15.12,18.12-23.43c0.76,0.76,1.51,0.76,2.27,0.76
		c9.98-13.08-1.97-0.6,43.83-51.37c0.75-3.78,4.53-8.32,7.54-8.32c0,2.27-2.25,2.27-1.51,5.29c8.31-6.04,12.85-14.34,21.9-20.4
		c-5.27,3.78-6.04,9.82-6.8,15.11c3.78-3.02,3.04-10.58,8.32-12.83c-2.27-8.31,8.31-10.58,10.56-18.89
		c0.76,2.25-0.75,3.02-0.75,5.29c-0.1-0.69,4.84,2.76,0,3.02c0.75,3.78,1.51,9.07-2.27,11.33v-1.51c-2.25,0.76-4.53,3.78-2.25,4.54
		c1.51-2.27,2.25-2.27,3.02,0c2.25-3.78,3.02-7.56,6.04-10.58c0,8.31-6.04,9.82-6.8,18.12c8.31-2.27,8.31-15.87,15.11-21.16
		c-2.25-5.29,3.78-8.31,6.05-7.54c-3.78,3.78-6.05,9.07-7.56,15.87c1.51,0,2.27,0,2.27,0.75c-0.76,0.76-3.02,1.51-2.27-0.75h-0.75
		c0.75,6.8-8.31,11.33-5.29,16.62c2.27-5.29,3.78-11.33,9.07-14.36c0,0.76-2.27,3.04,0,3.04c-12.22-21.04,53.06-10.98,18.89-107.29
		c0.75-2.27-0.76-2.27-1.51-4.54h-4.54c-0.75-0.75,0-3.02-2.27-2.25c-2.25-2.27-2.25,2.25-4.53,0
		c-20.08,16.34-28.19,20.64-77.06,86.13c-0.76,0-1.51-0.76-2.27-0.76c-14.36,17.38-25.69,33.99-40.05,48.35c0.76,0,0.76,1.51,0,1.51
		v-1.51h-0.75c0.75,5.29-5.29,4.54-2.27,6.8c-12.09,6.05-15.87,22.67-25.69,26.45c0.75-6.8-3.78-9.07-4.54-14.36
		c-2.25,0-0.75,4.54-4.53,2.27c2.27-2.27-2.27-4.53,3.02-4.53c-2.25-2.27-0.75-5.29-3.02-6.05c-0.75,2.27,2.27,3.78,0,4.53
		l-3.78-2.25c0.76-3.78-0.75-6.05-0.75-9.83c-18.21-22.96-16.13-36.17-53.64-80.07c-11.3,1.05-5.28-3.08-30.98-0.76
		c-6.05,6.05-14.36,8.31-19.65,15.11c0,5.29,2.27,8.32,1.51,13.61l8.31,9.05c6.8,0,10.58,9.07,15.87,12.85
		c0.76,9.82,11.34,15.11,12.09,27.19c10.78,17.28-2.66-10.88,38.54,84.62c-7.28,6.92-33.89,39.66-63.46,80.09
		c-8.32,5.29-11.34,13.6-19.65,18.89c0,2.27-1.51,2.27-0.76,4.53c-32.48,34.01-56.66,74.8-89.15,108.8c0,3.78-2.27,5.29-3.02,8.31
		c3.02,3.04,3.02,6.05,8.31,5.29c6.05,12.09,25.69,14.36,40.79,15.12c32.27-39.21,85.27-112.17,148.1-188.12
		c5.29,5.29,3.76,13.6,9.05,18.89c0.76,6.8,6.8,18.12,9.07,27.94c13.97,25.97,6.33,20.06,30.23,73.29c-0.76,3.02,3.02,4.53,0.75,6.8
		c29.68,54.4,3.53,43.11,83.87,169.24c0,0.76-1.51,1.51-1.51,2.27c2.25,2.25,3.76,3.78,3.76,6.8c18.93,23.42,4.66,17.73,52.9,65.73
		v2.25c18.12,14.36,32.48,30.98,61.95,30.98c2.27,2.27,7.54,0,8.31,3.04c2.27-2.27,4.53-0.76,6.8-3.04
		C493.11,731.74,490.1,732.48,492.37,728.7z M393.39,149.22h1.51v1.51h-1.51V149.22z M381.3,158.29c0,2.25-0.76,0-1.51,0
		C379.79,157.53,381.3,157.53,381.3,158.29z M381.3,160.54c-0.76,2.27-2.27,1.53-3.02,3.78C376.01,163.58,378.28,159.8,381.3,160.54
		z M357.12,173.4c-0.76,0-0.76-0.76-0.76-2.27c0.76,0,1.51,0.76,1.51,1.51C357.12,172.63,357.12,172.63,357.12,173.4z
		 M366.19,157.53c-2.27,0,0-2.27-2.27-2.27C364.67,153,366.94,155.26,366.19,157.53z M364.67,158.29c0.76,2.25-1.51,0.75-1.51,3.02
		c-0.75,0-0.75-1.51-1.51-1.51C362.41,159.04,363.92,158.29,364.67,158.29z M359.39,162.07c0.75,0,1.51,0.75,1.51,1.51
		c-5.29,6.04-9.07,14.34-14.36,18.12C348.82,173.4,356.36,170.38,359.39,162.07z M298.95,222.51c0,0.75-0.76,0.75-1.53,0.75
		C297.43,222.51,298.19,222.51,298.95,222.51z M293.66,217.22c0.75,0,0.75,0,0.75-0.76h0.76c0-0.75,0-0.75,0.75-0.75
		c0-0.76,0.76-1.53,1.51-1.53v1.53h-1.51c0,0.75,0,0.75-0.75,0.75c0,2.27-0.76,3.02-1.51,2.27V217.22z M283.08,216.46
		c2.25,0.76,0,1.51,0,2.27C280.81,217.97,283.08,217.22,283.08,216.46z M176.54,386.46c-2.25,0-0.75-3.04,1.53-2.27
		C178.07,384.95,176.54,385.7,176.54,386.46z M188.63,370.59c2.27,0,1.53,0.75,2.27,0.75C190.9,373.61,186.38,372.85,188.63,370.59z
		 M207.52,347.92v-1.51c0.76,0,0.76,0,0.76-0.76C210.55,345.65,209.79,350.2,207.52,347.92z M210.55,344.91
		c-2.27-2.27,0.75-3.78,3.02-3.78C212.81,343.4,211.3,342.63,210.55,344.91z M217.35,336.6c-0.76-3.78,3.02-3.04,3.02-6.05
		C223.39,332.82,219.61,335.84,217.35,336.6z M245.31,219.48c-0.76,0-2.27-1.51-3.04-3.76
		C244.55,216.46,245.31,217.97,245.31,219.48z M243.78,223.26c2.27-2.27,3.78,3.78,3.78,6.05
		C243.78,230.06,246.06,224.02,243.78,223.26z M280.05,312.42c0-0.76,0.76-0.76,1.53-0.76
		C281.57,312.42,280.81,312.42,280.05,312.42z M292.14,342.63c2.27,0,1.53,0.76,2.27,0.76
		C294.41,345.65,289.88,344.91,292.14,342.63z M303.48,361.52c0.75,0,1.51,1.51,1.51,3.78C302.72,365.3,302.72,362.28,303.48,361.52
		z M310.28,391.75c0-0.76,0.76-0.76,1.51-0.76C311.79,391.75,311.04,391.75,310.28,391.75z M333.69,441.61
		c0.76,0.75,1.53,2.25,1.53,3.02C332.95,445.38,331.44,443.87,333.69,441.61z"/>
	<path class="st0" d="M617.87,480.22c2.27,0,0,2.27,2.27,2.27c0-0.76,0.75-0.76,0.75-3.04
		C618.63,479.46,618.63,477.95,617.87,480.22z"/>
	<path class="st0" d="M627.69,631.34c3.78,3.02,8.31,6.04,13.6,3.76c11.34,5.29,23.43-0.75,37.79-3.02c0-5.29,8.31-3.78,13.6-3.78
		c0.75-3.78,4.53-4.53,7.54-6.8c0,1.51,0,2.27,0.76,2.27c0.75-3.78,6.8-2.27,9.07-4.53v-1.53c-0.76,0-1.53,0-1.53-0.75
		c0.76,0,1.53,0,1.53,0.75h3.02c0-0.75,1.51-1.51,1.51-2.25c9.82-3.78,14.36-12.85,23.41-18.14c0-3.78,0.76-6.04,3.04-6.04
		c-0.76,0.75-0.76,1.51-0.76,2.25c6.05-0.75,6.05-7.54,12.09-8.31c-0.76-6.14,13-6.95,16.62-15.87
		c11.04-5.43,29.73-27.45,48.35-46.83c-0.75,0-1.51-0.76-1.51-3.04c5.29-0.75,0-6.04,5.29-8.31c0.76,2.27,3.04,2.27,0.76,4.54
		c8.31-3.04,9.07-12.85,14.36-15.12c-0.76-3.02,0.75-7.54,4.53-8.31c-0.76-0.75-0.76-1.51,0.75-3.02c-1.51,0-2.25,0-2.25-0.76
		c2.25-3.02,3.02-1.51,6.04-0.75c0.76-0.76,0.76-2.27,0-3.78c0.76,0.75,3.04,1.51,3.04-0.76c-1.53-1.51-2.27-2.25-2.27-1.51
		c2.27-2.27,2.27-8.31,7.54-5.29c0.61,0.57,4.04-13.6,9.07-9.82c0-0.76,0.76-1.51,1.51-1.51c3.04-3.02-0.75-11.34,4.54-9.07
		c-2.27-3.02,2.25-3.02-0.76-5.29c3.02,0.76,1.51-4.53,5.29-2.27c-0.75-2.25,1.51-2.25,0.76-4.53c2.25,0.76,2.25-1.51,4.53-0.75
		c-0.76-5.29,2.27-6.05,5.29-5.29c-3.78-8.32,8.31-11.34,6.04-17.38c-3.98,0.1-0.75-0.99-2.25-3.04c0,0.76-0.76,1.53-1.51,1.53
		c0-0.76,0.75-1.53,1.51-1.53c2.25-6.8,6.8-10.58,10.58-15.85c-2.27-0.76-0.76-0.76-0.76-3.04c-2.27,0-2.27,3.78-4.53,1.51
		c0.75-2.25,3.78-4.53,4.53-1.51c2.27-0.75,4.53-3.76,2.27-6.04c0,0.75-0.76,2.27-2.27,3.78c-2.27-2.27-3.78-3.78-3.02-7.56
		c2.27,0.76,0.75-2.27,3.02-2.27c2.27-5.29,3.78-6.04,6.05-9.05c0.75,0,1.51,0.75,1.51,1.51h1.51c2.27-2.27,2.27-3.78,4.53-6.05
		c0,0.76,0.76,1.51,1.51,1.51c0-2.25,1.51-1.51,0.76-3.76c-0.76,0-0.76-0.76-0.76-2.27c0.76,0,1.51,0,1.51,0.75
		c5.29-8.31,6.05-16.62,11.34-24.92c0-6.05-3.78-7.56-3.78-12.85c-9.82-3.78-11.33-19.63-24.18-19.63l-3.78-4.54
		c-5.29-0.75-4.53,1.51-9.82-0.75c-2.27,3.76-8.31,7.54-4.53,12.83c-6.05,0.76-8.32,4.54-14.36,4.54c0,0.75-3.78,3.02-3.02,0
		c-9.43-0.44-19.65,16.01-124.67,27.94c-3.02-3.76-9.07-6.04-8.31-11.33c-3.04,0-3.04-3.02-6.05-3.02
		c-19.63,15.87-13.6,45.32-2.27,61.95c46.84,8.31,89.16-6.8,129.21-18.89c-12.85,20.4-27.21,37.77-42.32,55.9
		c0.76,5.29-2.27,3.78-1.51,9.07c-20.4,26.45-48.35,47.61-68.75,77.07c0.75,0,0,3.76-0.76,4.53c-3.78-2.27-3.02,1.51-6.04-0.76
		c-0.76,3.78-9.07,6.05-6.05,8.32c-2.25,2.25-5.29,3.02-4.53,5.29c-10.68,1.9,1.75,2.17-52.13,30.21c-2.27,2.27-4.53,7.56-7.56,4.53
		c0,3.04-4.53,3.78-5.27,1.51c-2.27,2.27-3.04,3.78-5.29,4.54c2.25-3.02-3.04,0-5.29-0.76c-0.76,3.04,2.25-0.75,2.25,2.27
		c-3.02,0-3.76,1.51-6.04,1.51c0.07-0.69-0.99-4.85-3.02,0.76c-3.78-2.27-5.29,2.25-9.07,0c-6.04-17.69-6.38-6.69-9.82-46.1
		c-3.32-13.55-2.75-4.6,0-33.99c-2.27-0.76-3.04,3.02-3.78-2.27c2.25,0,3.02,0,3.78-0.75c0-2.27-3.04-3.02-0.76-5.29
		c-2.27-3.02,2.27-5.29,2.27-9.07c-6.05-2.27-3.78-9.07,1.51-11.33c2.25-9.07-1.51-14.36,3.78-21.16c-2.27-2.27,0-6.8-0.76-7.56
		c0,2.27-2.27,0-2.27-0.75c3.78-5.29,1.51-12.85,7.56-18.14c-2.27-2.25,0-4.53-2.27-6.8c3.04-6.04,10.58-14.36,7.56-22.67
		c2.27-9.05-0.76-19.63,9.07-21.9c-0.76-5.29,0.75-5.29-1.51-8.31c2.25-0.76,0.75,1.51,3.02,1.51c-0.76-3.02-1.51-3.02-1.51-6.05
		c2.25,0,2.25-2.25,4.53-3.02c-2.27-8.31,3.78-18.89,7.56-22.67c-2.27-0.75,0.75-8.31,3.76-10.58c-3.02-5.27,3.04-9.05,5.29-14.34
		c-2.25-8.31,9.07-17.38,6.8-24.18c8.32-6.8,6.82-19.65,15.12-25.69c3.02-11.34,11.33-17.38,14.34-29.47
		c-0.75-2.27-2.25,1.51-3.02-0.76c8.31-3.02,7.56-14.36,14.36-18.12c-0.76-3.04,3.78-6.05,3.78-11.34
		c8.31-3.02,12.83-9.82,9.82-18.12c2.27-6.05,7.56-12.85,12.85-13.6c1.48-12.54,25.53-42.8,63.46-77.07c0-2.27,1.51-1.51,1.51-3.78
		c16.62-8.31,23.41-24.92,45.34-28.7c2.25,3.78-0.76,8.31,2.25,13.6c-9.16,25.4,5.32,51.58-43.06,123.9
		c-1.99,15.1-8.95,7.15,10.58,29.47c5.29,2.27,9.07,3.04,11.34,6.8c13.64-2.08,27.4,13.15,37.01-21.9
		c-1.65-9.71,5.41-18.49,15.87-53.64C900.1,126.89,918.98-5.3,815.07,30.68v3.78c-23.03,11.62-35.87,23.28-77.82,64.99
		c-5.29,9.05-10.58,18.12-18.89,21.9c0,3.02-3.02,3.02-0.76,5.29c-3.78-0.76-2.25,3.02-4.53,3.78c0.75,0,0.75,2.25,0,0
		c-6.05,12.83-17.38,19.63-22.67,33.99c-8.31,2.27-10.58,13.6-12.85,21.9h0.76c0-0.75,0.76-1.51,0.76,0.76
		c-0.76,0-1.53,1.51-1.53-0.76c-2.25,0,0,4.54-2.25,3.78c0,0.76-0.76,1.51-2.27,1.51c0.49,0.42,0.52,6.58-2.27,3.78
		c-3.02,2.27-3.76,4.53-6.8,6.8c-17.24,37.28-11.05,18.73-47.59,98.22c2.27,0.76,3.78,0.76,3.02,3.78
		c-2.27-0.76-1.51-2.27-3.78-2.27c-12.83,30.23-24.92,62.71-30.98,92.94c2.27-2.27,0.76-6.05,3.78-6.82
		c2.27,2.27-3.02,15.12-5.29,10.58v2.27c3.78,5.29,3.02,15.87-5.29,16.62c-2.27,9.83-6.04,17.38-5.29,26.45c0.76,0,0.76,1.51,0,1.51
		v-1.51c-6.04,8.31,5.29,14.36-2.25,19.65c0,3.78-0.76,6.8-1.53,7.54c0-3.76,0.76-6.8,1.53-7.54c0-3.04,0-5.29,0.75-6.8
		C564.77,480.35,542.99,601.74,627.69,631.34z M886.83,411.47c0.76,0,0.76,0,0.76-0.76h1.51v1.51c-0.76,0-0.76,0-0.76,0.76h-1.51
		V411.47z M883.82,426.58C883.82,424.31,886.83,427.34,883.82,426.58C883.82,427.34,881.54,427.34,883.82,426.58z M878.53,428.09
		h1.51v1.51h-1.51V428.09z M864.93,458.32c0,3.78-1.51,5.29-4.53,4.53C860.4,459.83,861.91,458.32,864.93,458.32z M844.53,484
		c-0.76,0.75-2.27,1.51-3.04,1.51C841.5,482.49,842.26,484,844.53,484z M830.17,505.91c0,0.76-0.76,0.76-1.51,0.76
		C828.66,505.91,829.41,505.91,830.17,505.91z M825.65,508.18c-0.76,0.75-0.76,1.51-0.76,2.27c-2.27,0-3.78-0.76-3.02-3.04
		C824.14,507.42,824.88,507.42,825.65,508.18z M815.81,515.74h1.51v1.51h-1.51V515.74z M799.2,533.1c0.76,0,0.76,0,0.76-0.75
		c1.51,0.75,1.51,1.51,0.75,2.27h-1.51V533.1z M789.38,548.23c2.25,0,0,2.25,0,3.02C787.11,550.48,790.13,550.48,789.38,548.23z
		 M762.93,76.01c2.27,0.76,0,1.51,0,2.27C760.66,77.52,762.93,76.78,762.93,76.01z M691.16,246.76c1.51,1.51,2.25,2.27,2.25,3.04
		c-2.25,0-1.51,1.51-3.78,1.51C688.89,249.03,690.4,249.03,691.16,246.76z M679.82,270.19c0,2.25-1.51,1.51-1.51,3.78
		C676.04,273.21,677.55,269.43,679.82,270.19z M675.3,280.77c-0.76,0.75,0.75,3.02-1.51,3.02c0.75,3.02-2.27,0,0,0
		C673.02,281.52,673.02,280.77,675.3,280.77z M623.91,453.03c-0.75,0-1.51-1.51-2.25-1.51
		C621.65,449.25,624.67,450.75,623.91,453.03z M620.89,301.91c0-1.51,0-2.25,0.76-3.02c2.25,0,0,2.27,0,3.02H620.89
		C620.89,302.68,618.63,302.68,620.89,301.91z M619.38,306.46c0,3.76-4.53,2.25-3.78-0.76C617.87,305.69,617.11,307.2,619.38,306.46
		z M583.11,418.27C582.37,415.25,585.39,418.27,583.11,418.27C583.88,421.29,580.84,418.27,583.11,418.27z M577.08,426.58
		C577.08,427.34,574.81,427.34,577.08,426.58C576.32,423.56,579.33,426.58,577.08,426.58z"/>
	<path class="st0" d="M670.01,637.37c0-2.27,3.02,0,3.78-2.27C671.51,634.35,667.73,635.1,670.01,637.37z"/>
	<path class="st0" d="M356.36,186.99c-0.75-2.27,2.27-1.51,1.51-3.78C355.61,183.21,354.11,186.25,356.36,186.99z"/>
	<path class="st0" d="M453.07,661.46c-2.25-0.75-1.51-2.25-3.78-3.02C449.29,660.71,450.81,663.73,453.07,661.46z"/>
	<path class="st0" d="M318.67,400.69c0.51,0.54,1.1,1.08,1.43,1.63C319.6,401.82,319.38,400.75,318.67,400.69z"/>
	<path class="st0" d="M325.38,418.95c0,2.25,0.76,3.78,2.27,4.53C326.89,421.2,327.66,418.95,325.38,418.95z"/>
	<path class="st0" d="M267.21,274.63c0,0.76,0.75,1.51,1.51,1.51v-1.51H267.21z"/>
	<path class="st0" d="M315.57,389.48c-0.76-3.02-0.76-6.8-3.78-7.56c0,2.27,1.51,2.27,0.76,4.54
		C314.8,386.46,312.55,390.22,315.57,389.48z"/>
	<path class="st0" d="M375.25,159.04c0,0.76,0,0.76,0.76,0.76C376.01,159.04,376.01,159.04,375.25,159.04z"/>
	<path class="st0" d="M315.57,390.99c0,2.27,0.75,3.02,1.51,2.27C317.08,391.75,316.31,390.99,315.57,390.99z"/>
	<path class="st0" d="M363.92,196.06c0-2.27,2.27-0.76,1.51-3.02C363.16,192.28,361.65,196.06,363.92,196.06z"/>
	<path class="st0" d="M437.2,644.08c0-1.51-0.75-2.25-1.51-2.25C435.69,643.34,436.45,644.08,437.2,644.08z"/>
	<path class="st0" d="M318.59,397.79c0.76-2.27-1.51-4.53-2.27-2.27C318.59,395.51,315.57,400.06,318.59,397.79z"/>
	<path class="st0" d="M913.28,370.68c0.75,0,0.75-0.76,0.75-1.53C913.28,369.15,913.28,369.92,913.28,370.68z"/>
	<path class="st0" d="M435.69,641.83c0-2.27-2.25-4.54-3.02-2.27C434.94,639.55,433.43,641.83,435.69,641.83z"/>
	<path class="st0" d="M323.88,411.38c-0.75-2.25,0-4.53-2.27-4.53C321.6,409.87,322.37,411.38,323.88,411.38z"/>
	<path class="st0" d="M326.15,416.67c0-1.51-0.76-2.27-1.51-2.27C324.64,415.93,325.38,416.67,326.15,416.67z"/>
	<path class="st0" d="M371.48,178.69c0.75,0,0.75-0.76,0.75-1.51C371.48,177.18,371.48,177.92,371.48,178.69z"/>
	<path class="st0" d="M369.21,181.7v-2.27h-0.76C369.21,181.7,366.19,181.7,369.21,181.7z"/>
	<path class="st0" d="M371.48,168.87c-1.53,0-3.04,1.51-3.78,3.76C370.72,173.4,370.72,171.12,371.48,168.87z"/>
	<path class="st0" d="M373.74,161.31c0,2.27-1.51,1.51-0.75,3.78C373.74,165.09,376.01,162.07,373.74,161.31z"/>
	<path class="st0" d="M336.73,194.56c-6.8,11.33-15.87,18.12-22.67,27.96c9.82-5.29,14.34-16.63,22.67-23.43
		C335.96,196.81,338.98,195.3,336.73,194.56z"/>
</g>
</svg>
