<svg version="1.1" id="Layer_1" fill="#fff" xmlns="http://www.w3.org/2000/svg" xmlns:xlink="http://www.w3.org/1999/xlink" x="0px" y="0px"
	 viewBox="0 0 101.25 39.46" style="enable-background:new 0 0 101.25 39.46;" xml:space="preserve">
<g>
	<path class="st0" d="M80.99,16.9c0.11,0.04,0.07-0.08,0.11-0.11C80.99,16.75,81.03,16.86,80.99,16.9z"/>
	<path class="st0" d="M82.26,15.44c-0.04,0-0.04,0-0.04,0.04C82.26,15.48,82.26,15.48,82.26,15.44z"/>
	<path class="st0" d="M80.51,17.64c0.11-0.11,0.22-0.11,0.26-0.22c-0.07,0-0.11,0-0.15-0.04L80.51,17.64z"/>
	<path class="st0" d="M80.47,17.79c0,0.04,0,0.04-0.04,0.04v0.07h0.07C80.51,17.83,80.51,17.79,80.47,17.79z"/>
	<path class="st0" d="M82.18,15.59c0-0.04,0.04-0.07,0.04-0.11h-0.04c-0.11,0.11-0.15,0.19-0.19,0.3
		C82.18,15.89,82.07,15.63,82.18,15.59z"/>
	<path class="st0" d="M72.12,13.99c-0.04-0.11,0.11-0.11,0-0.15c0,0.04-0.04,0.08-0.11,0.08v-0.04h-0.04
		C71.97,13.95,72,13.99,72.12,13.99z"/>
	<path class="st0" d="M71.86,14.25c0-0.04-0.07-0.04-0.07,0C71.82,14.25,71.86,14.36,71.86,14.25z"/>
	<path class="st0" d="M82.26,15.44c0.11-0.11,0.26-0.26,0.22-0.37C82.37,15.22,82.26,15.26,82.26,15.44z"/>
	<path class="st0" d="M71.78,14.29c-0.04,0.15-0.45,0.3-0.34,0.41C71.56,14.81,71.74,14.47,71.78,14.29z"/>
	<path class="st0" d="M73.12,12.09c-0.11,0,0-0.11-0.11-0.07c0.04,0.11-0.15,0.15-0.04,0.19C72.97,12.09,73.12,12.2,73.12,12.09z"/>
	<path class="st0" d="M81.44,16.75c0.15-0.19,0.19-0.26,0.3-0.45C81.55,16.34,81.33,16.64,81.44,16.75z"/>
	<path class="st0" d="M72.04,13.84c-0.04,0-0.04,0-0.04,0.04C72.04,13.88,72.04,13.88,72.04,13.84z"/>
	<path class="st0" d="M52.28,14.25c0,0.04,0.04,0.07,0.07,0.07v-0.07H52.28z"/>
	<path class="st0" d="M51.09,16.45v-0.07C51.05,16.37,51.05,16.45,51.09,16.45z"/>
	<path class="st0" d="M70.66,16.26c-0.04,0-0.04,0-0.04,0.04C70.66,16.3,70.66,16.3,70.66,16.26z"/>
	<path class="st0" d="M71.37,15.18c0-0.04,0-0.07-0.04-0.07c0,0.04-0.04,0.04-0.04,0h0.04c0-0.04,0-0.08-0.04-0.08
		c0,0.11-0.19,0.08-0.07,0.19C71.22,15.18,71.26,15.18,71.37,15.18z"/>
	<path class="st0" d="M51.35,15.89c-0.08,0-0.11,0.04-0.11,0.11C51.35,16.04,51.31,15.93,51.35,15.89z"/>
	<path class="st0" d="M71.45,14.96c-0.11-0.04,0.07-0.07,0.07-0.11c-0.11-0.11-0.19,0.04-0.19,0.15
		C71.31,14.98,71.43,15.03,71.45,14.96z"/>
	<path class="st0" d="M74.73,27.82c0.04,0,0.04,0,0.04-0.04h-0.04V27.82z"/>
	<path class="st0" d="M76.67,24.28v-0.04C76.63,24.24,76.63,24.28,76.67,24.28z"/>
	<path class="st0" d="M81.96,15.93c0.04-0.11,0.15-0.04,0.04-0.15C81.96,15.78,81.85,15.93,81.96,15.93z"/>
	<path class="st0" d="M77.49,24.21c0-0.04,0.04-0.07,0.04-0.11h-0.04C77.41,24.17,77.41,24.21,77.49,24.21z"/>
	<path class="st0" d="M90.76,15.37c-0.11-0.11,0.04-0.15-0.07-0.26c0,0.11-0.07,0.04-0.07,0.15c0.04,0,0.07,0.04,0.07,0.07
		c-0.15-0.04-0.07,0.11-0.07,0.22C90.65,15.52,90.76,15.48,90.76,15.37z"/>
	<path class="st0" d="M79.28,21.04c0,0.04,0,0.07-0.04,0.07v0.04C79.35,21.26,79.39,21.04,79.28,21.04z"/>
	<path class="st0" d="M77.67,23.87c-0.04,0-0.04,0-0.04,0.04C77.67,23.91,77.67,23.91,77.67,23.87z"/>
	<path class="st0" d="M76.4,22.3v-0.04C76.29,22.27,76.29,22.3,76.4,22.3z"/>
	<path class="st0" d="M81.33,16.56c0-0.04,0.04-0.04,0.11-0.04c0-0.11-0.07-0.11,0.08-0.11c-0.04-0.12-0.06-0.29-0.3,0.07v0.11
		C81.33,16.6,81.29,16.56,81.33,16.56z"/>
	<path class="st0" d="M70.62,16.3h-0.04c-0.04,0.04-0.04,0.07-0.04,0.11C70.59,16.41,70.62,16.37,70.62,16.3z"/>
	<path class="st0" d="M70.89,15.78c0.19,0,0.15-0.26,0.26-0.37C70.96,15.44,71,15.67,70.89,15.78z"/>
	<path class="st0" d="M71.15,15.41c0.04,0,0.04,0.04,0.07,0.04c0-0.04-0.04-0.11-0.07-0.15V15.41z"/>
	<path class="st0" d="M76.82,13.91v0.04C76.85,13.95,76.85,13.91,76.82,13.91z"/>
	<path class="st0" d="M76.07,26v0.11C76.18,26.11,76.18,26,76.07,26z"/>
	<path class="st0" d="M74.17,28.23c0.04,0,0.04,0,0.04-0.04C74.17,28.19,74.17,28.19,74.17,28.23z"/>
	<polygon class="st0" points="74.8,27.97 74.8,27.86 74.69,27.97 	"/>
	<path class="st0" d="M74.2,28.19c0.04,0,0.04,0,0.04-0.04C74.2,28.16,74.2,28.16,74.2,28.19z"/>
	<path class="st0" d="M77.3,24.43c-0.04,0-0.04,0-0.04,0.04C77.3,24.47,77.3,24.47,77.3,24.43z"/>
	<path class="st0" d="M75.51,27.04h0.04C75.55,27,75.51,27,75.51,27.04z"/>
	<path class="st0" d="M75.29,27.37c-0.04,0-0.04-0.08-0.08-0.08C75.17,27.41,75.29,27.49,75.29,27.37z"/>
	<path class="st0" d="M20.29,9.48c-0.04,0-0.04,0-0.04,0.04C20.29,9.51,20.29,9.51,20.29,9.48z"/>
	<path class="st0" d="M91.13,21.18c-0.04,0-0.07,0-0.07,0.04C91.09,21.22,91.13,21.22,91.13,21.18z"/>
	<path class="st0" d="M48.85,20.74c0.19-0.04,0.19-0.26,0.3-0.37c-0.26,0.11-0.04-0.04,0-0.15c-0.19,0.04-0.22,0.22-0.34,0.34
		C48.96,20.55,48.81,20.63,48.85,20.74z"/>
	<path class="st0" d="M90.83,15.07c-0.11,0,0-0.22-0.11-0.11C90.68,15.07,90.8,15.18,90.83,15.07z"/>
	<path class="st0" d="M70.77,15.74c0-0.07-0.04-0.11-0.08-0.11C70.7,15.74,70.74,15.78,70.77,15.74z"/>
	<path class="st0" d="M89.86,14.36c-0.04,0-0.07,0-0.07,0.04C89.81,14.39,89.82,14.42,89.86,14.36z"/>
	<path class="st0" d="M49.3,19.69h-0.04c-0.07,0.07-0.07,0.11,0,0.11C49.26,19.77,49.3,19.73,49.3,19.69z"/>
	<path class="st0" d="M76.89,13.91c0.04,0,0.07,0,0.07-0.04C76.93,13.88,76.89,13.88,76.89,13.91z"/>
	<path class="st0" d="M33.6,20.03c0.04-0.04,0.04-0.07,0.04-0.19H33.6C33.56,19.88,33.49,20.03,33.6,20.03z"/>
	<path class="st0" d="M49.49,18.84c0.04,0,0.04-0.04,0.04-0.07C49.49,18.76,49.49,18.8,49.49,18.84z"/>
	<path class="st0" d="M49.19,19.13h-0.04C49.15,19.25,49.19,19.25,49.19,19.13z"/>
	<path class="st0" d="M27,16.9c0.11,0,0.15,0,0.15-0.04C27.04,16.86,27,16.86,27,16.9z"/>
	<path class="st0" d="M24.13,34.53v0.04c0.07,0.07,0.11,0.07,0.11,0C24.21,34.57,24.17,34.53,24.13,34.53z"/>
	<path class="st0" d="M47.58,15.96c-0.07,0-0.15,0.04-0.19,0.07h0.15C47.55,16,47.58,16,47.58,15.96z"/>
	<path class="st0" d="M38.04,9.66c-0.04,0-0.07,0-0.07,0.04C38,9.7,38.04,9.7,38.04,9.66z"/>
	<path class="st0" d="M29.17,16.6c-0.04,0.04-0.07,0.04-0.15,0.04C28.98,16.82,29.32,16.71,29.17,16.6z"/>
	<path class="st0" d="M29.73,16.49c-0.11-0.04-0.26,0.07-0.26-0.04c0.71-0.15,1.27,0.07,1.9-0.37c0.15,0,0.3-0.04,0.45-0.07
		c-0.04-0.19-0.19-0.04-0.07-0.3c0.26-0.11,0.41-0.15,0.71-0.41c-0.11,0-0.15-0.04-0.15-0.07c0.15,0,0.22-0.04,0.22-0.07
		c-0.11,0.04-0.22-0.26-0.26-0.11c0.15,0.11-0.11,0.15,0,0c-0.11-0.04-0.3-0.04-0.34-0.15c0.19,0.04,0.26-0.04,0.3-0.15
		c-0.11,0-0.19,0-0.19-0.04c0.36-0.03-0.36-0.07,0.22-0.26c-3.28-0.11-6.71-0.34-10.33-0.07c-0.22,0.79-0.43,0.7,0.45,2.69
		c1.6-0.15,3.02-0.07,4.47-0.07c0.04-0.11-0.22-0.11-0.11-0.26c0.63-0.11,1.08,0.22,1.57-0.04c-0.11-0.15-0.41,0-0.45-0.04
		c0.26-0.19,1.01-0.15,1.31-0.04C29.28,16.45,29.58,16.64,29.73,16.49z M24.47,16.78c-0.15-0.11,0.11-0.11,0.11-0.15
		C24.73,16.75,24.47,16.75,24.47,16.78z M24.69,16.78c0-0.11,0.19-0.04,0.3-0.07C24.88,16.82,24.84,16.75,24.69,16.78z M25.03,16.78
		c0-0.04,0.08-0.07,0.22-0.07C25.29,16.75,25.21,16.78,25.03,16.78z M26.3,16.78c-0.22,0.04-0.45,0.04-0.67-0.04
		c0,0.04-0.04,0.04-0.04,0.07c-0.11,0,0-0.11-0.11-0.07c0.29-0.07,0.06,0.03,0.86-0.04C26.33,16.75,26.18,16.75,26.3,16.78z
		 M26.33,16.82c0-0.04,0.07-0.07,0.26-0.07C26.56,16.9,26.52,16.78,26.33,16.82z M27.41,16.49c0.11,0,0.11,0.11,0.3,0.07
		C27.71,16.6,27.38,16.64,27.41,16.49z"/>
	<path class="st0" d="M59.07,19.1h-0.07c0,0.04-0.04,0.04-0.04,0.07c0.04,0,0.07,0.04,0.11,0.04V19.1z"/>
	<path class="st0" d="M58.88,19.47c-0.04,0.11,0.15,0,0.11-0.04C59.01,19.45,58.9,19.39,58.88,19.47z"/>
	<path class="st0" d="M28.38,16.6c0,0.04-0.04,0.07-0.04,0.11c0.11,0,0.22-0.04,0.26-0.11C28.5,16.6,28.42,16.64,28.38,16.6z"/>
	<path class="st0" d="M58.77,20.07c-0.04,0-0.08,0-0.08,0.04C58.73,20.1,58.77,20.1,58.77,20.07z"/>
	<path class="st0" d="M59.03,18.84c0,0.11-0.07,0.07-0.07,0.19h0.15C59.11,18.91,59.07,18.87,59.03,18.84z"/>
	<path class="st0" d="M59.22,18.91c0.04,0,0.07,0.11,0.07,0C59.29,18.87,59.22,18.87,59.22,18.91z"/>
	<path class="st0" d="M50.6,17.53c-0.19,0.3-0.22,0.82-0.41,1.01c-0.04-0.04-0.07-0.07-0.11-0.07c-0.41,0.78-0.48,1.79-0.75,2.8
		c-0.11,0.04-0.15,0.11-0.19,0.15c-0.37,2.29,0.05,4.76,4.55,3.95c-0.06-0.02,0.19-0.32,0.07-0.07c0.63-0.42,0.72-0.19,2.09-2.54
		c0.26,0.04,0.19-0.26,0.37-0.3c0,1.64,1.94,2.09,3.58,1.98c0.15-0.11,0.26-0.19,0.45-0.22c-0.07-0.33,0.42,0.06,0.67-0.75h0.11
		v-0.15c0.39-0.08,0.49-0.36,0.66-0.61c-0.01,0.22-0.03,0.44-0.03,0.68c0.11,0.19-0.22,0.6,0.15,0.6c0,0.11,0.04,0.19,0.11,0.22
		c-0.11-0.26,0.19,0,0,0c0.11,0.11,0.04,0.22,0.19,0.11c0.11,0.19-0.04,0.3,0.07,0.41c0.11-0.04,0.04-0.3,0.07-0.34
		c0.19,0.11-0.04,0.3,0.15,0.34c-0.04-0.11,0-0.22,0.07-0.26c0.04,0.19-0.04,0.3,0.07,0.34c0.04-0.04,0-0.19,0.11-0.19
		c0.15,0.26,0.41,0.41,0.75,0.52c0.04,0.34,0.63,0.07,0.78,0.37c0.9-2.18,1.1-4.83,3.24-8.2c-0.11,1.41-1.04,3.28-0.48,5.41
		c0.48,0.19,0.6,0.67,1.16,0.71c0,0.11,0.11,0.07,0.07,0.19c0.26-0.04,0.37,0.19,0.67,0.07c0.77,0.07,0.25,0.27,1.64-2.27
		c0.26-0.86,0.71-1.45,1.01-2.31c0,0.04,0,0.07,0.04,0.07c0.71-1.6,1.79-3.06,2.57-4.55c-0.01,2.02-1.75,2.89-2.68,12.12
		c0.29,1,0.57,1.54,2.65,1.64c-0.04-0.11,0.07-0.04,0.07-0.15c-0.04,0-0.07,0-0.07-0.04c0.04,0,0.11-0.15,0.15-0.04
		c0.04-0.19,0.3-0.11,0.41-0.22c-0.11-0.04-0.11-0.15,0-0.15c-0.04,0.11,0.07,0.07,0.07,0.04c-0.04,0-0.04-0.04,0-0.04
		c0-0.04-0.07-0.04-0.07-0.07c0.11,0,0.11-0.11,0.22-0.15c0-0.04,0-0.04,0.04-0.04c0,0.04,0,0.04-0.04,0.04
		c0,0.15-0.15,0.11-0.11,0.22c0.04,0,0.04,0.04,0.04,0.07c0.33-0.05-0.05-0.34,0.86-0.9c-0.11-0.04,0,0.08-0.11,0.08
		c0,0.04-0.04,0.04-0.04,0c-0.04,0-0.07,0-0.07-0.04l0.26-0.3c-0.04,0-0.07,0-0.07-0.04c-0.22,0.22,0.11-0.34,0,0
		c0.04,0,0.07,0,0.07,0.04c0.11,0,0.04-0.15,0.15-0.11v0.11c0.15,0,0.11-0.15,0.22-0.19c-0.3,0,0.11-0.3-0.07-0.22
		c0,0.04-0.11,0.04,0,0c-0.04-0.11,0.11-0.07,0.07-0.19c-0.11-0.04-0.15,0.11-0.15,0c0.04-0.04,0.04-0.22,0.15-0.11
		c0-0.11-0.04-0.26,0.11-0.22c0,0.11,0.11,0.04,0,0.15c0.11-0.04,0.07,0,0.22,0c-0.04-0.11,0-0.26,0.11-0.37
		c0.07,0,0.11,0.04,0.11,0.07h0.04c0.11-0.15,0.04-0.19,0.08-0.34c-0.09-0.02-0.09,0,0.07-0.26c-0.11,0-0.11,0.04-0.15,0.04
		c0,0.04-0.11,0.04,0,0c-0.04-0.11,0.15-0.15,0.04-0.26c0,0.04-0.04,0.07-0.11,0.07c0.19-0.19,0.15-0.41,0.41-0.6
		c-0.11-0.11,0.15-0.34,0.19-0.22c0,0.15-0.07,0.11-0.19,0.22c0,0.15-0.19,0.22-0.07,0.34c-0.19,0-0.11,0.15-0.11,0.26
		c0.26-0.04,0.22-0.26,0.37-0.37v0.07c0.04,0,0.07-0.04,0.07-0.11c-0.11-0.11,0.08-0.19,0.08-0.3c0.04-0.04,0.19-0.26,0.19-0.07
		c0.07-0.04,0.11-0.07,0.11-0.19c-0.15-0.13-0.08-0.05,0.19-0.34c0,0.04-0.04,0.04-0.04,0h0.04c0-0.07,0-0.11,0.04-0.11
		c0-0.03,0.01-0.05,0.02-0.06c0,0.01,0.01,0.01,0.01,0.02c0,0.03-0.01,0.05-0.04,0.05v0.04c0.04,0,0.06-0.01,0.07-0.03
		c1.27,0.54,1.54,2.62,5.79,0.33c-0.03,0.06-0.06,0.12-0.09,0.18c-0.19,0.11-0.3,0.26-0.41,0.41c0.29,0.5-0.95,0.67,0.34,2.35
		c0.71,0.11,1.71,0.52,2.46,0.19c0.39-0.62,0.21-1.19,4.29-3.28c0.34,0.11,0.34-0.22,0.6-0.11c0.04-0.11-0.11-0.04-0.07-0.15
		c0.34-0.15,0.86-0.19,0.97-0.45c0.41,0,0.6-0.11,0.86-0.22c-0.07,0-0.11-0.04-0.11-0.07c0.72,0,2.17-0.89,4.55-1.72
		c0-0.11-0.07-0.11-0.04-0.22c0.33-0.04-0.02-0.19,0.6-0.22c-0.21-0.1,0.51-0.29,0.11-0.41c0.04-0.11,0.26,0,0.22-0.15
		c-0.6-0.11-1.3,0.19-1.72,0c0-0.11,0.15,0,0.15-0.11c-1.64,0.3-3.58,0.75-5.26,1.34c-0.75,0.57-1.57,0.66-4.18,1.98
		c0-0.11,0.11-0.15,0.15-0.26c0.04,0.04,0.07,0.04,0.15,0.04c0.04-0.19,0.04-0.37,0.22-0.34c0.04-0.11-0.04-0.22,0.07-0.34
		c0.11,0,0.04,0.04,0.15,0.04c0.04-0.11-0.08-0.11-0.04-0.22c0.15-0.11,0.26-0.26,0.45-0.3c-0.04,0-0.04-0.04-0.04-0.11
		c0.04-0.05,0.36-0.01,0.22-0.26c0.11,0,0.07,0.04,0.11,0.04c0.04-0.15,0.11-0.26,0.11-0.37c0.15,0.04,0.15-0.04,0.26-0.15
		c-0.04-0.04-0.15,0-0.11-0.11c0.3,0,0.37-0.22,0.52-0.37c-0.07,0-0.11,0-0.11-0.04c0.15-0.11-0.04-0.19,0.22-0.22
		c0-0.07,0.04-0.11,0.07-0.11c0.11-0.11,0.07-0.26,0.26-0.15c0.04-0.11-0.04-0.08-0.04-0.19c0.3,0.11,0.37-0.26,0.56-0.37
		c0.04-0.11-0.11-0.04-0.07-0.15c0.15,0.11,0.3-0.11,0.26-0.22c0.3-0.19,0.56-0.41,0.82-0.75c-0.1-0.03-0.2-0.08,0.11-0.07
		c0.11-0.26,0.34-0.3,0.45-0.56c-0.11-0.04-0.11,0.11-0.15,0c0.11-0.04,0.15-0.3,0.26-0.19c-0.04,0.04-0.04,0.07,0.04,0.07
		c0.19-0.3,0.56-0.37,0.6-0.82c0.04,0.04,0.07,0.04,0.15,0.04c0.86-1.01,1.75-1.94,2.61-2.95c0.11,0.04,0.07-0.04,0.19-0.04
		c0.41-0.56,0.86-1.01,1.31-1.49h0.11c0-0.19,0.08-0.26,0.19-0.37c-0.19-0.26-0.26-0.48-0.3-0.75c-0.41-0.26-0.63-0.56-1.04-0.71
		c-0.04,0.11-0.22,0.22-0.34,0.34c-0.48-0.41-1.16-0.11-1.57-0.37c-0.11,0.11-0.19,0.04-0.3,0.15c-1.12-0.2-1.7,0.25-4.47-0.26
		c-0.26,0.56,0.11,0.93,0.15,1.64c0.6,0.56,1.49,1.16,2.57,1.01c0.34,0.17,0.54,0.04,1.49,0.11l-2.54,2.61c0,0-0.04,0-0.11,0
		c-0.01,0.01-0.01,0.02-0.02,0.03c0.01-0.02,0.02-0.05,0.02-0.07c-0.08,0.04-0.15,0.07-0.19,0.04c-0.04,0.11-0.07,0.22-0.15,0.3
		c0.04-0.41,0.22-0.63,0.34-0.97c-0.11-0.04-0.15-0.11-0.15-0.22c-0.19-0.04-0.07,0.19-0.19,0.15c-0.15-0.19,0.08-0.34-0.04-0.6
		c-0.04,0.11,0,0.19-0.11,0.3c0,0.04-0.04,0.07-0.07,0.07c0-0.04,0.04-0.07,0.07-0.07c-0.04-0.11-0.11-0.11-0.15-0.22
		c-0.15,0.15,0,0.3-0.11,0.45c0-0.11,0-0.15-0.04-0.15c-0.04,0.19,0.11,0.45-0.15,0.56c-0.04-0.04-0.07-0.07-0.07-0.11h0.15
		c0.08-0.09-0.21-0.14,0.04-0.26c-0.04,0-0.04-0.04-0.07-0.04c-0.11,0.11-0.07,0.15-0.11,0.19c0,0.04-0.04,0.04-0.04,0h0.04v-0.15
		c-0.06-0.14-0.21,0.34-0.19-0.07c-0.11,0.15-0.11,0.3-0.26,0.34c-0.04,0.11,0.04,0.07,0.04,0.19c-0.26,0-0.15,0.56-0.41,0.45
		c-0.04,0.07-0.04,0.15,0,0.22c-0.19,0-0.26,0.26-0.45,0.22c0.11,0.26-0.22,0.56-0.41,0.71c-0.11-0.11,0.11-0.04,0.07-0.15
		c-0.19,0-0.15,0.22-0.26,0.34l-0.04-0.04h-0.04c-1.27,1.45-3.55,4.17-7.08,5.97c-0.62,0.03-0.02,0.04-1.6-0.04
		c-0.06-0.39-0.08-0.78-0.06-1.15c0.09-0.1,0.13-0.23,0.21-0.34h-0.08c0,0.07-0.06,0.06-0.09,0.02c0-0.02,0.01-0.05,0.01-0.07
		c0.03,0.02,0.06,0.06,0.08,0.06c0.11-0.11,0,0-0.04-0.11c0.04-0.11,0.19-0.07,0.15-0.26c0.04,0,0.04,0.04,0.07,0.04
		c0.05-0.06,0.05-0.16,0.05-0.25c0.1,0.07,0.21,0.13,0.29,0.21c2.98-0.76,4.96-3.79,6.97-7.53c0.34-0.34,0.45-0.97,0.41-1.45
		c-0.34-0.45-0.6-1.23-1.16-1.49c-0.26,0.04-0.26-0.11-0.41-0.11c-0.11,0.11,0.19,0.11,0.07,0.15c-0.34-0.28-0.48,0.11-1.79,0.67
		c-0.41,0.19-0.75,0.3-0.93,0.71c-0.04,0-0.07-0.04-0.11-0.04c-0.78,0.8-1.06,0.84-2.87,3.1c-0.11-0.11-0.15,0.04-0.26,0.04
		c-0.48,0.86-1.01,1.6-1.45,2.46c0.04,0.26-0.11,0.48-0.26,0.6c-0.04,0.19-0.04,0.3,0,0.34c-0.3,0.56-0.67,1.77-0.63,2.56
		c-0.01,0.02-0.02,0.03-0.04,0.05c0.04,0,0.04,0.11,0,0c-0.26,0.34-0.48,0.82-0.67,1.01c0.04,0,0.07,0.04,0.07,0.11
		c-0.04,0-0.07-0.04-0.07-0.11c-0.04,0-0.04,0.04-0.04,0.15c-0.01,0.06-0.03,0.04-0.15,0.11v0.15c-0.57,0.46-0.76,1.03-2.16,2.98
		v-0.63c-0.04,0-0.11-0.04-0.15-0.07c0.15-0.15,0.15-0.52,0.15-1.01c0.11,0,0.11-0.04,0.15-0.04c0-0.36,0.23-0.1,0.19-1.27
		c0.11-0.04,0.11-0.07,0.04-0.15c0.19-0.15,0.19-0.41,0.15-0.6c0.08-0.07,0.11-0.11,0.15-0.11c0.04-0.34,0.07-0.82,0.26-1.08
		c-0.04,0-0.07-0.04-0.07-0.15c0.26-0.26,0.19-0.82,0.45-1.12c-0.04,0-0.04-0.04-0.04-0.08c0.15-0.15,0.15-0.34,0.26-0.6
		c-0.11-0.04-0.07-0.11-0.19-0.15c0.11-0.04,0.07,0.07,0.19,0.07c0.26-0.78,0.37-1.38,0.56-2.13c-0.11-0.04-0.07-0.34,0.04-0.37
		c0.04,0.15-0.15,0.26,0,0.3l0.34-1.19c0.11,0,0.04-0.11,0.15-0.11c-0.04-0.19,0.15-0.3,0.04-0.41c-0.15,0,0.04,0.11-0.15,0.07
		c0.15,0.08-0.09-0.41,0.22-0.19c-0.18,0.01,0.23-0.21-0.11-0.3c0.15,0,0,0,0.04-0.11h0.11c0-0.11-0.04-0.11-0.04-0.15
		c-0.04,0-0.04-0.04,0-0.04v-0.08c0.11,0.04,0.07-0.11,0.19-0.07c-0.04-0.15,0.11-0.26-0.04-0.3c0,0.19-0.04,0.3-0.15,0.3
		c0.11-0.11-0.04-0.41,0.22-0.41C77,13.39,77,13.43,77.08,13.43c0.15-0.71,0.37-1.45,0.26-2.39c-0.11,0-0.04,0.04-0.15,0.04
		c-0.19-0.45-0.45-0.86-0.93-1.01V9.96c-0.19,0-0.26,0-0.3,0.04c-0.78-0.56-1.6,0.26-1.86,0.89c-0.26-0.11-0.34,0.22-0.45,0.37
		c0.04,0,0.04,0.11,0,0c-0.15,0.19-0.45,0.48-0.48,0.67c0.04-0.07,0.07-0.11,0.19-0.11c0.04,0.11-0.04,0.22-0.19,0.26
		c-0.04,0.15,0.11,0.11,0.11,0.22c-0.11,0-0.04,0.15-0.15,0.11c-0.04-0.11,0.11-0.15,0-0.19c-0.11,0.15-0.15,0.26-0.41,0.15
		c-0.04,0.11,0.11,0.11,0,0.15c0,0.04-0.11,0.04,0,0V12.5c-0.11,0.04-0.19,0.11-0.22,0.3c0.11,0-0.04,0.15,0,0
		c-0.26,0.15-0.34,0.48-0.48,0.75c0.15,0.04,0.19-0.37,0.3-0.11c-0.15,0-0.11,0.19-0.22,0.3c0.15,0,0.11-0.19,0.22-0.22
		c0,0.04,0.11-0.04,0.11,0.08c-0.56,0.85-0.06,0.11-1.19,1.86c-0.04,0.26-0.19,0.41-0.3,0.6c0-0.11,0-0.15-0.04-0.15
		c-0.04,0.11-0.22,0-0.22,0.26c0.11,0.04,0.19-0.11,0.22,0c-0.15,0.19-0.15,0.49-0.41,0.63c-0.04-0.19,0.07-0.22,0.07-0.37
		c-0.04,0.04-0.07,0.04-0.15,0.04c0-0.11-0.07-0.19,0.04-0.22c0.08,0.08,0.11,0.11,0.08,0.11c0.04-0.11,0.07-0.34,0.04-0.45
		c-0.04,0.11-0.11,0.08-0.22,0.19c-0.04-0.11,0-0.26,0.11-0.41c0.04,0.04,0.08,0.07,0.11,0.07c-0.01-0.47,0.23-0.01,0.22-1.42
		c0.04-0.11,0.11-0.19,0.15-0.19c0.04-0.11-0.07,0-0.07-0.11c0.41-0.3,0.07-0.93,0.3-1.38c-0.11,0-0.19-0.19-0.34-0.15
		c-0.26-0.63-0.71-1.01-1.34-1.08c0-0.11-0.11-0.04-0.07-0.15c-0.11,0.11-0.07,0.11-0.19-0.04c-0.56,0.26-1.04,0.48-1.31,1.04h-0.15
		v0.15c-0.71,0.45-0.86,1.31-1.45,1.86c0.19-0.6,0.19-1.31,0.45-1.9c-0.15-0.26-0.52-0.75-0.86-0.78c-0.1,0.2-0.72-1.35-2.01,0.15
		c0.04,0.04,0,0.11,0.11,0.15c-0.67,1.65,0.69,2.41-2.38,7.05c-0.02,0.06,0.1,0.31-0.11,0.19c0.04,0.34-0.41,0.41-0.37,0.86
		c-0.11,0-0.11,0.04-0.15,0.04c-0.56,1.01-1.23,1.83-2.09,2.42c-0.41-0.6-0.07-1.45-0.26-2.09c-0.27-0.24-0.15-0.02,0.19-0.86
		c-0.04-0.04,0.07-0.19-0.04-0.19c0,0.11-0.04,0.19-0.15,0.15c0.11-0.19-0.11-0.52,0.3-0.41v-0.3c-0.11,0-0.11,0.07-0.15-0.04
		c0.11-0.26,0.37-0.3,0.48-0.41c0,0.15,0.04,0.11,0,0.22c0.15-0.04,0.19-0.26,0.15-0.41c-0.15,0.11-0.19,0.07-0.34,0.04
		c0.11-0.11,0.22-0.19,0.41-0.19c0.11-0.3,0.07-0.34,0.19-0.6c-0.04-0.82,0.87-2.45,1.27-5.03c-0.07-0.19-0.22-0.34-0.41-0.41
		c-0.11-0.41-0.56-0.45-0.82-0.71c-0.15,0.11-0.11,0.04-0.37,0.04c-0.11,0.48-0.48,0.71-0.48,1.19c-0.19,0.04-0.22,0.15-0.15,0.26
		c-0.34,0.11-0.26,0.63-0.6,0.75c0.11-0.56,0.41-1.12,0.52-1.9c-0.32-0.52-0.01-0.58-1.83-1.38c-0.07-0.07-0.11-0.11-0.11-0.07
		c-0.61-0.05-1.74,0.9-3.1,2.46c0.04,0,0.07,0.04,0.07,0.07c-0.42,0.53-0.05,0.05-1.49,1.94c-0.3,0.56-0.63,1.08-0.93,1.68
		c-0.04-0.04-0.11-0.04-0.15,0v0.11c0.04,0,0.04,0.07,0,0.07c0,0.26-0.15,0.37-0.26,0.52c-0.11,0-0.04-0.11-0.15-0.07
		c-0.04,0.26-0.11,0.3-0.22,0.56C50.49,17.49,50.6,17.42,50.6,17.53z M50.01,18.95c0-0.04,0.04-0.04,0.07-0.04
		C50.08,18.95,50.04,18.95,50.01,18.95z M90.31,15.37c-0.01,0.03,0,0.03-0.07,0.04C90.24,15.37,90.27,15.37,90.31,15.37z
		 M90.2,16.02c0,0-0.01,0-0.01,0.01c0-0.01,0-0.02,0.01-0.02C90.2,16,90.2,16.01,90.2,16.02z M89.98,14.7
		c0.11-0.04,0.04,0.04,0.07,0.15C89.94,14.85,89.94,14.81,89.98,14.7z M89.45,15.78c-0.04,0.11-0.04,0-0.07,0
		C89.38,15.74,89.45,15.74,89.45,15.78z M89.23,16.08c0,0.07-0.04,0.11-0.11,0.11C89.16,16.15,89.12,16.04,89.23,16.08z
		 M89.12,15.44c0,0,0,0.04,0,0.11C89.08,15.52,89.08,15.48,89.12,15.44z M88.78,16.08c0.04-0.19,0.11-0.26,0.22-0.45
		C89.12,15.78,88.89,15.96,88.78,16.08C88.78,16.11,88.67,16.11,88.78,16.08z M88.22,16.75c0,0,0.04,0,0.07,0.04
		c-0.04,0.04-0.04,0.04-0.04,0.07c-0.04,0-0.04-0.04-0.07-0.04C88.19,16.78,88.22,16.78,88.22,16.75z M75.77,26.03
		c0-0.04,0.04-0.07,0.11-0.07C75.88,26,75.85,26.03,75.77,26.03z M75.88,25.92c0-0.11,0.07-0.15,0.11-0.26
		C76.07,25.73,76.03,25.81,75.88,25.92z M76.07,25.25c-0.11,0.04-0.07,0.11-0.19,0.11c0.11-0.11,0.07-0.19,0.19-0.3
		C76.22,25.1,75.92,25.21,76.07,25.25z M76.18,25.7c-0.11-0.15,0.11,0,0.11-0.11C76.4,25.62,76.29,25.7,76.18,25.7z M76.26,24.28
		C76.26,24.32,76.14,24.32,76.26,24.28C76.22,24.13,76.37,24.28,76.26,24.28z M76.37,24.58c0-0.04,0.04-0.04,0.15-0.04
		C76.52,24.65,76.4,24.62,76.37,24.58z M76.52,24.99C76.52,24.84,76.67,24.99,76.52,24.99C76.55,25.14,76.4,24.99,76.52,24.99z
		 M76.63,25.4c0,0.04-0.07,0.04-0.07,0.07c-0.04-0.02-0.04-0.01-0.04-0.11C76.55,25.36,76.52,25.4,76.63,25.4z M76.78,24.17
		C76.82,24.17,76.82,24.28,76.78,24.17c-0.11,0,0.04,0.22-0.11,0.11c-0.04,0.11-0.11,0.3-0.22,0.19c0.07-0.04,0.15-0.19,0.19-0.37
		h0.04c0.04,0.19,0.04-0.07,0.15-0.04C76.82,24.09,76.78,24.06,76.78,24.17z M77.08,23.61c0-0.04,0.04-0.04,0.07-0.04
		C77.15,23.61,77.11,23.61,77.08,23.61z M77.15,22.97c-0.11,0.04,0,0.22-0.15,0.19c-0.04-0.11,0-0.11-0.04-0.26
		c0.11,0,0.11,0.07,0.15-0.04c0.04,0,0.04,0.04,0.07,0.04c0-0.15,0,0,0.11,0c0,0.07-0.04,0.07-0.11,0v0.11
		C77.15,23.01,77.15,23.01,77.15,22.97z M78.38,20.92c0,0.04-0.11,0.15-0.11,0.04C78.31,20.96,78.27,20.92,78.38,20.92z
		 M78.31,21.86c-0.04,0-0.04-0.04,0-0.04V21.86z M78.42,21.52c0-0.04,0-0.07,0.04-0.07C78.46,21.48,78.46,21.52,78.42,21.52z
		 M78.68,20.74c0,0.04,0,0.04-0.04,0.04C78.64,20.74,78.64,20.74,78.68,20.74z M78.01,21.59v-0.04
		C78.05,21.56,78.05,21.59,78.01,21.59z M78.57,19.51c0-0.04,0.04-0.07,0.07-0.07C78.64,19.47,78.61,19.51,78.57,19.51z
		 M77.71,20.92c0-0.04,0.04-0.07,0.07-0.07C77.78,20.89,77.75,20.92,77.71,20.92z M77.58,22.9c-0.01,0.01-0.02,0.03-0.02,0.04
		c-0.1,0-0.08-0.09-0.03-0.12C77.55,22.84,77.56,22.87,77.58,22.9z M77.45,23.09c-0.11,0.04-0.04,0.15-0.15,0.15
		C77.3,23.12,77.34,23.09,77.45,23.09z M77.19,22.64c-0.04-0.11,0.07-0.04,0.07-0.15c0.11,0,0.04,0.11,0.15,0.07
		C77.41,22.71,77.3,22.68,77.19,22.64z M77.19,22.04C77.23,22.19,77.08,22.04,77.19,22.04C77.19,21.93,77.34,22.08,77.19,22.04z
		 M77.19,24.39c-0.11,0.15-0.15-0.07-0.04-0.11C77.26,24.28,77.08,24.39,77.19,24.39z M77.26,23.35h-0.07
		c0-0.04,0.04-0.07,0.04-0.11c0.04,0,0.04,0.07,0.07,0.07C77.3,23.35,77.3,23.35,77.26,23.35z M77.49,23.83
		c-0.11,0-0.04-0.15,0.07-0.11C77.56,23.76,77.49,23.8,77.49,23.83z M77.75,23.27c-0.19,0.11-0.22,0.37-0.37,0.52
		c0-0.04-0.07-0.04-0.07-0.08c0.19,0,0.15-0.19,0.19-0.34h-0.04c0,0.04-0.04,0.15-0.04,0.04c0-0.04,0-0.04,0.04-0.04
		c0-0.04,0.04-0.04,0.04,0h0.04c0-0.04-0.04-0.07-0.07-0.11h0.19c0.02-0.06,0.04-0.11,0.07-0.15c0.03,0.05,0.06,0.09,0.09,0.13
		C77.77,23.27,77.77,23.27,77.75,23.27z M78.61,22.23c0-0.04,0.04-0.07,0.07-0.07C78.68,22.19,78.64,22.23,78.61,22.23z
		 M78.94,21.71c-0.01,0-0.01,0-0.02,0c0-0.03,0.01-0.05,0.01-0.08C78.94,21.64,78.94,21.67,78.94,21.71z M79.09,21.04
		c0,0,0.04-0.04,0.07-0.15C79.28,20.89,79.2,21.07,79.09,21.04z M80.82,18.22c0.01-0.01,0.02-0.02,0.03-0.03
		C80.84,18.2,80.83,18.21,80.82,18.22z M82.85,13.99c-0.01,0.03,0,0.03-0.08,0.04C82.78,13.99,82.82,13.99,82.85,13.99z
		 M84.87,12.53c0.11,0.15-0.26,0.34-0.22,0.6c-1.19,1.57-2.36,3.16-3.78,4.5c0.01-0.01,0.01-0.02,0.02-0.02
		c-0.04-0.03-0.08-0.06,0.07-0.07c-0.11-0.22,0.41-0.52,0.34-0.71l-0.75,1.04c0,0,0.03,0,0.06,0c-0.02,0.02-0.04,0.04-0.06,0.06
		c-0.01-0.01-0.02-0.01-0.04-0.02c-0.03,0.03-0.03,0.06-0.04,0.09c-0.1,0.09-0.2,0.19-0.3,0.28c0,0,0,0,0,0
		c0.11-0.11-0.02-0.02,0.3-0.48c0.07-0.07,0.07-0.11,0-0.11c-0.02,0.06-0.04,0.07-0.07,0.07c0.01-0.03,0.02-0.06,0.03-0.09
		c0.01,0.01,0.03,0.02,0.04,0.02c0-0.03-0.01-0.05-0.02-0.07c0.13-0.24,0.31-0.44,0.43-0.67c0.01,0.01,0.01,0.03,0.04,0.03
		c0-0.14,0.13-0.19,0.05-0.32c0-0.01,0-0.01,0.01-0.02c0.08,0.01,0.11,0,0.13-0.04c0,0,0,0,0.01,0c0.03-0.04,0.06-0.08,0.08-0.12
		c0.01,0,0.01,0,0.03,0c0-0.02,0-0.03-0.01-0.03c0.07-0.1,0.14-0.2,0.21-0.3c0.06-0.08,0,0,0.17-0.23c0,0,0,0,0,0
		C82.15,15.17,82.63,14.53,84.87,12.53z M76.96,22.15c0-0.04,0.11-0.15,0-0.15c0-0.04,0.04-0.04,0.11-0.04c0-0.04-0.04,0-0.04-0.11
		c0.13,0.03,0.12-0.1,0.16-0.18c0.01,0.04,0.01,0.08,0.02,0.12C77.15,21.93,77.07,22.05,76.96,22.15
		C76.96,22.19,76.85,22.19,76.96,22.15z M76.93,22.27c-0.04,0.11-0.07,0.07-0.11,0.19c-0.11-0.15-0.07,0.04-0.19,0.04
		C76.67,22.38,76.74,22.3,76.93,22.27z M76.82,23.05c0.04,0,0.04,0.08,0.07,0.08c-0.04,0.04-0.11,0.07-0.15,0.07
		C76.74,23.09,76.85,23.16,76.82,23.05z M76.67,22.83C76.63,22.68,76.78,22.83,76.67,22.83C76.67,22.86,76.55,22.86,76.67,22.83z
		 M76.82,23.27c-0.04,0-0.07,0.04-0.07,0.07C76.63,23.35,76.82,23.16,76.82,23.27c0.07,0,0.11,0,0.11,0v-0.11
		c0.04,0,0.07,0.04,0.07,0.11h-0.07c-0.11,0.11-0.04,0.19-0.15,0.22c0,0.04-0.07,0.07-0.07,0.11c-0.11,0-0.04-0.15,0.07-0.11
		c0-0.04-0.04-0.04-0.04-0.07l-0.11,0.11C76.48,23.38,76.85,23.42,76.82,23.27z M76.55,23.8c0.04,0.15-0.07,0.11-0.07,0.22
		c-0.04-0.19,0.04-0.15-0.15-0.15C76.37,23.83,76.44,23.8,76.55,23.8z M76.33,23.42c0,0.04-0.07,0.07-0.07,0.11
		C76.14,23.53,76.22,23.38,76.33,23.42z M76.26,24.88c0,0.04-0.04,0.04-0.07,0.04C76.18,24.88,76.22,24.88,76.26,24.88z
		 M76.26,25.36c0,0.15-0.19,0.41-0.22,0.15c0.11-0.04,0.15,0.04,0.19-0.11h-0.07C76.14,25.36,76.18,25.36,76.26,25.36z M76.03,24.35
		c0-0.04,0.04-0.07,0.11-0.07C76.14,24.32,76.11,24.35,76.03,24.35z M76.03,23.8C76.07,23.94,75.92,23.8,76.03,23.8
		C76.03,23.65,76.18,23.8,76.03,23.8z M76.03,23.57c0,0.11-0.11,0.11-0.11,0.22C75.81,23.76,75.92,23.61,76.03,23.57z M75.81,23.83
		c0.11,0,0.08,0.04,0.11,0.04C75.92,23.98,75.7,23.94,75.81,23.83z M75.88,24.58c0-0.04-0.04,0-0.04-0.11
		c0.04,0,0.07,0.04,0.11,0.04c0,0.04-0.04,0.04-0.04,0.07H75.88c0,0.11-0.08,0.15-0.11,0.26C75.66,24.73,75.77,24.62,75.88,24.58z
		 M75.73,25.55c0.15,0,0.04,0.15,0,0.19C75.62,25.7,75.77,25.66,75.73,25.55z M75.62,25.85C75.62,25.7,75.77,25.85,75.62,25.85
		c0,0.04,0,0.07-0.04,0.07c0,0.04-0.11,0.04,0,0C75.58,25.88,75.58,25.85,75.62,25.85z M75.55,25.4c-0.04,0.04-0.08,0-0.08-0.11
		C75.51,25.29,75.55,25.32,75.55,25.4z M75.47,26c0.11,0.04,0.04,0.04,0.04,0.15C75.44,26.11,75.44,26.03,75.47,26z M75.32,26.26
		c-0.11-0.04,0-0.07,0-0.11C75.44,26.18,75.32,26.22,75.32,26.26z M75.29,24.69c0.11,0,0.04,0.15-0.08,0.11
		C75.21,24.76,75.29,24.73,75.29,24.69z M74.65,26.52C74.65,26.55,74.54,26.55,74.65,26.52C74.61,26.37,74.76,26.52,74.65,26.52z
		 M74.5,27.64c0,0.04-0.04,0.04-0.07,0.04C74.43,27.64,74.47,27.64,74.5,27.64z M73.83,24.54c0-0.04,0.04-0.04,0.07-0.04
		C73.91,24.54,73.87,24.54,73.83,24.54z M76.63,14.73c0,0.11,0.07,0.15-0.07,0.15c0,0.04,0.04,0.07,0.07,0.07
		c-0.11,0.11-0.22-0.07-0.07-0.07C76.44,14.85,76.52,14.73,76.63,14.73z M76.11,10c0.04,0,0.07,0.04,0.07,0.11
		c-0.11,0-0.07-0.04-0.11-0.04C76.07,10.04,76.11,10.04,76.11,10z M76.03,16.67c0,0.11-0.04,0-0.07,0
		C75.96,16.64,76.03,16.64,76.03,16.67z M75.92,16.26c-0.04,0-0.04,0-0.04,0.04c-0.04,0-0.04-0.04-0.04-0.11
		C75.88,16.19,75.92,16.23,75.92,16.26z M75.88,17.12c0.11,0.04,0.04,0.26-0.08,0.22C75.81,17.31,75.85,17.23,75.88,17.12z
		 M75.73,17.46c0.04,0,0.04,0,0.04-0.04h0.07v0.11h-0.11V17.46z M75.36,18.69C75.32,18.43,75.51,18.69,75.36,18.69
		C75.36,18.72,75.25,18.72,75.36,18.69z M75.17,19.32C75.21,19.47,75.06,19.32,75.17,19.32C75.14,19.17,75.29,19.32,75.17,19.32z
		 M75.1,19.51v-0.04C75.29,19.43,74.91,19.69,75.1,19.51z M74.84,20.4c0.04,0,0.04,0.08,0.07,0.08c0,0.04-0.07,0.04-0.07,0.07
		C74.73,20.51,74.88,20.51,74.84,20.4z M74.73,20.89c0,0.11,0,0.19-0.04,0.22C74.58,21.07,74.69,20.89,74.73,20.89z M74.65,21.41
		c0,0.04-0.04,0.04-0.07,0.04C74.58,21.41,74.61,21.41,74.65,21.41z M74.32,13.76h0.07v0.07h-0.07V13.76z M74.35,14.1
		c-0.11,0.19,0.04,0.34-0.22,0.34C74.24,14.32,74.17,14.1,74.35,14.1z M74.02,14.36c0,0.04-0.04,0.04-0.07,0.04
		C73.94,14.36,73.98,14.36,74.02,14.36z M73.46,12.31c0-0.04,0.04-0.04,0.07-0.04C73.53,12.31,73.5,12.31,73.46,12.31z M73.65,11.71
		c0-0.04,0-0.04-0.04-0.04c0-0.04,0.04-0.04,0.11-0.04C73.72,11.68,73.68,11.71,73.65,11.71z M73.46,11.64
		c0-0.04,0.04-0.04,0.04-0.07c0.04,0,0.04,0.04,0.07,0.04c-0.07-0.11-0.04-0.22,0.15-0.26c0-0.11,0.15,0.04,0,0
		c0.04,0.15-0.11,0.11-0.11,0.26h-0.04c0,0.04-0.04,0.04-0.04,0.07C73.5,11.68,73.5,11.64,73.46,11.64
		C73.5,11.9,73.35,11.75,73.46,11.64z M73.42,12.09c-0.04,0-0.04,0-0.04,0.04c-0.04,0-0.04-0.04-0.04-0.11
		C73.38,12.01,73.42,12.05,73.42,12.09z M72.97,12.65v0.15c-0.04,0-0.07-0.04-0.07-0.15H72.97z M72.97,14.51
		c0.11,0.04,0.04,0.19-0.07,0.19C72.9,14.59,72.97,14.62,72.97,14.51z M71.74,16.67C71.74,16.82,71.59,16.67,71.74,16.67
		C71.63,16.56,71.86,16.56,71.74,16.67z M72.04,17.79c0-0.04,0.04-0.04,0.07-0.04C72.12,17.79,72.08,17.79,72.04,17.79z
		 M72.08,15.03c0.11,0,0.07,0.22-0.07,0.19C72,15.11,72.12,15.14,72.08,15.03z M72.12,17.42c0-0.04,0.07-0.04,0.07,0
		C72.19,17.53,72.15,17.42,72.12,17.42z M72.23,14.96c0-0.07,0-0.11-0.04-0.11c0.04-0.04,0.07-0.04,0.19-0.07
		C72.27,14.88,72.34,14.92,72.23,14.96C72.23,15,72.12,15,72.23,14.96z M72.3,17.12c-0.11-0.04,0.04-0.15,0.04-0.19
		c0.04,0,0.07,0.04,0.07,0.11C72.34,17.12,72.3,17.16,72.3,17.12z M72.41,16.15c-0.11,0-0.07-0.15,0.04-0.15
		C72.41,16.04,72.41,16.08,72.41,16.15z M72.34,15.48c0-0.04,0.04-0.04,0.11-0.04C72.45,15.48,72.41,15.48,72.34,15.48z
		 M72.49,16.86c-0.04-0.26,0.08-0.34,0.19-0.45c0.11,0.04,0.04,0.11,0.07,0.22C72.49,16.49,72.68,16.82,72.49,16.86z M72.49,15.22
		c0.15-0.04,0.08-0.26,0.22-0.3C72.75,15.07,72.6,15.41,72.49,15.22z M72.79,13.95h0.07c0,0.04-0.04,0.07-0.11,0.07
		C72.75,13.99,72.79,13.99,72.79,13.95z M72.75,12.76c-0.04,0-0.04,0-0.04,0.04c-0.04,0-0.04-0.04-0.04-0.11
		C72.71,12.68,72.75,12.72,72.75,12.76z M72.64,13.99h0.07v0.07h-0.07V13.99z M72.75,14.17c-0.11,0.11-0.11,0.26-0.26,0.3
		C72.53,14.29,72.64,14.21,72.75,14.17z M72.34,13.21c0.11-0.11,0.07-0.19,0.19-0.3C72.64,13.02,72.49,13.21,72.34,13.21z
		 M72.38,13.32c0.02-0.04,0.01-0.04,0.11-0.04C72.6,13.39,72.34,13.47,72.38,13.32z M72.49,14.36c-0.04,0.04-0.07,0-0.07-0.11
		C72.45,14.25,72.49,14.29,72.49,14.36z M72.49,14.55c0,0.11-0.11,0.04-0.07,0.15C72.3,14.66,72.38,14.51,72.49,14.55z M72.15,14.44
		c0.04-0.11,0.11-0.15,0.19-0.15C72.3,14.4,72.3,14.47,72.15,14.44z M72.19,14.06h0.07v0.07h-0.07V14.06z M72.15,14.17
		c0.11,0.04,0,0.08,0,0.11C72.04,14.25,72.15,14.21,72.15,14.17z M72.08,14.55c0.11,0.04,0.04,0.19-0.07,0.15
		C71.97,14.59,72.12,14.66,72.08,14.55z M71.97,14.77c0.04,0,0.04,0,0.04-0.04h0.07v0.07c-0.04,0-0.04,0-0.04,0.04h-0.07V14.77z
		 M72,15.29c0.11,0.04,0,0.22-0.11,0.19c0-0.04,0-0.07-0.04-0.07C71.86,15.29,72,15.41,72,15.29z M71.89,16.19
		c0.04,0,0.08,0.07,0.11,0.07c-0.04,0.07-0.11,0.11-0.15,0.11C71.86,16.26,71.93,16.3,71.89,16.19z M71.71,15.85
		c0-0.07,0-0.11,0.04-0.15c0.11,0,0,0.11,0,0.15H71.71C71.71,15.89,71.59,15.89,71.71,15.85z M71.56,18.31
		c0.11,0.04,0.04,0.19-0.07,0.15C71.45,18.35,71.56,18.43,71.56,18.31z M71.41,16.19c0.15,0,0,0.07,0.04,0.19
		C71.33,16.34,71.41,16.3,71.41,16.19z M71.45,19.1c0,0.04-0.04,0.07-0.11,0.07C71.33,19.13,71.37,19.1,71.45,19.1z M71.22,15.63
		h0.11c-0.04,0.04,0,0.15-0.11,0.11V15.63z M71.03,19.39c0-0.04,0.04-0.04,0.08-0.04C71.11,19.39,71.07,19.39,71.03,19.39z
		 M71.07,16.97c0,0.04-0.04,0.04-0.07,0.04C71,16.97,71.03,16.97,71.07,16.97z M70.85,19.66h0.07c0-0.11,0.04-0.04,0.04-0.15
		c0.11,0,0.07,0.19-0.04,0.15c0,0.04-0.04,0.07-0.07,0.07V19.66z M70.55,20.25c0-0.04,0.07-0.04,0.07,0c0.04,0,0.04,0,0.04,0.04
		c0.04,0,0.04,0.11,0,0c-0.04,0-0.04,0-0.04-0.04H70.55C70.55,20.29,70.44,20.29,70.55,20.25z M70.92,13.84
		c0,0.04-0.04,0.04-0.07,0.04C70.85,13.84,70.89,13.84,70.92,13.84z M70.14,21.22c-0.04-0.11,0.07-0.04,0.07-0.15
		C70.33,21.07,70.25,21.26,70.14,21.22z M70.14,18.61C70.29,18.57,70.14,18.72,70.14,18.61C69.99,18.65,70.14,18.5,70.14,18.61z
		 M70.21,17.12c0.04,0,0.07,0.04,0.07,0.11C70.25,17.23,70.21,17.19,70.21,17.12z M70.44,16.93c-0.07,0-0.11-0.04-0.11-0.15
		C70.4,16.78,70.44,16.82,70.44,16.93z M70.4,17.01c0,0.04-0.04,0.04-0.15,0.04C70.25,16.93,70.36,16.97,70.4,17.01z M70.14,15.48
		c0.04,0,0.04,0,0.04-0.04c0.11,0,0.07,0.22-0.04,0.11V15.48z M70.07,15.96c0.04,0,0.04-0.04,0.04-0.08
		c0.08,0.04,0.08,0.08,0.04,0.11h-0.07V15.96z M70.1,17.46c0.11,0.04,0,0.07,0,0.11C69.99,17.53,70.1,17.49,70.1,17.46z
		 M70.21,21.26c-0.04,0.11-0.04,0.19-0.19,0.19C70.07,21.33,70.14,21.26,70.21,21.26z M69.84,19.17c0-0.04,0.04-0.04,0.08-0.04
		C69.92,19.17,69.88,19.17,69.84,19.17z M69.77,16.82c0-0.04,0.04-0.04,0.11-0.04c-0.04,0.15-0.04,0.34-0.19,0.37
		C69.69,17.05,69.88,16.93,69.77,16.82z M66.71,18.16c0,0.04-0.04,0.04-0.07,0.04C66.64,18.16,66.67,18.16,66.71,18.16z
		 M59.78,16.41c-0.04-0.11-0.19,0-0.15-0.11C59.74,16.3,59.81,16.34,59.78,16.41z M59.59,16.82c0,0.04-0.04,0.04-0.07,0.04
		C59.52,16.82,59.55,16.82,59.59,16.82z M59.44,17.46c0.11,0.07,0.15,0.15,0.04,0.19C59.37,17.6,59.44,17.57,59.44,17.46z
		 M58.51,22.01c-0.15-0.26-0.08-0.41-0.11-0.82C58.51,21.45,58.62,21.74,58.51,22.01z M58.4,20.66c0.15,0.04,0,0.15,0.04,0.3
		C58.32,20.92,58.43,20.77,58.4,20.66z M54.7,24.32c0-0.26,0.22-0.26,0.34-0.37C55.08,24.06,54.82,24.21,54.7,24.32z M55.04,23.91
		c-0.04-0.11,0.04-0.11-0.07-0.22c0.11,0,0.15,0,0.15-0.04C55.23,23.76,55.04,23.8,55.04,23.91z M56.16,22.27
		C56.05,22.27,56.2,22.12,56.16,22.27C56.2,22.27,56.2,22.38,56.16,22.27z M57.95,13.8c0.11,0,0.04-0.04,0.15-0.04
		c-0.04,0.11,0.04,0.15-0.07,0.19c0,0.04,0,0.07-0.04,0.11c-0.07-0.04-0.07-0.07-0.04-0.11h0.07C58.02,13.84,57.91,13.91,57.95,13.8
		z M57.84,14.59c-0.11,0.04,0,0.19-0.11,0.15C57.73,14.62,57.76,14.59,57.84,14.59z M56.08,10.3h0.07v0.07h-0.07V10.3z M54.07,12.09
		c0-0.04,0-0.04,0.04-0.04C54.11,12.09,54.11,12.09,54.07,12.09c0,0.04,0,0.04-0.04,0.04C54.03,12.09,54.03,12.09,54.07,12.09z
		 M51.61,19.8h0.07v0.08h-0.07V19.8z M51.39,21.93c0.97-3.52,0.36-3.89,4.36-8.91c0.19,0.91-0.92,1.31,1.45,2.2
		c-0.04,0.26-0.04,0.56-0.3,0.67c0,0.11,0.08,0.15,0.04,0.26c-0.3,0.26-0.45,0.86-0.71,1.12c0.11,0.04,0.07,0.15,0.11,0.19
		c-0.22,0.19-0.34,0.37-0.37,0.56c-0.11,0.04-0.11,0.11-0.22,0.15c-0.04,0.34-0.34,0.37-0.34,0.78c-0.99,1.55-1.69,3.2-4.21,5.33
		c-0.11-0.45,0.22-0.06-0.04-1.83C51.35,22.3,51.24,22.08,51.39,21.93z M51.05,22.64c0.04,0,0.07,0.04,0.07,0.15
		C51.01,22.83,50.94,22.75,51.05,22.64z M51.01,23.05c0.11,0,0.07,0.04,0.11,0.04C51.13,23.2,50.9,23.16,51.01,23.05z"/>
	<path class="st0" d="M70.92,15.26c0.11,0,0.22-0.19,0.11-0.22C71,15.14,70.92,15.14,70.92,15.26z"/>
	<path class="st0" d="M38.71,31.22c0.07,0,0.15-0.04,0.19-0.11C38.78,31.1,38.75,31.14,38.71,31.22z"/>
	<path class="st0" d="M20.26,9.59V9.51C20.22,9.51,20.22,9.59,20.26,9.59z"/>
	<path class="st0" d="M13.43,11.45c-0.11,0-0.11-0.15-0.11,0C13.39,11.53,13.43,11.53,13.43,11.45z"/>
	<path class="st0" d="M19.73,11.71c0.19-0.26,0.49-0.67,0.45-0.93L19.73,11.71z"/>
	<path class="st0" d="M26.04,37.7c-0.26,0-0.34-0.15-0.45-0.3c0.04,0,0.04,0.04,0.07,0.04c-0.14-0.18-0.23-0.34-0.48-0.97
		c-0.26,0.15-0.34-0.15-0.49-0.26l0.15-0.3c-0.19-0.19-0.3-0.37-0.49-0.63c0.04-0.11,0.11-0.04,0.11-0.15
		c-0.5-0.57-0.01-0.06-1.12-1.23c0-0.41-0.63-0.6-0.52-1.08c-0.11,0-0.15-0.04-0.15-0.07c0.04,0,0.07-0.04,0.07-0.07
		c-0.04,0-0.07-0.04-0.11-0.04c0,0.04-0.11,0.04,0,0c-0.07-0.22-0.19-0.41-0.34-0.56c0,0.04-0.11,0.04,0,0
		c0-0.11-0.04-0.07-0.04-0.11c-0.11-0.04-0.15,0.07-0.26-0.04c0-0.04,0.07-0.07,0.07-0.11c-0.19-0.08-0.26-0.22-0.19-0.49
		c-0.11-0.11-0.15,0-0.26-0.15c0.04-0.11,0.11,0.07,0.15-0.04c-0.19-0.04-0.07-0.15-0.19-0.26c0,0.08,0,0.11-0.04,0.11
		c-0.04-0.11-0.26-0.11-0.15-0.3c-0.11,0-0.15-0.04-0.15-0.07c0.2-0.08-0.32-0.51-0.52-0.97c0.11-0.11-0.04-0.15-0.15-0.19
		c0-0.11,0.11,0,0.11-0.11c-0.04-0.04-0.15,0-0.15-0.11c0.07-0.07,0.11-0.11,0.11-0.07c-0.11-0.04-0.08-0.11-0.19-0.22
		c-0.34,0.13-0.05-0.57-0.56-1.01c0.04-0.04,0.07-0.07,0.07-0.11h-0.07c0,0.04-0.11,0.04,0,0c0.04-0.19-0.07-0.19-0.07-0.34
		c-0.15,0.11-0.19-0.11-0.22-0.22c0.07,0,0.11-0.04,0.11-0.07h-0.15c0.04-0.26-0.26-0.26-0.15-0.67c-0.31-0.32,0,0-0.56-1.16
		c0.04,0,0.04,0.04,0.07,0.04c-0.19-0.41-0.26-0.9-0.56-1.31c0.07-0.3,0.03-0.01-0.37-0.93c0.15-0.15,0-0.41-0.11-0.52
		c0,0.04-0.04,0.07-0.11,0.07c-0.11-0.45-0.3-0.67-0.41-1.16c0.04-0.04,0.06-0.05,0.08-0.04c-0.15-0.16-0.4-0.32-0.3-0.7
		c-0.15-0.26-0.34-0.63-0.3-0.9c0.11,0.04,0.07,0.34,0.19,0.22c-0.15-0.26-0.19-0.52-0.34-0.78c-0.04,0.11,0.07,0.19-0.04,0.19
		c-0.26-0.26-0.22-0.75-0.48-1.16c0,0.11-0.11,0.11-0.11,0h0.11c-0.15-0.3-0.15-0.48-0.26-0.82c-0.11-0.04-0.04,0.11-0.15,0.07
		c-0.18-0.34,0.14-0.27-0.48-1.23c0.19-0.26-0.08-0.37-0.19-0.52c-0.04,0-0.04-0.11,0-0.11v0.11h0.07
		c-0.04-0.26,0.04-0.26-0.07-0.45c0.11-0.11,0.22-0.19,0.22-0.37c-0.19,0.04-0.15,0.26-0.34,0.3c-0.04,0.07-0.05,0.12-0.15-0.07
		c0.11-0.15,0.37-0.15,0.34-0.45c0.45-0.26,0.6-0.75,0.89-1.16c0.04,0.04,0.07,0.04,0.11,0.04c0.49-0.65-0.1-0.03,2.16-2.54
		c0.04-0.19,0.22-0.41,0.37-0.41c0,0.11-0.11,0.11-0.07,0.26c0.41-0.3,0.63-0.71,1.08-1.01c-0.26,0.19-0.3,0.48-0.34,0.75
		c0.19-0.15,0.15-0.52,0.41-0.63c-0.11-0.41,0.41-0.52,0.52-0.93c0.04,0.11-0.04,0.15-0.04,0.26c-0.01-0.03,0.24,0.14,0,0.15
		c0.04,0.19,0.07,0.45-0.11,0.56v-0.07c-0.11,0.04-0.22,0.19-0.11,0.22c0.07-0.11,0.11-0.11,0.15,0c0.11-0.19,0.15-0.37,0.3-0.52
		c0,0.41-0.3,0.48-0.34,0.89c0.41-0.11,0.41-0.78,0.75-1.04c-0.11-0.26,0.19-0.41,0.3-0.37c-0.19,0.19-0.3,0.45-0.37,0.78
		c0.07,0,0.11,0,0.11,0.04c-0.04,0.04-0.15,0.07-0.11-0.04h-0.04c0.04,0.34-0.41,0.56-0.26,0.82c0.11-0.26,0.19-0.56,0.45-0.71
		c0,0.04-0.11,0.15,0,0.15c-0.6-1.04,2.62-0.54,0.93-5.3c0.04-0.11-0.04-0.11-0.07-0.22h-0.22c-0.04-0.04,0-0.15-0.11-0.11
		c-0.11-0.11-0.11,0.11-0.22,0c-0.99,0.81-1.39,1.02-3.8,4.25c-0.04,0-0.07-0.04-0.11-0.04c-0.71,0.86-1.27,1.68-1.98,2.39
		c0.04,0,0.04,0.07,0,0.07V11.3h-0.04c0.04,0.26-0.26,0.22-0.11,0.34c-0.6,0.3-0.78,1.12-1.27,1.31c0.04-0.34-0.19-0.45-0.22-0.71
		c-0.11,0-0.04,0.22-0.22,0.11c0.11-0.11-0.11-0.22,0.15-0.22c-0.11-0.11-0.04-0.26-0.15-0.3c-0.04,0.11,0.11,0.19,0,0.22
		l-0.19-0.11c0.04-0.19-0.04-0.3-0.04-0.49c-0.9-1.13-0.8-1.79-2.65-3.95c-0.56,0.05-0.26-0.15-1.53-0.04
		c-0.3,0.3-0.71,0.41-0.97,0.75c0,0.26,0.11,0.41,0.07,0.67l0.41,0.45c0.34,0,0.52,0.45,0.78,0.63c0.04,0.48,0.56,0.75,0.6,1.34
		c0.53,0.85-0.13-0.54,1.9,4.18c-0.36,0.34-1.67,1.96-3.13,3.95c-0.41,0.26-0.56,0.67-0.97,0.93c0,0.11-0.07,0.11-0.04,0.22
		c-1.6,1.68-2.8,3.69-4.4,5.37c0,0.19-0.11,0.26-0.15,0.41c0.15,0.15,0.15,0.3,0.41,0.26c0.3,0.6,1.27,0.71,2.01,0.75
		c1.59-1.94,4.21-5.54,7.31-9.28c0.26,0.26,0.19,0.67,0.45,0.93c0.04,0.34,0.34,0.89,0.45,1.38c0.69,1.28,0.31,0.99,1.49,3.62
		c-0.04,0.15,0.15,0.22,0.04,0.34c1.46,2.68,0.17,2.13,4.14,8.35c0,0.04-0.07,0.07-0.07,0.11c0.11,0.11,0.19,0.19,0.19,0.34
		c0.93,1.16,0.23,0.88,2.61,3.24v0.11c0.89,0.71,1.6,1.53,3.06,1.53c0.11,0.11,0.37,0,0.41,0.15c0.11-0.11,0.22-0.04,0.34-0.15
		C26.07,37.85,25.92,37.89,26.04,37.7z M21.15,9.1h0.07v0.07h-0.07V9.1z M20.55,9.55c0,0.11-0.04,0-0.07,0
		C20.48,9.51,20.55,9.51,20.55,9.55z M20.55,9.66c-0.04,0.11-0.11,0.08-0.15,0.19C20.29,9.81,20.41,9.63,20.55,9.66z M19.36,10.3
		c-0.04,0-0.04-0.04-0.04-0.11c0.04,0,0.07,0.04,0.07,0.07C19.36,10.26,19.36,10.26,19.36,10.3z M19.81,9.51
		c-0.11,0,0-0.11-0.11-0.11C19.73,9.29,19.85,9.4,19.81,9.51z M19.73,9.55c0.04,0.11-0.07,0.04-0.07,0.15
		c-0.04,0-0.04-0.07-0.07-0.07C19.62,9.59,19.7,9.55,19.73,9.55z M19.47,9.74c0.04,0,0.07,0.04,0.07,0.07
		c-0.26,0.3-0.45,0.71-0.71,0.89C18.95,10.3,19.32,10.15,19.47,9.74z M16.49,12.72c0,0.04-0.04,0.04-0.08,0.04
		C16.41,12.72,16.45,12.72,16.49,12.72z M16.23,12.46c0.04,0,0.04,0,0.04-0.04h0.04c0-0.04,0-0.04,0.04-0.04
		c0-0.04,0.04-0.08,0.07-0.08v0.08h-0.07c0,0.04,0,0.04-0.04,0.04c0,0.11-0.04,0.15-0.07,0.11V12.46z M15.71,12.42
		c0.11,0.04,0,0.07,0,0.11C15.59,12.5,15.71,12.46,15.71,12.42z M10.45,20.81c-0.11,0-0.04-0.15,0.08-0.11
		C10.52,20.74,10.45,20.77,10.45,20.81z M11.05,20.03c0.11,0,0.08,0.04,0.11,0.04C11.16,20.18,10.93,20.14,11.05,20.03z
		 M11.98,18.91v-0.07c0.04,0,0.04,0,0.04-0.04C12.13,18.8,12.09,19.02,11.98,18.91z M12.13,18.76c-0.11-0.11,0.04-0.19,0.15-0.19
		C12.24,18.69,12.16,18.65,12.13,18.76z M12.46,18.35c-0.04-0.19,0.15-0.15,0.15-0.3C12.76,18.16,12.57,18.31,12.46,18.35z
		 M13.84,12.57c-0.04,0-0.11-0.07-0.15-0.19C13.8,12.42,13.84,12.5,13.84,12.57z M13.77,12.76c0.11-0.11,0.19,0.19,0.19,0.3
		C13.77,13.09,13.88,12.8,13.77,12.76z M15.56,17.16c0-0.04,0.04-0.04,0.08-0.04C15.63,17.16,15.59,17.16,15.56,17.16z M16.15,18.65
		c0.11,0,0.08,0.04,0.11,0.04C16.27,18.8,16.04,18.76,16.15,18.65z M16.71,19.58c0.04,0,0.07,0.07,0.07,0.19
		C16.68,19.77,16.68,19.62,16.71,19.58z M17.05,21.07c0-0.04,0.04-0.04,0.07-0.04C17.12,21.07,17.09,21.07,17.05,21.07z M18.2,23.53
		c0.04,0.04,0.08,0.11,0.08,0.15C18.17,23.72,18.09,23.65,18.2,23.53z"/>
	<path class="st0" d="M35.35,23.76c0.11,0,0,0.11,0.11,0.11c0-0.04,0.04-0.04,0.04-0.15C35.39,23.72,35.39,23.65,35.35,23.76z"/>
	<path class="st0" d="M35.84,31.22c0.19,0.15,0.41,0.3,0.67,0.19c0.56,0.26,1.16-0.04,1.87-0.15c0-0.26,0.41-0.19,0.67-0.19
		c0.04-0.19,0.22-0.22,0.37-0.34c0,0.07,0,0.11,0.04,0.11c0.04-0.19,0.34-0.11,0.45-0.22v-0.08c-0.04,0-0.08,0-0.08-0.04
		c0.04,0,0.08,0,0.08,0.04h0.15c0-0.04,0.07-0.07,0.07-0.11c0.48-0.19,0.71-0.63,1.16-0.9c0-0.19,0.04-0.3,0.15-0.3
		c-0.04,0.04-0.04,0.07-0.04,0.11c0.3-0.04,0.3-0.37,0.6-0.41c-0.04-0.3,0.64-0.34,0.82-0.78c0.54-0.27,1.47-1.35,2.39-2.31
		c-0.04,0-0.07-0.04-0.07-0.15c0.26-0.04,0-0.3,0.26-0.41c0.04,0.11,0.15,0.11,0.04,0.22c0.41-0.15,0.45-0.63,0.71-0.75
		c-0.04-0.15,0.04-0.37,0.22-0.41c-0.04-0.04-0.04-0.07,0.04-0.15c-0.07,0-0.11,0-0.11-0.04c0.11-0.15,0.15-0.07,0.3-0.04
		c0.04-0.04,0.04-0.11,0-0.19c0.04,0.04,0.15,0.07,0.15-0.04c-0.08-0.07-0.11-0.11-0.11-0.07c0.11-0.11,0.11-0.41,0.37-0.26
		c0.03,0.03,0.2-0.67,0.45-0.48c0-0.04,0.04-0.07,0.07-0.07c0.15-0.15-0.04-0.56,0.22-0.45c-0.11-0.15,0.11-0.15-0.04-0.26
		c0.15,0.04,0.07-0.22,0.26-0.11c-0.04-0.11,0.07-0.11,0.04-0.22c0.11,0.04,0.11-0.07,0.22-0.04c-0.04-0.26,0.11-0.3,0.26-0.26
		c-0.19-0.41,0.41-0.56,0.3-0.86c-0.2,0.01-0.04-0.05-0.11-0.15c0,0.04-0.04,0.08-0.07,0.08c0-0.04,0.04-0.08,0.07-0.08
		c0.11-0.34,0.34-0.52,0.52-0.78c-0.11-0.04-0.04-0.04-0.04-0.15c-0.11,0-0.11,0.19-0.22,0.07c0.04-0.11,0.19-0.22,0.22-0.07
		c0.11-0.04,0.22-0.19,0.11-0.3c0,0.04-0.04,0.11-0.11,0.19c-0.11-0.11-0.19-0.19-0.15-0.37c0.11,0.04,0.04-0.11,0.15-0.11
		c0.11-0.26,0.19-0.3,0.3-0.45c0.04,0,0.07,0.04,0.07,0.07h0.07c0.11-0.11,0.11-0.19,0.22-0.3c0,0.04,0.04,0.07,0.07,0.07
		c0-0.11,0.07-0.07,0.04-0.19c-0.04,0-0.04-0.04-0.04-0.11c0.04,0,0.07,0,0.07,0.04c0.26-0.41,0.3-0.82,0.56-1.23
		c0-0.3-0.19-0.37-0.19-0.63c-0.48-0.19-0.56-0.97-1.19-0.97l-0.19-0.22c-0.26-0.04-0.22,0.07-0.48-0.04
		c-0.11,0.19-0.41,0.37-0.22,0.63c-0.3,0.04-0.41,0.22-0.71,0.22c0,0.04-0.19,0.15-0.15,0c-0.47-0.02-0.97,0.79-6.15,1.38
		c-0.15-0.19-0.45-0.3-0.41-0.56c-0.15,0-0.15-0.15-0.3-0.15c-0.97,0.78-0.67,2.24-0.11,3.06c2.31,0.41,4.4-0.34,6.38-0.93
		c-0.63,1.01-1.34,1.86-2.09,2.76c0.04,0.26-0.11,0.19-0.07,0.45c-1.01,1.31-2.39,2.35-3.39,3.8c0.04,0,0,0.19-0.04,0.22
		c-0.19-0.11-0.15,0.07-0.3-0.04c-0.04,0.19-0.45,0.3-0.3,0.41c-0.11,0.11-0.26,0.15-0.22,0.26c-0.53,0.09,0.09,0.11-2.57,1.49
		c-0.11,0.11-0.22,0.37-0.37,0.22c0,0.15-0.22,0.19-0.26,0.07c-0.11,0.11-0.15,0.19-0.26,0.22c0.11-0.15-0.15,0-0.26-0.04
		c-0.04,0.15,0.11-0.04,0.11,0.11c-0.15,0-0.19,0.07-0.3,0.07c0-0.03-0.05-0.24-0.15,0.04c-0.19-0.11-0.26,0.11-0.45,0
		c-0.3-0.87-0.32-0.33-0.48-2.28c-0.16-0.67-0.14-0.23,0-1.68c-0.11-0.04-0.15,0.15-0.19-0.11c0.11,0,0.15,0,0.19-0.04
		c0-0.11-0.15-0.15-0.04-0.26c-0.11-0.15,0.11-0.26,0.11-0.45c-0.3-0.11-0.19-0.45,0.07-0.56c0.11-0.45-0.07-0.71,0.19-1.04
		c-0.11-0.11,0-0.34-0.04-0.37c0,0.11-0.11,0-0.11-0.04c0.19-0.26,0.07-0.63,0.37-0.9c-0.11-0.11,0-0.22-0.11-0.34
		c0.15-0.3,0.52-0.71,0.37-1.12c0.11-0.45-0.04-0.97,0.45-1.08c-0.04-0.26,0.04-0.26-0.07-0.41c0.11-0.04,0.04,0.07,0.15,0.07
		c-0.04-0.15-0.07-0.15-0.07-0.3c0.11,0,0.11-0.11,0.22-0.15c-0.11-0.41,0.19-0.93,0.37-1.12c-0.11-0.04,0.04-0.41,0.19-0.52
		c-0.15-0.26,0.15-0.45,0.26-0.71c-0.11-0.41,0.45-0.86,0.34-1.19c0.41-0.34,0.34-0.97,0.75-1.27c0.15-0.56,0.56-0.86,0.71-1.45
		c-0.04-0.11-0.11,0.07-0.15-0.04c0.41-0.15,0.37-0.71,0.71-0.89c-0.04-0.15,0.19-0.3,0.19-0.56c0.41-0.15,0.63-0.48,0.48-0.89
		c0.11-0.3,0.37-0.63,0.63-0.67c0.07-0.62,1.26-2.11,3.13-3.8c0-0.11,0.07-0.07,0.07-0.19c0.82-0.41,1.16-1.23,2.24-1.42
		c0.11,0.19-0.04,0.41,0.11,0.67c-0.45,1.25,0.26,2.55-2.13,6.12c-0.1,0.75-0.44,0.35,0.52,1.45c0.26,0.11,0.45,0.15,0.56,0.34
		c0.67-0.1,1.35,0.65,1.83-1.08c-0.08-0.48,0.27-0.91,0.78-2.65c0.8-1.67,1.74-8.19-3.39-6.41v0.19c-1.14,0.57-1.77,1.15-3.84,3.21
		c-0.26,0.45-0.52,0.89-0.93,1.08c0,0.15-0.15,0.15-0.04,0.26c-0.19-0.04-0.11,0.15-0.22,0.19c0.04,0,0.04,0.11,0,0
		c-0.3,0.63-0.86,0.97-1.12,1.68c-0.41,0.11-0.52,0.67-0.63,1.08h0.04c0-0.04,0.04-0.07,0.04,0.04c-0.04,0-0.08,0.07-0.08-0.04
		c-0.11,0,0,0.22-0.11,0.19c0,0.04-0.04,0.07-0.11,0.07c0.02,0.02,0.03,0.32-0.11,0.19c-0.15,0.11-0.19,0.22-0.34,0.34
		c-0.85,1.84-0.55,0.92-2.35,4.85c0.11,0.04,0.19,0.04,0.15,0.19c-0.11-0.04-0.07-0.11-0.19-0.11c-0.63,1.49-1.23,3.1-1.53,4.59
		c0.11-0.11,0.04-0.3,0.19-0.34c0.11,0.11-0.15,0.75-0.26,0.52v0.11c0.19,0.26,0.15,0.78-0.26,0.82c-0.11,0.49-0.3,0.86-0.26,1.31
		c0.04,0,0.04,0.07,0,0.07v-0.07c-0.3,0.41,0.26,0.71-0.11,0.97c0,0.19-0.04,0.34-0.08,0.37c0-0.19,0.04-0.34,0.08-0.37
		c0-0.15,0-0.26,0.04-0.34C32.73,23.76,31.66,29.75,35.84,31.22z M48.63,20.36c0.04,0,0.04,0,0.04-0.04h0.07v0.07
		c-0.04,0-0.04,0-0.04,0.04h-0.07V20.36z M48.48,21.11C48.48,21,48.63,21.15,48.48,21.11C48.48,21.15,48.37,21.15,48.48,21.11z
		 M48.22,21.18h0.07v0.07h-0.07V21.18z M47.55,22.68c0,0.19-0.07,0.26-0.22,0.22C47.32,22.75,47.4,22.68,47.55,22.68z M46.54,23.94
		c-0.04,0.04-0.11,0.07-0.15,0.07C46.39,23.87,46.43,23.94,46.54,23.94z M45.83,25.03c0,0.04-0.04,0.04-0.07,0.04
		C45.76,25.03,45.79,25.03,45.83,25.03z M45.61,25.14c-0.04,0.04-0.04,0.07-0.04,0.11c-0.11,0-0.19-0.04-0.15-0.15
		C45.53,25.1,45.57,25.1,45.61,25.14z M45.12,25.51h0.07v0.07h-0.07V25.51z M44.3,26.37c0.04,0,0.04,0,0.04-0.04
		c0.07,0.04,0.07,0.07,0.04,0.11H44.3V26.37z M43.82,27.11c0.11,0,0,0.11,0,0.15C43.71,27.23,43.86,27.23,43.82,27.11z M42.51,3.81
		c0.11,0.04,0,0.07,0,0.11C42.4,3.88,42.51,3.85,42.51,3.81z M38.97,12.24c0.07,0.07,0.11,0.11,0.11,0.15
		c-0.11,0-0.07,0.07-0.19,0.07C38.86,12.35,38.93,12.35,38.97,12.24z M38.41,13.39c0,0.11-0.07,0.07-0.07,0.19
		C38.22,13.54,38.3,13.35,38.41,13.39z M38.19,13.91c-0.04,0.04,0.04,0.15-0.07,0.15c0.04,0.15-0.11,0,0,0
		C38.08,13.95,38.08,13.91,38.19,13.91z M35.65,22.42c-0.04,0-0.07-0.07-0.11-0.07C35.54,22.23,35.69,22.3,35.65,22.42z M35.5,14.96
		c0-0.07,0-0.11,0.04-0.15c0.11,0,0,0.11,0,0.15H35.5C35.5,15,35.39,15,35.5,14.96z M35.43,15.18c0,0.19-0.22,0.11-0.19-0.04
		C35.35,15.14,35.32,15.22,35.43,15.18z M33.64,20.7C33.6,20.55,33.75,20.7,33.64,20.7C33.68,20.85,33.53,20.7,33.64,20.7z
		 M33.34,21.11C33.34,21.15,33.23,21.15,33.34,21.11C33.3,20.96,33.45,21.11,33.34,21.11z"/>
	<path class="st0" d="M37.93,31.51c0-0.11,0.15,0,0.19-0.11C38,31.36,37.81,31.4,37.93,31.51z"/>
	<path class="st0" d="M19.32,10.97c-0.04-0.11,0.11-0.07,0.07-0.19C19.29,10.78,19.21,10.93,19.32,10.97z"/>
	<path class="st0" d="M24.1,34.38c-0.11-0.04-0.07-0.11-0.19-0.15C23.91,34.35,23.98,34.5,24.1,34.38z"/>
	<path class="st0" d="M17.46,21.51c0.03,0.03,0.05,0.05,0.07,0.08C17.51,21.57,17.5,21.52,17.46,21.51z"/>
	<path class="st0" d="M17.79,22.42c0,0.11,0.04,0.19,0.11,0.22C17.87,22.53,17.91,22.42,17.79,22.42z"/>
	<path class="st0" d="M14.92,15.29c0,0.04,0.04,0.07,0.07,0.07v-0.07H14.92z"/>
	<path class="st0" d="M17.31,20.96c-0.04-0.15-0.04-0.34-0.19-0.37c0,0.11,0.07,0.11,0.04,0.22C17.27,20.81,17.16,21,17.31,20.96z"
		/>
	<path class="st0" d="M20.26,9.59c0,0.04,0,0.04,0.04,0.04C20.29,9.59,20.29,9.59,20.26,9.59z"/>
	<path class="st0" d="M17.31,21.04c0,0.11,0.04,0.15,0.07,0.11C17.38,21.07,17.35,21.04,17.31,21.04z"/>
	<path class="st0" d="M19.7,11.42c0-0.11,0.11-0.04,0.07-0.15C19.66,11.23,19.58,11.42,19.7,11.42z"/>
	<path class="st0" d="M23.31,33.53c0-0.07-0.04-0.11-0.07-0.11C23.24,33.49,23.28,33.53,23.31,33.53z"/>
	<path class="st0" d="M17.46,21.37c0.04-0.11-0.07-0.22-0.11-0.11C17.46,21.26,17.31,21.48,17.46,21.37z"/>
	<path class="st0" d="M49.93,18.35c0.04,0,0.04-0.04,0.04-0.08C49.93,18.28,49.93,18.31,49.93,18.35z"/>
	<path class="st0" d="M23.24,33.42c0-0.11-0.11-0.22-0.15-0.11C23.2,33.3,23.13,33.42,23.24,33.42z"/>
	<path class="st0" d="M17.72,22.04c-0.04-0.11,0-0.22-0.11-0.22C17.61,21.97,17.65,22.04,17.72,22.04z"/>
	<path class="st0" d="M17.83,22.3c0-0.07-0.04-0.11-0.07-0.11C17.76,22.27,17.79,22.3,17.83,22.3z"/>
	<path class="st0" d="M20.07,10.56c0.04,0,0.04-0.04,0.04-0.07C20.07,10.48,20.07,10.52,20.07,10.56z"/>
	<path class="st0" d="M19.96,10.71v-0.11h-0.04C19.96,10.71,19.81,10.71,19.96,10.71z"/>
	<path class="st0" d="M20.07,10.07c-0.08,0-0.15,0.07-0.19,0.19C20.03,10.3,20.03,10.18,20.07,10.07z"/>
	<path class="st0" d="M20.18,9.7c0,0.11-0.07,0.07-0.04,0.19C20.18,9.89,20.29,9.74,20.18,9.7z"/>
	<path class="st0" d="M18.35,11.34c-0.34,0.56-0.78,0.89-1.12,1.38c0.48-0.26,0.71-0.82,1.12-1.16
		C18.32,11.45,18.47,11.38,18.35,11.34z"/>
	<path class="st0" d="M81.89,16.08c-0.11,0-0.04,0.15-0.15,0.19C81.85,16.26,81.85,16.19,81.89,16.08z"/>
	<path class="st0" d="M81.55,16v0.04C81.36,16.23,81.74,15.96,81.55,16z"/>
	<path class="st0" d="M81.77,15.89c-0.11-0.04,0,0.11-0.11,0.15C81.74,16.04,81.77,16,81.77,15.89z"/>
	<path class="st0" d="M81.96,15.63c-0.11,0-0.07,0.04-0.11,0.04v0.04C81.92,15.7,81.96,15.67,81.96,15.63z"/>
	<path class="st0" d="M81.81,15.67h0.04C81.85,15.63,81.81,15.63,81.81,15.67z"/>
</g>
</svg>
