<?xml version="1.0" encoding="utf-8"?>
<!-- Generator: Adobe Illustrator 24.0.1, SVG Export Plug-In . SVG Version: 6.00 Build 0)  -->
<svg version="1.1" id="Layer_1" xmlns="http://www.w3.org/2000/svg" xmlns:xlink="http://www.w3.org/1999/xlink" x="0px" y="0px"
	 viewBox="0 0 3513.55 794.89" style="enable-background:new 0 0 3513.55 794.89;" xml:space="preserve">
<style type="text/css">
	.st0{fill:#FF7B4A;}
	.st1{fill:#FFFFFF;}
	.st2{fill:url(#SVGID_1_);}
</style>
<g id="PlayStore">
	<path d="M3485.2,481.77c-2.33,0.09-4.65,0.25-6.98,0.25c-42.48,0.02-84.96,0.01-127.44,0.02c-6.53,0-6.57,0.25-5.71,6.89
		c1.55,12.05,5.04,23.39,11.81,33.59c11.63,17.5,28.45,26.26,48.98,27.8c19.79,1.48,39.25-0.86,57.98-7.77
		c3.44-1.27,4.88-0.33,5.54,3.06c1.03,5.39,2,10.81,3.48,16.08c1.09,3.86-0.45,5.44-3.78,6.66c-9.58,3.52-19.47,5.78-29.56,7.08
		c-17.59,2.27-35.23,2.92-52.66-0.98c-37.19-8.33-60.88-31.25-70.22-67.92c-8.84-34.72-5.95-68.63,13.52-99.48
		c17.26-27.36,43.2-39.31,75.36-38.63c15.14,0.32,29.42,3.41,42.39,11.38c19.8,12.16,29.43,31.06,34.45,52.86
		c1.15,5.01,1.91,10.11,2.85,15.17C3485.2,459.14,3485.2,470.46,3485.2,481.77z M3399.81,455.57c16.49,0,32.99,0,49.48,0
		c6.36,0,6.29-0.01,5.94-6.16c-0.23-4.16-0.46-8.3-1.4-12.37c-4.43-19.3-14.31-34.47-34.28-39.82
		c-20.57-5.51-40.08-3.07-56.04,12.86c-11.09,11.07-15.94,25-18.44,40.12c-0.76,4.56,0.63,5.48,4.75,5.44
		C3366.48,455.48,3383.15,455.57,3399.81,455.57z M2818.92,571.69c42.14-13.13,58.96-47.02,51.68-85.64
		c-4.07-21.59-18.13-35.69-36-46.81c-16.8-10.45-35.49-16.73-53.49-24.55c-11.64-5.06-22.86-10.79-32.03-19.92
		c-14.85-14.77-16.17-48.72,10.69-61.31c7.65-3.59,15.69-5.62,24.04-6.15c21.72-1.38,42.87,1.59,63.27,9.22
		c4.18,1.56,5.61,0.38,6.57-3.52c1.51-6.13,3.18-12.24,5.22-18.22c1.36-3.99,0.07-5.67-3.67-6.94c-13.47-4.6-27.33-7.3-41.44-8.67
		c-20.9-2.03-41.49-1.13-61.53,6.21c-34.94,12.81-52.95,43.17-46.02,78.56c3.97,20.25,16.59,34.36,33.16,45.55
		c15.73,10.63,33.54,16.9,50.69,24.59c13.55,6.08,26.91,12.57,37.36,23.56c15.5,16.29,14.48,42.77-2.34,57.72
		c-10.48,9.32-23.44,12.34-36.97,12.98c-25.61,1.2-49.96-4.37-73.21-14.82c-4.49-2.02-6.12-1.08-7.2,3.43
		c-1.39,5.81-2.99,11.62-5.1,17.21c-1.83,4.87-0.39,7.12,4.28,8.88c23.6,8.87,47.89,13.88,77.3,14.09
		C2793.31,577.62,2806.28,575.62,2818.92,571.69z M3098.18,368.58c32.89-0.09,59.81,11.51,77.58,40.37
		c8.26,13.42,12.41,28.29,14.29,43.79c2.87,23.62,1.28,46.86-7.47,69.21c-13.51,34.51-43.27,54.6-80.45,55.11
		c-15.03,0.21-29.58-1.5-43.44-7.52c-20.75-9.02-35.47-24.23-43.62-45.12c-13.83-35.48-14.31-71.41,1.17-106.36
		c14.34-32.38,40.99-47.74,75.94-49.46C3094.18,368.5,3096.18,368.58,3098.18,368.58z M3038.43,474.93
		c-0.33,3.33,0.62,9.6,1.29,15.87c0.41,3.79,1.11,7.57,2,11.27c6.97,29,25.19,51.12,62.33,48.42c22.14-1.61,37.48-13.03,45.85-33.15
		c9.89-23.77,10.33-48.56,5.16-73.45c-6.29-30.28-25.53-52.03-63.68-48.82c-18.65,1.57-32.69,10.42-41.83,26.75
		C3040.84,437.39,3038.85,454.48,3038.43,474.93z M2916.07,488.77c0.36,16.95-0.96,33.94,1.02,50.86
		c2.18,18.61,11.37,29.91,28.33,33.64c15.52,3.42,31.11,2.04,46.66-0.23c2.81-0.41,3.52-2.02,3.5-4.47
		c-0.03-5.49-0.08-10.98,0.02-16.47c0.06-3.49-1.27-4.66-4.86-4.2c-8.78,1.13-17.62,1.1-26.44,0.5c-7.83-0.54-11.8-3.86-13.64-10.9
		c-0.72-2.75-1.1-5.54-1.11-8.38c-0.05-41.6-0.08-83.21-0.23-124.81c-0.01-3.88,1.33-5.27,5.24-5.21
		c11.83,0.18,23.66-0.05,35.48,0.12c3.86,0.05,5.48-1.32,5.36-5.2c-0.16-5.15-0.24-10.33,0.03-15.47c0.25-4.67-1.73-6.02-6.2-5.92
		c-11.32,0.24-22.66-0.12-33.98,0.17c-4.71,0.12-6.04-1.59-5.96-6.06c0.22-12.64-0.03-25.3,0.13-37.94
		c0.06-4.35-1.16-6.39-5.96-6.15c-7.15,0.35-14.33,0.3-21.48,0.01c-4.56-0.18-6.11,1.4-6.03,6c0.25,13.14,0,26.29,0.14,39.44
		c0.04,3.46-1.2,4.73-4.65,4.66c-8.49-0.15-16.99,0.09-25.49-0.1c-3.98-0.09-5.88,1.15-5.71,5.38c0.21,5.32,0.18,10.65,0.01,15.97
		c-0.12,3.87,1.47,5.32,5.34,5.22c7.83-0.19,15.66-0.06,23.49-0.05c6.95,0.01,6.96,0.01,6.96,6.74c0.01,20.64,0,41.27,0,61.91
		C2916.05,474.79,2915.92,481.78,2916.07,488.77z M3248.44,395.02c-0.04-4.49-0.05-8.99-0.06-13.48c-0.01-8.86-0.01-8.86-8.62-8.86
		c-5.5,0-11-0.01-16.49,0c-7.18,0.02-7.21,0.03-7.21,7.23c-0.01,55.09,0,110.17,0,165.26c0,7.49,0.14,14.98-0.05,22.47
		c-0.1,3.93,1.52,5.32,5.33,5.23c6.99-0.16,13.99-0.03,20.99-0.04c7.1-0.02,7.12-0.03,7.13-7.35c0.03-38.28,0.03-76.55,0.08-114.83
		c0.01-7.86,1.19-15.59,3.28-23.15c5.88-21.21,20.27-32.29,42.23-32.57c4.99-0.06,9.99,0.17,14.99,0.34
		c1.87,0.06,3.34-0.17,3.46-2.48c0.34-6.81,0.71-13.61,1.06-20.42c0.13-2.57-1.33-3.5-3.67-3.68c-25.44-1.97-48.03,2.48-61.83,28.01
		C3248.64,395.61,3248.44,395.32,3248.44,395.02z"/>
	<path d="M798.66,437.39c0-42.44,0-84.88,0-127.32c0-7.26,0.02-7.29,7.16-7.29c34.82,0,69.64,0.29,104.46-0.06
		c28.81-0.29,49.2,12.6,59.87,38.86c12.91,31.78,13.24,64.19-2.26,95.27c-11.52,23.1-30.72,35.72-57.43,35.26
		c-12.16-0.21-24.32-0.02-36.49-0.04c-6.66-0.01-6.92-0.28-6.97-7.12c-0.04-5.49-0.04-10.98,0-16.48c0.05-6.5,0.4-6.85,6.73-6.88
		c8.33-0.03,16.66-0.17,24.99,0.03c11.3,0.26,18.96-5.1,23.99-14.82c4.29-8.29,5.95-17.34,6.6-26.46
		c1.01-14.13,0.94-28.27-2.76-42.13c-1.52-5.68-3.81-11-7.41-15.7c-4.43-5.77-10.32-9.06-17.54-9.15
		c-16.32-0.2-32.65,0.02-48.98-0.13c-4.01-0.04-4.69,1.9-4.66,5.24c0.09,11.98,0.03,23.97,0.03,35.95
		c-0.01,63.24-0.01,126.48-0.02,189.73c0,8.67-0.01,8.67-8.47,8.68c-11,0.01-21.99,0.01-32.99,0c-7.83-0.01-7.85-0.02-7.85-7.63
		C798.66,522.6,798.66,479.99,798.66,437.39z M1375.27,492.25c-13.57-39.65-27.17-79.3-40.54-119.01c-1.57-4.68-3.79-6.65-8.87-6.52
		c-12.48,0.32-24.98,0.09-37.47,0.11c-7.17,0.01-7.3,0.19-5,6.96c20.77,60.91,41.36,121.89,62.54,182.66
		c3.39,9.73,3.37,17.96-0.59,27.53c-11.13,26.89-21.26,54.19-31.75,81.34c-2.46,6.36-2.29,6.54,4.64,6.55
		c9.83,0.01,19.66-0.29,29.47,0.12c5.05,0.21,7.3-1.71,9.09-6.25c12.7-32.36,25.65-64.62,38.55-96.9
		c25.87-64.71,51.76-129.42,77.64-194.13c3.05-7.64,2.89-7.87-5.57-7.88c-10.66-0.01-21.32,0.17-31.98-0.08
		c-4.51-0.11-6.9,1.43-8.53,5.73c-10.64,27.98-21.52,55.87-32.33,83.79c-5.34,13.78-10.69,27.56-16.25,41.9
		C1376.03,496.17,1375.89,494.07,1375.27,492.25z M1970.82,374.8c0-7.89-0.08-7.96-8.18-7.97c-23.98-0.01-47.97,0.02-71.95-0.02
		c-8.34-0.01-16.64,0.5-24.86,1.9c-23.43,3.97-41.66,15.4-52.23,37.3c-6.22,12.9-8.95,26.73-10.2,40.91
		c-1.83,20.76-0.58,41.56-0.97,62.35c-0.12,6.53,0.74,12.94,2.09,19.29c5.12,24.15,21.92,40.83,45.86,43.68
		c15.85,1.89,31.94,0.45,47.92,0.52c3.21,0.01,3.69-2.12,3.68-4.73c-0.04-6.82-0.15-13.65,0.04-20.46c0.11-3.86-1.29-5.35-5.22-5.26
		c-8.99,0.19-17.99,0.12-26.98,0.04c-8.88-0.08-13.61-3.56-16.13-12.02c-0.89-3-1.67-6.18-1.67-9.28c0-27.27-1.35-54.57,1.02-81.79
		c0.84-9.61,2.49-19.15,7.02-27.88c4.06-7.82,10.42-12.22,19.22-13.35c11.63-1.5,23.29-0.5,34.93-0.75
		c7.25-0.15,7.26-0.02,7.26,7.44c0,53.24-0.01,106.48-0.02,159.72c0,8.39,0.01,8.4,8.62,8.4c11.16,0,22.32,0.02,33.48-0.01
		c7.03-0.01,7.27-0.24,7.27-7.36c0.01-31.78,0.01-63.56,0.01-95.34C1970.82,438.35,1970.82,406.58,1970.82,374.8z M1257.09,373.59
		c0-6.35-0.39-6.74-6.85-6.75c-24.32-0.03-48.63,0.02-72.95-0.03c-8.34-0.02-16.64,0.49-24.86,1.86
		c-26.59,4.43-45.54,18.5-55.28,44.06c-4.55,11.92-6.56,24.36-7.53,37c-1.5,19.44-0.64,38.9-0.87,58.36
		c-0.08,6.68,0.7,13.28,2.04,19.81c5.09,24.78,21.9,41.8,46.33,44.32c15.66,1.61,31.6,0.47,47.42,0.55c3.2,0.02,3.75-2.02,3.73-4.66
		c-0.05-6.82-0.2-13.65,0.06-20.46c0.16-4.27-1.66-5.43-5.62-5.34c-8.49,0.2-16.99,0.09-25.48,0.06
		c-10.13-0.04-15.05-3.77-17.54-13.55c-0.77-3.04-1.43-6.22-1.41-9.34c0.12-26.27-1.19-52.57,1-78.8
		c0.76-9.11,2.23-18.18,5.94-26.67c3.69-8.44,9.61-14.38,19.09-15.79c13.25-1.96,26.6-0.6,39.9-0.96c2.58-0.07,3.6,1.25,3.58,3.67
		c-0.01,1.66,0.02,3.33,0.02,4.99c-0.01,53.07-0.03,106.15-0.04,159.22c0,7.46,0.22,7.68,7.45,7.69c11.66,0.02,23.32,0.02,34.98,0
		c6.76-0.01,6.91-0.17,6.91-7.07c0.01-31.94,0-63.89,0-95.83C1257.1,437.81,1257.11,405.7,1257.09,373.59z M2420.28,566.4
		c-0.02,4.62,1.39,6.6,6.28,6.51c12.32-0.23,24.66-0.24,36.98,0.01c4.86,0.1,6.31-1.72,6.26-6.42c-0.2-19.64-0.09-39.28-0.09-58.91
		c-0.01-34.78,0.04-69.57-0.1-104.35c-0.02-4.36,0.94-6.28,5.81-6.1c9.65,0.37,19.32,0,28.98,0.14c17.99,0.25,26.5,6.98,31.1,24.28
		c2.32,8.72,3.59,17.64,3.63,26.62c0.19,39.27,0.16,78.55,0.23,117.83c0.01,6.38,0.45,6.8,6.82,6.82c12,0.03,23.99,0.03,35.99,0
		c6.25-0.02,6.54-0.29,6.54-6.44c0-34.78,0.04-69.57-0.07-104.35c-0.04-12-1.32-23.92-4.04-35.62
		c-5.76-24.74-18.33-44.12-43.19-53.49c-11.84-4.46-24.25-5.94-36.78-6.03c-25.65-0.19-51.31-0.07-76.97-0.06
		c-7.01,0-7.31,0.31-7.31,7.34c-0.01,31.79-0.01,63.57-0.01,95.36C2420.35,501.82,2420.41,534.11,2420.28,566.4z M2385.71,422.84
		c-8.08-29.4-26.83-47.45-57.01-53.38c-17.38-3.42-34.71-3.39-52.03,0.17c-27.03,5.55-45.38,21.13-54.42,47.35
		c-3.65,10.6-5.46,21.56-6.25,32.71c-1.59,22.48-1.48,44.87,4.34,66.85c7.64,28.83,25.78,47,55.18,53.49
		c14.77,3.26,29.65,3.43,44.66,1.91c32.59-3.3,54.97-21.22,64.74-52.38c5.08-16.21,6.13-32.93,5.9-50.88
		C2391.22,453.89,2389.93,438.19,2385.71,422.84z M2337.33,515.87c-6.38,24.03-31.12,34.61-53.25,22.72
		c-10.27-5.52-13.85-15.46-16-25.87c-4.51-21.85-3.89-43.99-2.67-66.11c0.47-8.47,1.64-16.86,4.09-25.05
		c6.12-20.45,18.58-24.8,36.73-24.04c20.52,0.87,28.71,10.84,32.98,34.98c2.19,12.35,2.29,24.82,2.26,37.3
		C2341.54,485.29,2341.34,500.76,2337.33,515.87z M1594.41,571.99c23.85-2.83,41.5-14.59,50.15-37.21
		c10.43-27.28,10.16-55.12-0.12-82.44c-8.25-21.91-24.73-34.1-48.02-36.81c-10.24-1.19-20.53-1.96-30.8-2.88
		c-12.98-1.16-22.12-8.59-25.48-21.11c-3.26-12.16-2.97-24.41,0.3-36.49c2.91-10.78,9.63-18.13,20.9-20.54
		c3.9-0.83,7.86-1.28,11.89-1.26c18.99,0.08,37.98-0.09,56.97,0.12c4.63,0.05,6.18-1.51,5.96-6.05c-0.3-6.14-0.35-12.33,0.01-18.46
		c0.29-4.98-1.78-6.22-6.41-6.17c-19.66,0.18-39.31,0.09-58.97,0.07c-6.33-0.01-12.65,0.05-18.94,0.96
		c-27.36,3.96-47.21,17.73-56.28,44.43c-6.65,19.55-7.08,39.61-0.76,59.38c7.41,23.18,23.05,38.11,46.85,44.04
		c7.77,1.94,15.81,2.17,23.79,2.57c19.37,0.97,29.31,3.85,35.11,24.93c3.66,13.27,3.28,27.08-0.44,40.45
		c-3.06,11.02-10.01,18.7-21.5,21.46c-4.04,0.97-8.17,1.44-12.37,1.42c-19.66-0.07-39.32,0.13-58.97-0.14
		c-5.2-0.07-6.74,1.89-6.54,6.68c0.24,5.81,0.01,11.65,0.07,17.47c0.06,5.97,0.53,6.42,6.69,6.43c13.16,0.03,26.32,0.01,42.42,0.01
		C1562.79,572.28,1578.63,573.86,1594.41,571.99z M1684.53,509.72c0.01,9.38,1.27,18.59,4.69,27.37
		c7.64,19.67,21.22,32.43,42.71,35.14c12.24,1.54,24.61,0.41,36.92,0.52c2.81,0.03,3.75-1.8,3.76-4.25
		c0.03-7.32,0.01-14.64-0.01-21.95c-0.01-3.19-1.75-4.31-4.81-4.21c-4.33,0.13-8.66,0.03-12.99,0.02
		c-14.07-0.01-19.89-5.51-20.77-19.67c-0.09-1.49-0.11-2.99-0.11-4.49c-0.01-38.42,0.05-76.85-0.13-115.27
		c-0.02-4.79,1.73-5.86,6.13-5.78c12.98,0.23,25.98-0.1,38.96,0.18c4.91,0.11,6.44-1.67,6.19-6.36c-0.31-5.97-0.34-11.99,0.01-17.96
		c0.29-4.94-1.77-6.32-6.41-6.24c-12.82,0.21-25.65-0.15-38.46,0.18c-5.19,0.13-6.65-1.69-6.41-6.63c0.36-7.3-0.12-14.64,0.19-21.95
		c0.2-4.83-1.69-6.46-6.39-6.39c-11.99,0.19-23.98,0.04-35.97,0.07c-6.74,0.02-7.1,0.38-7.11,7.01
		c-0.02,28.94-0.01,57.89-0.01,86.83C1684.52,453.83,1684.49,481.78,1684.53,509.72z M2008.33,509.72
		c-0.02,6.53,0.68,12.95,2.14,19.29c5.63,24.53,22.58,40.82,46.74,43.38c11.53,1.22,23.29,0.33,34.95,0.38
		c2.74,0.01,3.81-1.43,3.79-4.09c-0.06-7.32-0.1-14.64,0.02-21.96c0.05-3.24-1.35-4.46-4.5-4.38c-4.49,0.12-8.99,0.02-13.49,0.01
		c-12.97-0.02-18.37-4.8-19.95-17.79c-0.26-2.14-0.27-4.32-0.27-6.48c-0.03-38.44,0.03-76.88-0.12-115.32
		c-0.02-4.46,1.51-5.7,5.81-5.62c13.32,0.23,26.65-0.04,39.98,0.15c4.18,0.06,5.62-1.5,5.48-5.55c-0.21-5.98-0.03-11.98-0.06-17.97
		c-0.03-6.59-0.34-6.91-7.17-6.93c-12.99-0.03-25.99-0.09-38.98,0.03c-3.62,0.03-5.1-1.24-5.02-4.94
		c0.17-7.65,0.07-15.31,0.04-22.96c-0.03-6.42-0.46-6.9-6.72-6.92c-11.83-0.04-23.66-0.04-35.48,0c-6.94,0.02-7.16,0.27-7.16,7.44
		c-0.01,28.96,0,57.91,0,86.87C2008.36,454.13,2008.4,481.93,2008.33,509.72z M1055.37,309.02c0.02-4.75-1.43-6.44-6.25-6.33
		c-12.15,0.26-24.31,0.21-36.46,0.02c-4.37-0.07-6.17,1.15-6.16,5.91c0.12,86.16,0.11,172.31,0.02,258.47
		c0,4.31,1.39,5.91,5.74,5.84c11.82-0.19,23.64-0.05,35.46-0.07c7.55-0.01,7.57-0.02,7.57-7.36c0.01-42.58,0-85.16,0-127.74
		C1055.28,394.85,1055.22,351.93,1055.37,309.02z M2185.67,373.46c0-6.09-0.51-6.6-6.52-6.62c-12.32-0.04-24.65,0.08-36.97-0.06
		c-4.21-0.05-5.9,1.44-5.9,5.82c0.09,64.88,0.1,129.77-0.01,194.65c-0.01,4.55,1.91,5.68,6.01,5.62
		c11.49-0.16,22.98-0.05,34.47-0.05c8.92,0,8.93-0.01,8.93-8.71c0-31.44,0-62.89,0-94.33
		C2185.68,437.68,2185.69,405.57,2185.67,373.46z M2180.86,344.29c3.4,0.07,4.84-1.33,4.82-4.7c-0.06-10.63-0.07-21.27,0-31.9
		c0.02-3.63-1.66-4.97-5.2-4.94c-13.14,0.1-26.28,0.09-39.42,0.01c-3.4-0.02-4.77,1.4-4.74,4.77c0.09,10.63,0.11,21.27-0.01,31.9
		c-0.04,3.73,1.6,4.95,5.14,4.86c6.48-0.15,12.97-0.04,19.46-0.04C2167.56,344.25,2174.21,344.16,2180.86,344.29z"/>
	<path d="M2658.82,563.31c2.41-7.02,4.82-14.05,7.25-21.07c0.49-1.41,1.03-2.81,1.55-4.21c0.98-2.61,3.14-2.65,5.38-2.43
		c2.49,0.24,2.71,2.07,2.72,4c0.01,9.65,0.02,19.3-0.01,28.96c0,1.84,0.04,3.9-2.58,4.03c-2.96,0.15-2.99-2.04-3-4.1
		c-0.03-6.82-0.01-13.64-0.66-20.65c-2.3,6.82-4.58,13.65-6.91,20.46c-0.75,2.18-1.25,4.63-4.46,4.47
		c-2.85-0.14-3.35-2.34-4.05-4.38c-2.24-6.54-4.45-13.09-7.41-19.48c0,6.44,0.02,12.89-0.01,19.33c-0.01,2,0.1,4.28-2.78,4.41
		c-3.18,0.13-3.28-2.34-3.29-4.5c-0.07-9.32-0.06-18.64,0-27.96c0.01-2.2,0.22-4.38,3.28-4.66c2.9-0.26,4.75,0.69,5.69,3.57
		c2.64,8.04,5.39,16.05,8.1,24.07C2658.04,563.21,2658.43,563.26,2658.82,563.31z M2622.81,535.56c-3.98,0-7.97-0.02-11.95,0.01
		c-1.71,0.01-2.91,0.76-2.89,2.65c0.02,1.92,1.28,2.53,2.96,2.6c0.83,0.04,1.68,0.17,2.49,0.06c5-0.7,6.27,1.75,6.08,6.33
		c-0.29,6.95-0.1,13.93-0.04,20.89c0.02,2.16-0.04,4.64,3.16,4.56c3.19-0.08,2.97-2.59,2.99-4.72c0.05-7.13,0.24-14.27-0.05-21.39
		c-0.17-4.33,1.28-6.25,5.68-5.67c0.81,0.11,1.66,0,2.49-0.02c1.79-0.05,3.45-0.44,3.46-2.65c0.01-2.2-1.6-2.68-3.41-2.69
		c-3.65-0.02-7.3-0.01-10.96-0.01C2622.81,535.53,2622.81,535.54,2622.81,535.56z"/>
</g>
<g id="Sign">
	<path class="st0" d="M414.22,198.24c-4.16,0-8.33-0.13-12.48,0.04c-3.49,0.14-4.89-1.25-5.5-4.76
		c-4.97-28.58-12.45-56.48-23.44-83.36c-7.89-19.31-17.24-37.84-30.86-53.87c-3.05-3.6-1.61-4.95,2.12-6.09
		c12.89-3.93,23.98-0.6,33.62,8.28c13.15,12.1,21.42,27.42,28.23,43.63c12.31,29.31,19.54,59.98,24.55,91.26
		c0.54,3.38-0.22,4.7-2.77,4.91l34.65-0.03c-7.71,0-7.65-0.02-8.78-7.81c-4.71-32.57-12.63-64.31-25.29-94.76
		c-8.37-20.13-18.85-38.92-35.11-53.99c-19.24-17.83-46.49-21.66-67.82-8.85c-4.53,2.72-7.93,3.03-12.73,0.86
		c-21.01-9.49-43.29-5.19-59.94,10.8c-14.41,13.83-22.4,31.28-28.25,49.84c-10.04,31.82-13.72,64.67-15.07,97.84
		c-0.19,4.75-1.63,6.29-6.39,6.27l222.77-0.18C421.89,198.11,418.05,198.24,414.22,198.24z M265.25,193.77
		c-0.12,3.53-1.66,4.65-4.94,4.53c-3.82-0.14-7.66-0.03-11.49-0.03c0,0.01,0,0.01,0,0.02c-3.83,0-7.67-0.13-11.49,0.04
		c-3.67,0.16-5.07-1.35-4.93-5.01c0.49-12.96,1.64-25.87,3.25-38.73c2.72-21.83,6.65-43.4,14.91-63.94
		c4.45-11.05,9.92-21.52,18.99-29.54c8.1-7.17,17.44-10.84,28.5-8.52c3.51,0.74,4.48,2.06,2.35,5.43
		c-18.59,29.37-25.91,62.42-31.13,96.11C267.24,167.25,265.69,180.46,265.25,193.77z M368.23,198.27
		c-12.49-0.08-24.97-0.03-37.46-0.03c-12.49,0-24.97-0.04-37.46,0.04c-3.22,0.02-5.16-0.85-4.86-4.5
		c3.23-39.57,8.07-78.77,26.31-114.9c1.27-2.52,2.88-4.86,4.36-7.27c1.63-2.65,3.32-2.76,5.46-0.37
		c5.6,6.23,10.17,13.19,14.16,20.48c17.48,31.85,27.35,66.27,34.13,101.73C373.67,197.57,371.68,198.3,368.23,198.27z"/>
	<rect x="85.68" y="246.58" class="st1" width="425.42" height="425.42"/>
	<linearGradient id="SVGID_1_" gradientUnits="userSpaceOnUse" x1="28.3424" y1="483.896" x2="629.3984" y2="483.896">
		<stop  offset="0" style="stop-color:#00B7F1"/>
		<stop  offset="1" style="stop-color:#009CDE"/>
	</linearGradient>
	<path class="st2" d="M629.27,682.11c-0.84-8.43-1.3-16.9-1.75-25.37c-1.72-32.21-3.37-64.42-5.06-96.62
		c-1.31-25.07-2.65-50.14-3.96-75.2c-1.69-32.21-3.36-64.41-5.04-96.62c-1.33-25.4-2.67-50.8-3.98-76.2
		c-1.72-33.37-3.47-66.74-5.04-100.12c-0.24-5.01-2.56-7.12-7.26-7.68c-6.28-0.74-12.51-1.9-18.8-2.6
		c-16.03-1.79-31.8-5.64-48.07-5.52c-22.66,0.18-45.32,0.05-67.98,0.05l-34.65,0.03c-0.44,0.04-0.94,0.04-1.49,0.02
		c-0.16-0.01-0.32-0.01-0.48-0.01l-222.77,0.18c-15.65-0.05-31.29,0.15-46.95,0.61c-30.46,0.88-60.96-0.34-91.42,1.13
		c-7.26,0.35-8.87,1.86-9.23,9.28c-0.65,13.28-1.41,26.56-2.18,39.83c-1.59,27.54-3.24,55.08-4.83,82.63
		c-0.76,13.11-1.44,26.22-2.18,39.34c-1.6,28.38-3.22,56.75-4.8,85.13c-0.78,13.94-1.43,27.89-2.21,41.83
		c-1.57,28.21-3.22,56.42-4.78,84.64c-0.8,14.44-1.46,28.89-2.26,43.33c-1.23,22.24-2.59,44.47-3.72,66.72
		c-0.34,6.77,1.71,8.89,8.42,9.91c18.76,2.85,37.52,5.7,56.29,8.55c38.02,5.77,76.04,11.53,114.06,17.31
		c49.7,7.56,99.4,15.14,149.1,22.73c33.57,5.12,67.14,10.23,100.7,15.43c13.8,2.14,27.57,4.5,41.36,6.77c3.33,0,6.66,0,10,0
		c1.02-0.85,1.96-1.81,3.06-2.52c36.3-23.29,72.53-46.7,109.02-69.69C627.24,695.07,630.05,689.94,629.27,682.11z M206.54,514.51
		c-16.28,6.37-32.79,12.15-49.18,18.24c-2.18,0.81-4.3,1.81-6.35,2.91c-2.25,1.21-4.39,2.79-4.06,5.72
		c0.31,2.68,2.59,3.73,4.83,4.53c8.57,3.08,17.42,2.71,26.18,1.52c12.99-1.77,24.8-7.57,37.1-11.7c4.59-1.54,5.5-0.36,5.36,3.96
		c-0.22,6.82-0.26,13.65,0.01,20.46c0.16,4.01-1.46,5.67-5.25,6.2c-13.88,1.95-27.82,3.12-41.82,2.2
		c-19.87-1.31-39.25-5.16-58.04-11.86c-6-2.14-11.81-4.58-16.82-8.59c-10.6-8.48-10.43-18.93,0.59-26.83
		c8.32-5.96,17.61-10.11,27.19-13.58c29.28-10.61,58.57-21.17,87.87-31.71c5.96-2.14,6.03-2.04,6.06,4.35c0.02,3.99,0,7.99,0,11.98
		c0,0.83,0.01,1.66,0,2.5C219.8,513.11,223.2,508,206.54,514.51z M232.55,445.17c-0.01,0-0.02,0-0.03,0c0-43.77,0-87.54,0-131.31
		c0-6.23,0.09-6.41,6.16-4.97c31.78,7.52,63.33,15.84,93.92,27.38c9.2,3.47,17.85,8.17,25.85,14c12.27,8.93,21.11,20.38,25,35.09
		c5.61,21.21,7.43,42.68,0.54,63.95c-10.41,32.17-38.75,33.6-61.94,23.11c-3.03-1.37-2.56-3.96-2.56-6.4
		c-0.02-29.46-0.04-58.92-0.01-88.37c0.01-5.07-0.65-9.96-3-14.51c-2.74-5.3-9.08-8.86-13.87-7.83c-4.46,0.97-7.69,5.49-8.27,11.89
		c-0.23,2.48-0.14,4.99-0.14,7.48c-0.01,72.23-0.02,144.46-0.03,216.69c0,1.66-0.13,3.34,0.02,4.99c0.4,4.38-1.04,5.58-5.44,4.08
		c-13.4-4.56-26.95-8.68-40.36-13.22c-5.15-1.74-11.89-1.67-14.91-6.07c-2.87-4.18-0.9-10.36-0.91-15.65
		C232.52,525.39,232.55,485.28,232.55,445.17z M405.11,600.54c0.26,3.97,0.14,7.97,0.03,11.96c-0.04,1.53,0.66,3.38-1.85,4.79
		c-1.57-5.64-0.13-11.29-1.89-16.93c-1.15,3.33-2.12,6.74-3.51,9.96c-1.1,2.55-0.53,6.95-4.38,6.91c-3.51-0.04-2.99-4.24-3.99-6.68
		c-1.49-3.62-2.59-7.39-3.86-11.1c-1.91,5.78-0.65,11.42-3.05,16.89c0-7.11-0.04-14.23,0.04-21.34c0.01-1.08,0.93-1.74,2.09-1.69
		c1.37,0.06,2.05,1.01,2.44,2.16c1.46,4.24,2.87,8.5,4.32,12.75c0.58,1.71,1.23,3.39,3.01,5.37c1.62-4.68,3.11-9.42,4.92-14.03
		c0.89-2.27,0.59-6.5,3.96-5.92C406.68,594.22,404.95,598.12,405.11,600.54z M463.49,536.88c-7.06,5.97-15.04,10.45-23.72,13.61
		c-42.88,15.62-85.78,31.17-128.65,46.82c-3.59,1.31-4.81,0.46-4.75-3.33c0.14-8.65,0.19-17.31-0.03-25.96
		c-0.1-3.96,1.39-5.94,5.15-7.27c30.14-10.69,60.22-21.54,90.29-32.4c3.28-1.18,6.51-2.56,9.58-4.2c2.04-1.09,4.03-2.76,3.76-5.44
		c-0.27-2.69-2.57-3.77-4.79-4.57c-7.71-2.77-15.7-2.77-23.7-1.94c-6.15,0.64-12.08,2.3-17.91,4.4
		c-19.12,6.88-38.3,13.58-57.38,20.56c-3.81,1.39-5.17,0.79-4.99-3.35c0.2-4.49,0.05-8.99,0.05-13.48c0-4.49,0.13-8.99-0.04-13.48
		c-0.12-3.33,1.1-5.25,4.4-6.19c25.27-7.26,50.78-11.89,77.31-9.88c19.93,1.51,39.21,5.35,57.93,12.27
		c6.77,2.5,13.28,5.39,18.5,10.57C472.17,521.22,471.87,529.78,463.49,536.88z"/>
</g>
</svg>
