<?xml version="1.0" encoding="utf-8"?>
<!-- Generator: Adobe Illustrator 24.0.1, SVG Export Plug-In . SVG Version: 6.00 Build 0)  -->
<svg version="1.1" id="Layer_1" xmlns="http://www.w3.org/2000/svg" xmlns:xlink="http://www.w3.org/1999/xlink" x="0px" y="0px"
	 viewBox="0 0 3513.6 794.9" style="enable-background:new 0 0 3513.6 794.9;" xml:space="preserve">
<style type="text/css">
	.st0{fill:#FF7B4A;}
	.st1{fill:#FFFFFF;}
	.st2{fill:url(#SVGID_1_);}
</style>
<g id="PlayStore">
	<path d="M3485.2,481.8c-2.3,0.1-4.6,0.2-7,0.2c-42.5,0-85,0-127.4,0c-6.5,0-6.6,0.2-5.7,6.9c1.6,12,5,23.4,11.8,33.6
		c11.6,17.5,28.4,26.3,49,27.8c19.8,1.5,39.2-0.9,58-7.8c3.4-1.3,4.9-0.3,5.5,3.1c1,5.4,2,10.8,3.5,16.1c1.1,3.9-0.4,5.4-3.8,6.7
		c-9.6,3.5-19.5,5.8-29.6,7.1c-17.6,2.3-35.2,2.9-52.7-1c-37.2-8.3-60.9-31.2-70.2-67.9c-8.8-34.7-5.9-68.6,13.5-99.5
		c17.3-27.4,43.2-39.3,75.4-38.6c15.1,0.3,29.4,3.4,42.4,11.4c19.8,12.2,29.4,31.1,34.4,52.9c1.1,5,1.9,10.1,2.9,15.2
		C3485.2,459.1,3485.2,470.5,3485.2,481.8z M3449.3,455.9c6.4,0,6.3,0,5.9-6.2c-0.2-4.2-0.5-8.3-1.4-12.4
		c-4.4-19.3-14.3-34.5-34.3-39.8c-20.6-5.5-40.1-3.1-56,12.9c-11.1,11.1-15.9,25-18.4,40.1c-0.8,4.6,0.6,5.5,4.8,5.4
		C3366.5,455.8,3432.8,455.9,3449.3,455.9z M2818.9,571.7c42.1-13.1,59-47,51.7-85.6c-4.1-21.6-18.1-35.7-36-46.8
		c-16.8-10.5-35.5-16.7-53.5-24.5c-11.6-5.1-22.9-10.8-32-19.9c-14.9-14.8-16.2-48.7,10.7-61.3c7.6-3.6,15.7-5.6,24-6.1
		c21.7-1.4,42.9,1.6,63.3,9.2c4.2,1.6,5.6,0.4,6.6-3.5c1.5-6.1,3.2-12.2,5.2-18.2c1.4-4,0.1-5.7-3.7-6.9
		c-13.5-4.6-27.3-7.3-41.4-8.7c-20.9-2-41.5-1.1-61.5,6.2c-34.9,12.8-52.9,43.2-46,78.6c4,20.2,16.6,34.4,33.2,45.5
		c15.7,10.6,33.5,16.9,50.7,24.6c13.6,6.1,26.9,12.6,37.4,23.6c15.5,16.3,14.5,42.8-2.3,57.7c-10.5,9.3-23.4,12.3-37,13
		c-25.6,1.2-50-4.4-73.2-14.8c-4.5-2-6.1-1.1-7.2,3.4c-1.4,5.8-3,11.6-5.1,17.2c-1.8,4.9-0.4,7.1,4.3,8.9
		c23.6,8.9,47.9,13.9,77.3,14.1C2793.3,577.6,2806.3,575.6,2818.9,571.7z M3098.2,368.6c32.9-0.1,59.8,11.5,77.6,40.4
		c8.3,13.4,12.4,28.3,14.3,43.8c2.9,23.6,1.3,46.9-7.5,69.2c-13.5,34.5-43.3,54.6-80.4,55.1c-15,0.2-29.6-1.5-43.4-7.5
		c-20.8-9-35.5-24.2-43.6-45.1c-13.8-35.5-14.3-71.4,1.2-106.4c14.3-32.4,41-47.7,75.9-49.5C3094.2,368.5,3096.2,368.6,3098.2,368.6
		z M3038.4,474.9c-0.3,3.3,0.6,9.6,1.3,15.9c0.4,3.8,1.1,7.6,2,11.3c7,29,25.2,51.1,62.3,48.4c22.1-1.6,37.5-13,45.9-33.2
		c9.9-23.8,10.3-48.6,5.2-73.5c-6.3-30.3-25.5-52-63.7-48.8c-18.6,1.6-32.7,10.4-41.8,26.8C3040.8,437.4,3038.9,454.5,3038.4,474.9z
		 M2916.1,488.8c0.4,17-1,33.9,1,50.9c2.2,18.6,11.4,29.9,28.3,33.6c15.5,3.4,31.1,2,46.7-0.2c2.8-0.4,3.5-2,3.5-4.5
		c0-5.5-0.1-11,0-16.5c0.1-3.5-1.3-4.7-4.9-4.2c-8.8,1.1-17.6,1.1-26.4,0.5c-7.8-0.5-11.8-3.9-13.6-10.9c-0.7-2.8-1.1-5.5-1.1-8.4
		c-0.1-41.6-0.1-83.2-0.2-124.8c0-3.9,1.3-5.3,5.2-5.2c11.8,0.2,23.7,0,35.5,0.1c3.9,0,5.5-1.3,5.4-5.2c-0.2-5.1-0.2-10.3,0-15.5
		c0.2-4.7-1.7-6-6.2-5.9c-11.3,0.2-22.7-0.1-34,0.2c-4.7,0.1-6-1.6-6-6.1c0.2-12.6,0.1-37.9,0.1-37.9c0.1-4.4-1.2-6.4-6-6.1H2922
		c-4.1,0.7-4.9,1.9-6,6l0.1,39.4c0,3.5-1.2,4.7-4.6,4.7c-8.5-0.1-17,0.1-25.5-0.1c-4-0.1-5.9,1.1-5.7,5.4c0.2,5.3,0.2,10.6,0,16
		c-0.1,3.9,1.5,5.3,5.3,5.2c7.8-0.2,15.7-0.1,23.5,0c6.9,0,7,0,7,6.7c0,20.6,0,41.3,0,61.9C2916.1,474.8,2915.9,481.8,2916.1,488.8z
		 M3248.4,395c0-4.5-0.1-9-0.1-13.5c0-8.9,0-8.9-8.6-8.9c-5.5,0-11,0-16.5,0c-7.2,0-7.2,0-7.2,7.2c0,55.1,0,110.2,0,165.3
		c0,7.5,0.1,15-0.1,22.5c-0.1,3.9,1.5,5.3,5.3,5.2c7-0.2,14,0,21,0c7.1,0,7.1,0,7.1-7.3c0-38.3,0-76.5,0.1-114.8
		c0-7.9,1.2-15.6,3.3-23.1c5.9-21.2,20.3-32.3,42.2-32.6c5-0.1,10,0.2,15,0.3c1.9,0.1,3.3-0.2,3.5-2.5c0.3-6.8-0.4-13.6,0-20.4
		c0.1-2.6-0.3-3.5-2.6-3.7c-25.4-2-48,2.5-61.8,28C3248.6,395.6,3248.4,395.3,3248.4,395z M2949.3,366.7l0.1-37.9
		c0.1-4.4-1.2-6.4-6-6.1"/>
	<path d="M799,310.1c0-7.3,0-7.3,7.2-7.3c34.8,0,69.6,0.3,104.5-0.1c28.8-0.3,49.2,12.6,59.9,38.9c12.9,31.8,13.2,64.2-2.3,95.3
		c-11.5,23.1-30.7,35.7-57.4,35.3c-12.2-0.2-24.3,0-36.5,0c-6.7,0-6.9-0.3-7-7.1c0-5.5,0-11,0-16.5c0-6.5,0.4-6.9,6.7-6.9
		c8.3,0,16.7-0.2,25,0c11.3,0.3,19-5.1,24-14.8c4.3-8.3,6-17.3,6.6-26.5c1-14.1,0.9-28.3-2.8-42.1c-1.5-5.7-3.8-11-7.4-15.7
		c-4.4-5.8-10.3-9.1-17.5-9.1c-16.3-0.2-32.7,0-49-0.1c-4,0-4.7,1.9-4.7,5.2c0.1,12,0,24,0,36c0,63.2,0,126.5,0,189.7
		c0,8.7,0,8.7-8.5,8.7c-11,0-22,0-33,0c-7.8,0-7.8,0-7.8-7.6L799,310.1z M1375.3,492.2c-13.6-39.6-27.2-79.3-40.5-119
		c-1.6-4.7-3.8-6.6-8.9-6.5c-12.5,0.3-25,0.1-37.5,0.1c-7.2,0-7.3,0.2-5,7c20.8,60.9,41.4,121.9,62.5,182.7c3.4,9.7,3.4,18-0.6,27.5
		c-11.1,26.9-21.3,54.2-31.8,81.3c-2.5,6.4-2.3,6.5,4.6,6.5c9.8,0,19.7-0.3,29.5,0.1c5.1,0.2,7.3-1.7,9.1-6.2l116.2-291
		c3.1-7.6,2.9-7.9-5.6-7.9c-10.7,0-21.3,0.2-32-0.1c-4.5-0.1-6.9,1.4-8.5,5.7c-10.6,28-43,111.4-48.6,125.7
		C1376,496.2,1375.9,494.1,1375.3,492.2z M1970.8,374.8c0-7.9-0.1-8-8.2-8c-24,0-48,0-71.9,0c-8.3,0-16.6,0.5-24.9,1.9
		c-23.4,4-41.7,15.4-52.2,37.3c-6.2,12.9-8.9,26.7-10.2,40.9c-1.8,20.8-0.6,41.6-1,62.4c-0.1,6.5,0.7,12.9,2.1,19.3
		c5.1,24.2,21.9,40.8,45.9,43.7c15.8,1.9,31.9,0.5,47.9,0.5c3.2,0,3.7-2.1,3.7-4.7c0-6.8-0.2-13.7,0-20.5c0.1-3.9-1.3-5.3-5.2-5.3
		c-9,0.2-18,0.1-27,0c-8.9-0.1-13.6-3.6-16.1-12c-0.9-3-1.7-6.2-1.7-9.3c0-27.3-1.3-54.6,1-81.8c0.8-9.6,2.5-19.1,7-27.9
		c4.1-7.8,10.4-12.2,19.2-13.4c11.6-1.5,23.3-0.5,34.9-0.8c7.2-0.1,7.3,0,7.3,7.4c0,53.2,0,106.5,0,159.7c0,8.4,0,8.4,8.6,8.4
		c11.2,0,22.3,0,33.5,0c7,0,7.3-0.2,7.3-7.4C1970.8,533.7,1970.8,406.6,1970.8,374.8z M1257.1,373.6c0-6.4-0.4-6.7-6.8-6.8
		c-24.3,0-48.6,0-72.9,0c-8.3,0-16.6,0.5-24.9,1.9c-26.6,4.4-45.5,18.5-55.3,44.1c-4.6,11.9-6.6,24.4-7.5,37
		c-1.5,19.4-0.6,38.9-0.9,58.4c-0.1,6.7,0.7,13.3,2,19.8c5.1,24.8,21.9,41.8,46.3,44.3c15.7,1.6,31.6,0.5,47.4,0.5
		c3.2,0,3.8-2,3.7-4.7c-0.1-6.8-0.2-13.7,0.1-20.5c0.2-4.3-1.7-5.4-5.6-5.3c-8.5,0.2-17,0.1-25.5,0.1c-10.1,0-15.1-3.8-17.5-13.5
		c-0.8-3-1.4-6.2-1.4-9.3c0.1-26.3-1.2-52.6,1-78.8c0.8-9.1,2.2-18.2,5.9-26.7c3.7-8.4,9.6-14.4,19.1-15.8c13.2-2,26.6-0.6,39.9-1
		c2.6-0.1,3.6,1.2,3.6,3.7c0,1.7,0,3.3,0,5c0,53.1,0,106.2,0,159.2c0,7.5,0.2,7.7,7.4,7.7c11.7,0,23.3,0,35,0c6.8,0,6.9-0.2,6.9-7.1
		C1257.1,533.8,1257.1,405.7,1257.1,373.6z M2420.3,566.4c0,4.6,1.4,6.6,6.3,6.5c12.3-0.2,24.7-0.2,37,0c4.9,0.1,6.3-1.7,6.3-6.4
		c-0.2-19.6-0.1-128.5-0.2-163.3c0-4.4,0.9-6.3,5.8-6.1c9.6,0.4,19.3,0,29,0.1c38.6,0.2,34.7,50.9,34.7,50.9
		c0.2,39.3,0.2,78.5,0.2,117.8c0,6.4,0.4,6.8,6.8,6.8c12,0,24,0,36,0c6.2,0,6.5-0.3,6.5-6.4c0-34.8,0-69.6-0.1-104.4
		c0-12-1.3-23.9-4-35.6c-5.8-24.7-18.3-44.1-43.2-53.5c-11.8-4.5-24.2-5.9-36.8-6c-25.6-0.2-51.3-0.1-77-0.1c-7,0-7.3,0.3-7.3,7.3
		C2420.3,406,2420.4,534.1,2420.3,566.4z M2385.7,422.8c-8.1-29.4-26.8-47.5-57-53.4c-17.4-3.4-34.7-3.4-52,0.2
		c-27,5.5-45.4,21.1-54.4,47.4c-3.6,10.6-5.5,21.6-6.2,32.7c-1.6,22.5-1.5,44.9,4.3,66.8c7.6,28.8,25.8,47,55.2,53.5
		c14.8,3.3,29.6,3.4,44.7,1.9c32.6-3.3,55-21.2,64.7-52.4c5.1-16.2,6.1-32.9,5.9-50.9C2391.2,453.9,2389.9,438.2,2385.7,422.8z
		 M2337.3,515.9c-6.4,24-31.1,34.6-53.2,22.7c-10.3-5.5-13.9-15.5-16-25.9c-4.5-21.9-3.9-44-2.7-66.1c0.5-8.5,1.6-16.9,4.1-25
		c6.1-20.5,18.6-24.8,36.7-24c20.5,0.9,28.7,10.8,33,35c2.2,12.4,2.3,24.8,2.3,37.3C2341.5,485.3,2341.3,500.8,2337.3,515.9z
		 M1594.4,572c23.8-2.8,41.5-14.6,50.2-37.2c10.4-27.3,10.2-55.1-0.1-82.4c-8.2-21.9-24.7-34.1-48-36.8c-10.2-1.2-20.5-2-30.8-2.9
		c-13-1.2-22.1-8.6-25.5-21.1c-3.3-12.2-3-24.4,0.3-36.5c2.9-10.8,9.6-18.1,20.9-20.5c3.9-0.8,7.9-1.3,11.9-1.3
		c19,0.1,38-0.1,57,0.1c4.6,0,6.2-1.5,6-6c-0.3-6.1-0.3-12.3,0-18.5c0.3-5-1.8-6.2-6.4-6.2c-19.7,0.2-39.3,0.1-59,0.1
		c-6.3,0-12.7,0-18.9,1c-27.4,4-47.2,17.7-56.3,44.4c-6.7,19.5-7.1,39.6-0.8,59.4c7.4,23.2,23.1,38.1,46.8,44
		c7.8,1.9,15.8,2.2,23.8,2.6c19.4,1,29.3,3.9,35.1,24.9c3.7,13.3,3.3,27.1-0.4,40.4c-3.1,11-10,18.7-21.5,21.5
		c-4,1-8.2,1.4-12.4,1.4c-19.7-0.1-39.3,0.1-59-0.1c-5.2-0.1-6.7,1.9-6.5,6.7c0.2,5.8,0,11.7,0.1,17.5c0.1,6,0.5,6.4,6.7,6.4
		c13.2,0,26.3,0,42.4,0C1562.8,572.3,1578.6,573.9,1594.4,572z M1684.5,509.7c0,9.4,1.3,18.6,4.7,27.4c7.6,19.7,21.2,32.4,42.7,35.1
		c12.2,1.5,24.6,0.4,36.9,0.5c2.8,0,3.8-1.8,3.8-4.2c0-7.3,0-14.6,0-22c0-3.2-1.8-4.3-4.8-4.2c-4.3,0.1-8.7,0-13,0
		c-14.1,0-19.9-5.5-20.8-19.7c-0.1-1.5-0.1-3-0.1-4.5c0-38.4,0.1-76.9-0.1-115.3c0-4.8,1.7-5.9,6.1-5.8c13,0.2,26-0.1,39,0.2
		c4.9,0.1,6.4-1.7,6.2-6.4c-0.3-6-0.3-12,0-18c0.3-4.9-1.8-6.3-6.4-6.2c-12.8,0.2-25.7-0.1-38.5,0.2c-5.2,0.1-6.7-1.7-6.4-6.6
		c0.4-7.3-0.1-14.6,0.2-22c0.2-4.8-1.7-6.5-6.4-6.4c-12,0.2-24,0-36,0.1c-6.7,0-7.1,0.4-7.1,7L1684.5,509.7z M2008.3,509.7
		c0,6.5,0.7,12.9,2.1,19.3c5.6,24.5,22.6,40.8,46.7,43.4c11.5,1.2,23.3,0.3,34.9,0.4c2.7,0,3.8-1.4,3.8-4.1c-0.1-7.3-0.1-14.6,0-22
		c0.1-3.2-1.4-4.5-4.5-4.4c-4.5,0.1-9,0-13.5,0c-13,0-18.4-4.8-19.9-17.8c-0.3-2.1-0.3-4.3-0.3-6.5c0-38.4,0-76.9-0.1-115.3
		c0-4.5,1.5-5.7,5.8-5.6c13.3,0.2,26.6,0,40,0.1c4.2,0.1,5.6-1.5,5.5-5.5c-0.2-6,0-12-0.1-18c0-6.6-0.3-6.9-7.2-6.9
		c-13,0-26-0.1-39,0c-3.6,0-5.1-1.2-5-4.9c0.2-7.6,0.1-15.3,0-23c0-6.4-0.5-6.9-6.7-6.9c-11.8,0-23.7,0-35.5,0
		c-6.9,0-7.2,0.3-7.2,7.4c0,29,0,57.9,0,86.9C2008.4,454.1,2008.4,481.9,2008.3,509.7z M1055.4,309c0-4.8-1.4-6.4-6.2-6.3
		c-12.2,0.3-24.3,0.2-36.5,0c-4.4-0.1-6.2,1.1-6.2,5.9c0.1,86.2,0.1,172.3,0,258.5c0,4.3,1.4,5.9,5.7,5.8c11.8-0.2,23.6,0,35.5-0.1
		c7.6,0,7.6,0,7.6-7.4C1055.3,522.9,1055.2,351.9,1055.4,309z M2186,373.5c0-6.1-0.5-6.6-6.5-6.6c-12.3,0-24.6,0.1-37-0.1
		c-4.2,0-5.9,1.4-5.9,5.8c0.1,64.9,0.1,129.8,0,194.6c0,4.5,1.9,5.7,6,5.6c11.5-0.2,23,0,34.5,0c8.9,0,8.9,0,8.9-8.7
		c0-31.4,0-62.9,0-94.3C2186,437.7,2186,405.6,2186,373.5z M2180.9,344.3c3.4,0.1,4.8-1.3,4.8-4.7c-0.1-10.6-0.1-21.3,0-31.9
		c0-3.6-1.7-5-5.2-4.9c-13.1,0.1-26.3,0.1-39.4,0c-3.4,0-4.8,1.4-4.7,4.8c0.1,10.6,0.1,21.3,0,31.9c0,3.7,1.6,5,5.1,4.9
		C2147.9,344.1,2174.2,344.2,2180.9,344.3z"/>
	<path d="M2658.8,563.3c2.4-7,4.8-14,7.2-21.1c0.5-1.4,1-2.8,1.6-4.2c1-2.6,3.1-2.7,5.4-2.4c2.5,0.2,2.7,2.1,2.7,4
		c0,9.7,0,19.3,0,29c0,1.8,0,3.9-2.6,4c-3,0.2-3-2-3-4.1c0-6.8,0-13.6-0.7-20.7c-2.3,6.8-4.6,13.7-6.9,20.5
		c-0.8,2.2-1.2,4.6-4.5,4.5c-2.9-0.1-3.4-2.3-4.1-4.4c-2.2-6.5-4.4-13.1-7.4-19.5c0,6.4,0,12.9,0,19.3c0,2,0.1,4.3-2.8,4.4
		c-3.2,0.1-3.3-2.3-3.3-4.5c-0.1-9.3-0.1-18.6,0-28c0-2.2,0.2-4.4,3.3-4.7c2.9-0.3,4.8,0.7,5.7,3.6c2.6,8,5.4,16,8.1,24.1
		C2658,563.2,2658.4,563.3,2658.8,563.3z M2622.8,535.6c-4,0-8,0-11.9,0c-1.7,0-2.9,0.8-2.9,2.7c0,1.9,1.3,2.5,3,2.6
		c0.8,0,1.7,0.2,2.5,0.1c5-0.7,6.3,1.8,6.1,6.3c-0.3,7-0.1,13.9,0,20.9c0,2.2,0,4.6,3.2,4.6c3.2-0.1,3-2.6,3-4.7
		c0.1-7.1,0.2-14.3-0.1-21.4c-0.2-4.3,1.3-6.2,5.7-5.7c0.8,0.1,1.7,0,2.5,0c1.8,0,3.4-0.4,3.5-2.7c0-2.2-1.6-2.7-3.4-2.7
		C2630.1,535.5,2626.5,535.5,2622.8,535.6C2622.8,535.5,2622.8,535.5,2622.8,535.6z"/>
</g>
<g id="Sign">
	<path class="st0" d="M414.2,198.2c-4.2,0-8.3-0.1-12.5,0c-3.5,0.1-4.9-1.2-5.5-4.8c-5-28.6-12.5-56.5-23.4-83.4
		c-7.9-19.3-17.2-37.8-30.9-53.9c-3-3.6-1.6-5,2.1-6.1c12.9-3.9,24-0.6,33.6,8.3c13.1,12.1,21.4,27.4,28.2,43.6
		c12.3,29.3,19.5,60,24.5,91.3c0.5,3.4-0.2,4.7-2.8,4.5h34.6c-7.7,0.4-7.6,0.3-8.8-7.5c-4.7-32.6-12.6-64.3-25.3-94.8
		c-8.4-20.1-18.9-38.9-35.1-54c-19.2-17.8-46.5-21.7-67.8-8.9c-4.5,2.7-7.9,3-12.7,0.9c-21-9.5-43.3-5.2-59.9,10.8
		c-14.4,13.8-22.4,31.3-28.2,49.8c-10,31.8-13.7,64.7-15.1,97.8c-0.2,4.8-1.6,6.3-6.4,5.7h222.8C421.9,198.1,418,198.2,414.2,198.2z
		 M265.4,193.8c-0.1,3.5-1.7,4.6-4.9,4.5c-3.8-0.1-7.7,0-11.5,0c0,0,0,0,0,0c-3.8,0-7.7-0.1-11.5,0c-3.7,0.2-5.1-1.4-4.9-5
		c0.5-13,1.6-25.9,3.2-38.7c2.7-21.8,6.6-43.4,14.9-63.9c4.4-11.1,9.9-21.5,19-29.5c8.1-7.2,17.4-10.8,28.5-8.5
		c3.5,0.7,4.5,2.1,2.4,5.4c-18.6,29.4-25.9,62.4-31.1,96.1C267.4,167.2,265.9,180.5,265.4,193.8z M368.2,198.3
		c-12.5-0.1-25,0-37.5,0s-25,0-37.5,0c-3.2,0-5.2-0.9-4.9-4.5c3.2-39.6,8.1-78.8,26.3-114.9c1.3-2.5,2.9-4.9,4.4-7.3
		c1.6-2.7,3.3-2.8,5.5-0.4c5.6,6.2,10.2,13.2,14.2,20.5c17.5,31.8,27.4,66.3,34.1,101.7C373.7,197.6,371.7,198.3,368.2,198.3z"/>
	<rect x="86" y="246.9" class="st1" width="425" height="425"/>
	
		<linearGradient id="SVGID_1_" gradientUnits="userSpaceOnUse" x1="28.4884" y1="312.1357" x2="629.4847" y2="312.1357" gradientTransform="matrix(1 0 0 -1 0 796)">
		<stop  offset="0" style="stop-color:#00B7F1"/>
		<stop  offset="1" style="stop-color:#009CDE"/>
	</linearGradient>
	<path class="st2" d="M629.4,682.3c-0.8-8.4-1.3-16.9-1.8-25.4c-1.7-32.2-21.5-411.8-23.1-445.2c-0.2-5-2.6-7.1-7.3-7.7
		c-6.3-0.7-50.7-8.2-66.9-8.1c0,0-435.2,1.5-465.6,3c-7.3,0.3-8.9,1.9-9.2,9.3C54.8,221.4,29.7,669,28.5,691.2
		c-0.3,6.8,1.7,8.9,8.4,9.9c18.7,2.8,447.4,68.5,461.2,70.7c3.3,0,12.1-1.8,13.2-2.5l109.1-69.8
		C627.3,695.3,630.1,690.1,629.4,682.3z M206.5,514.5c-16.3,6.4-32.8,12.2-49.2,18.2c-2.2,0.8-4.3,1.8-6.4,2.9
		c-2.2,1.2-4.4,2.8-4.1,5.7c0.3,2.7,2.6,3.7,4.8,4.5c8.6,3.1,17.4,2.7,26.2,1.5c13-1.8,24.8-7.6,37.1-11.7c4.6-1.5,5.5-0.4,5.4,4
		c-0.2,6.8-0.3,13.7,0,20.5c0.2,4-1.5,5.7-5.2,6.2c-13.9,2-27.8,3.1-41.8,2.2c-19.9-1.3-39.2-5.2-58-11.9c-6-2.1-11.8-4.6-16.8-8.6
		c-10.6-8.5-10.4-18.9,0.6-26.8c8.3-6,17.6-10.1,27.2-13.6c29.3-10.6,58.6-21.2,87.9-31.7c6-2.1,6-2,6.1,4.4c0,4,0,8,0,12
		c0,0.8,0,1.7,0,2.5C219.8,513.1,223.2,508,206.5,514.5z M233,444.9c0-43.8,0-87.5,0-131.3c0-6.2,0.1-6.4,6.2-5
		c31.8,7.5,63.3,15.8,93.9,27.4c9.2,3.5,17.8,8.2,25.8,14c12.3,8.9,21.1,20.4,25,35.1c5.6,21.2,7.4,42.7,0.5,64
		c-10.4,32.2-38.8,33.6-61.9,23.1c-3-1.4-2.6-4-2.6-6.4c0-29.5,0-58.9,0-88.4c0-5.1-0.7-10-3-14.5c-2.7-5.3-9.1-8.9-13.9-7.8
		c-4.5,1-7.7,5.5-8.3,11.9c-0.2,2.5-0.2,224.2-0.2,224.2c0,1.7-0.1,3.3,0,5c0.4,4.4-1,5.6-5.4,4.1c-13.4-4.6-27-8.7-40.4-13.2
		c-5.1-1.7-11.9-1.7-14.9-6.1c-2.9-4.2-0.9-10.4-0.9-15.7C233,525.1,233,444.9,233,444.9z M405.1,600.5c0.3,4,0.1,8,0,12
		c0,1.5,0.7,3.4-1.9,4.8c-1.6-5.6-0.1-11.3-1.9-16.9c-1.1,3.3-2.1,6.7-3.5,10c-1.1,2.5-0.5,7-4.4,6.9c-3.5,0-3-4.2-4-6.7
		c-1.5-3.6-2.6-7.4-3.9-11.1c-1.9,5.8-0.6,11.4-3,16.9c0-7.1,0-14.2,0-21.3c0-1.1,0.9-1.7,2.1-1.7c1.4,0.1,2,1,2.4,2.2
		c1.5,4.2,2.9,8.5,4.3,12.8c0.6,1.7,1.2,3.4,3,5.4c1.6-4.7,3.1-9.4,4.9-14c0.9-2.3,0.6-6.5,4-5.9C406.7,594.2,405,598.1,405.1,600.5
		z M463.5,536.9c-7.1,6-15,10.5-23.7,13.6c-42.9,15.6-85.8,31.2-128.6,46.8c-3.6,1.3-4.8,0.5-4.8-3.3c0.1-8.7,0.2-17.3,0-26
		c-0.1-4,1.4-5.9,5.1-7.3c30.1-10.7,60.2-21.5,90.3-32.4c3.3-1.2,6.5-2.6,9.6-4.2c2-1.1,4-2.8,3.8-5.4c-0.3-2.7-2.6-3.8-4.8-4.6
		c-7.7-2.8-15.7-2.8-23.7-1.9c-6.1,0.6-12.1,2.3-17.9,4.4c-19.1,6.9-38.3,13.6-57.4,20.6c-3.8,1.4-5.2,0.8-5-3.3c0.2-4.5,0-9,0-13.5
		s0.1-9,0-13.5c-0.1-3.3,1.1-5.2,4.4-6.2c25.3-7.3,50.8-11.9,77.3-9.9c19.9,1.5,39.2,5.4,57.9,12.3c6.8,2.5,13.3,5.4,18.5,10.6
		C472.2,521.2,471.9,529.8,463.5,536.9z"/>
</g>
</svg>
