<?xml version="1.0" encoding="utf-8"?>
<!-- Generator: Adobe Illustrator 24.0.1, SVG Export Plug-In . SVG Version: 6.00 Build 0)  -->
<svg version="1.1" id="Layer_1" xmlns="http://www.w3.org/2000/svg" xmlns:xlink="http://www.w3.org/1999/xlink" x="0px" y="0px"
	 viewBox="0 0 108.9 49.06" style="enable-background:new 0 0 108.9 49.06;" xml:space="preserve">
<style type="text/css">
	.st0{fill:#0F0F0F;}
</style>
<g>
	<path class="st0" d="M86.52,18.35c0.12,0.04,0.08-0.08,0.12-0.12C86.52,18.19,86.56,18.31,86.52,18.35z"/>
	<path class="st0" d="M87.88,16.8c-0.04,0-0.04,0-0.04,0.04C87.88,16.84,87.88,16.84,87.88,16.8z"/>
	<path class="st0" d="M86,19.15c0.12-0.12,0.24-0.12,0.28-0.24c-0.08,0-0.12,0-0.16-0.04L86,19.15z"/>
	<path class="st0" d="M85.97,19.31c0,0.04,0,0.04-0.04,0.04v0.08H86C86,19.35,86,19.31,85.97,19.31z"/>
	<path class="st0" d="M87.8,16.96c0-0.04,0.04-0.08,0.04-0.12H87.8c-0.12,0.12-0.16,0.2-0.2,0.32C87.8,17.28,87.68,17,87.8,16.96z"
		/>
	<path class="st0" d="M77.04,15.25c-0.04-0.12,0.12-0.12,0-0.16c0,0.04-0.04,0.08-0.12,0.08v-0.04h-0.04
		C76.88,15.21,76.92,15.25,77.04,15.25z"/>
	<path class="st0" d="M76.76,15.53c0-0.04-0.08-0.04-0.08,0C76.72,15.53,76.76,15.64,76.76,15.53z"/>
	<path class="st0" d="M87.88,16.8c0.12-0.12,0.28-0.28,0.24-0.4C88,16.56,87.88,16.6,87.88,16.8z"/>
	<path class="st0" d="M76.68,15.56c-0.04,0.16-0.48,0.32-0.36,0.44C76.44,16.12,76.64,15.76,76.68,15.56z"/>
	<path class="st0" d="M78.12,13.21c-0.12,0,0-0.12-0.12-0.08c0.04,0.12-0.16,0.16-0.04,0.2C77.96,13.21,78.12,13.33,78.12,13.21z"/>
	<path class="st0" d="M87,18.19c0.16-0.2,0.2-0.28,0.32-0.48C87.12,17.76,86.88,18.08,87,18.19z"/>
	<path class="st0" d="M76.96,15.09c-0.04,0-0.04,0-0.04,0.04C76.96,15.13,76.96,15.13,76.96,15.09z"/>
	<path class="st0" d="M55.84,15.53c0,0.04,0.04,0.08,0.08,0.08v-0.08H55.84z"/>
	<path class="st0" d="M54.57,17.88V17.8C54.53,17.8,54.53,17.88,54.57,17.88z"/>
	<path class="st0" d="M75.49,17.68c-0.04,0-0.04,0-0.04,0.04C75.49,17.72,75.49,17.72,75.49,17.68z"/>
	<path class="st0" d="M76.24,16.52c0-0.04,0-0.08-0.04-0.08c0,0.04-0.04,0.04-0.04,0h0.04c0-0.04,0-0.08-0.04-0.08
		c0,0.12-0.2,0.08-0.08,0.2C76.08,16.52,76.12,16.52,76.24,16.52z"/>
	<path class="st0" d="M54.85,17.28c-0.08,0-0.12,0.04-0.12,0.12C54.85,17.44,54.81,17.32,54.85,17.28z"/>
	<path class="st0" d="M76.32,16.28c-0.12-0.04,0.08-0.08,0.08-0.12c-0.12-0.12-0.2,0.04-0.2,0.16h0.08
		C76.32,16.32,76.32,16.32,76.32,16.28z"/>
	<path class="st0" d="M105.04,40.8c0.2,0.2,0.2,0,0.41,0c-0.47-1.02-1.69-0.81-2.57-1.35c-0.54,0.07-1.02-0.34-1.56-0.27
		c-0.2-0.27-0.54-0.07-0.81-0.27c-2.17-0.2-4.47-0.61-6.57-0.95c0,0.27-0.47-0.07-0.68-0.07c-0.61-0.07-1.15,0.07-1.76,0
		c-0.61-0.07-1.29-0.07-2.03-0.27c-2.64-0.07-4.81-0.14-7.32-0.34c0,0.07,0,0.14-0.07,0.14c-0.81-0.2-1.83-0.2-3.12,0
		c-1.69-0.34-2.84,0.07-4.4-0.14c-0.07,0.07-0.14,0.14-0.2,0.14c-2.71-0.2-6.23,0.07-9.28,0.41c-0.75-0.07-2.37,0.07-2.91,0.27
		c-1.15-0.2-2.24,0.14-3.25,0.34c-1.29-0.07-2.71,0.47-4.54,0.47c-0.61,0.34-1.76,0.2-2.3,0.47c-0.47-0.2-0.88,0.27-1.22,0.07
		c0,0.14-0.07,0.2-0.14,0.2l-0.2-0.14c-0.27,0.2-0.68,0.27-1.29,0.2c-3.18,0.61-7.45,1.69-10.97,2.44
		c-2.51,1.08-5.08,1.29-7.18,3.18c0.07,0.47-0.14,0.54,0.34,1.08c0.47,0.34,0.41,0.34,0.47,0.95c0.2,0.07,0.2-0.07,0.41-0.14
		c0,0.34,0.41,0.07,0.47,0.27c0.2-0.61,0.88-0.95,1.42-0.95c0-0.2-0.14-0.2,0.07-0.27c0.47,0.27,0.81-0.27,1.29-0.34v0.2
		c0.2,0,0.68-0.07,0.47-0.27c0,0.2-0.41,0.14-0.2-0.07c0.2,0.2,0.27-0.2,0.47,0c0.07-0.27,0.41-0.34,0.61-0.27
		c-0.07,0.07-0.07,0.14-0.07,0.2c0.2-0.2,0.34,0,0.54-0.2c-0.07,0-0.14-0.07-0.14-0.14c0.07,0,0.14,0,0.2-0.07
		c0,0.07-0.07,0.14-0.07,0.2c0.34,0,0.61-0.07,0.75-0.27c-0.2-0.2-0.41,0.34-0.61,0.07c0.47-0.2,0.88-0.27,1.35-0.47
		c0,0.2-0.07,0.2-0.07,0.27c0.47-0.07,0.68,0,0.95-0.27c-0.2,0-0.07-0.14-0.27-0.2c0.2-0.07,0.2,0.07,0.41,0.07
		c0,0.07-0.14,0.07-0.14,0.14c0.47,0.07,0.47-0.14,0.95-0.14v-0.27c-0.07-0.2-0.14,0.14-0.2-0.07c0.2-0.07,0.75-0.54,0.95-0.07
		l-0.41-0.07c0.54,0.54,1.29-0.34,1.76,0c0.47-0.34,1.42-0.2,1.9-0.68c-0.07,0.07-0.14-0.07-0.14-0.27c0.2,0.2,0.07,0,0.27,0
		c0.47-0.2,0.88-0.41,1.15-0.2c-0.2,0.2-0.2,0.07-0.41,0.27c-0.07-0.27-0.41,0-0.47,0.2c0.47-0.27,1.22,0.14,1.69-0.34
		c-0.07,0-0.14-0.07-0.14-0.2c0.07,0.07,0.14,0.07,0.34,0.07c0.07-0.34,0.27-0.2,0.47-0.41c0,0.2,0.27-0.2,0.2,0.14h0.07
		c0-0.07,0-0.14,0.07-0.14c0.07,0,0.07,0.07,0.14,0.07c0-0.07,0-0.07,0.07-0.07c0,0.07,0,0.07-0.07,0.07v0.2
		c0.34,0.2,0.47-0.07,0.68-0.07c-0.2-0.2,0.14-0.14-0.07-0.34c0,0.07-0.14,0.07-0.14,0c0.34-0.2,0.54,0,0.75-0.2
		c0.2,0.27-0.27,0.2-0.07,0.41c0.2,0,0.47,0.2,0.68-0.14c0.2,0.2,1.08,0.07,1.29-0.27c-0.27-0.07-0.27,0.14-0.47,0.07
		c0.07-0.34,0.34-0.2,0.54-0.41c0.2,0.34,0.47-0.27,0.81,0c0.2-0.2,0.07-0.14,0.14-0.34c0.2,0.34,0.95,0.2,0.95-0.14l0.34,0.14
		c0-0.07,0.07-0.14,0.14-0.14c0,0.07-0.07,0.14-0.14,0.14c0.2,0.2,0.27-0.14,0.47,0.07c0.07,0.27-0.41,0-0.2,0.27
		c0.2,0,0.68,0.07,0.88-0.2c-0.2-0.2-0.34,0-0.61,0.07c0-0.2,0.07-0.34,0.14-0.41c0.2,0.47,0.54-0.2,0.75,0.14
		c0-0.07,0.07-0.14,0.14-0.14c0,0.07-0.07,0.14-0.14,0.14c0,0.07,0,0.14,0.07,0.14c0.27,0.27,0.88,0,1.35,0
		c-0.2-0.47-0.68,0-0.88-0.2c0.07-0.2,0.2,0,0.27-0.2c0.27,0.07,0.54-0.14,1.08-0.07C56.75,41.2,56.61,41,56.82,41
		c0,0.14,0.07,0.2,0.14,0.2c-0.07-0.27,0.27-0.14,0.34-0.34c0.07,0.07,0.07,0.14,0.07,0.27c-0.07-0.07-0.14-0.07-0.2,0.07
		c0.34,0.07-0.07,0.07-0.07,0.27c0.2,0.07,0.34,0.07,0.41-0.14c-0.07,0-0.07-0.07-0.07-0.2c0.27-0.27,0.41,0.07,0.61,0
		c-0.2,0,0.07-0.27,0,0c0.2-0.07,0.07,0.2,0.27,0.2v-0.2c-0.2,0,0-0.2,0.07-0.2c0,0.07-0.07,0.14-0.07,0.2c0.2,0,0.14-0.07,0.2-0.07
		v0.14c0.14,0.14,0.2,0.14,0.2,0c-0.07,0-0.07-0.14,0-0.14v0.14h0.07c-0.07-0.27,0.14-0.27,0.2-0.07c-0.07,0,0,0.07-0.2,0.07v0.14
		c0.27-0.07,0.41-0.07,0.47,0c0.27-0.07,0.54-0.07,0.75-0.27c0,0.07,0,0.14,0.07,0.14c0-0.2,0.2-0.07,0.14-0.27h-0.07
		c0,0.07-0.07,0.07-0.07,0c-0.2-0.07-0.2,0.27-0.41,0.07c0.2-0.07,0.27-0.2,0.47-0.27c-0.07-0.07-0.14-0.2-0.07-0.27H60
		c0,0.07-0.14,0.14-0.14,0.07c0-0.07,0.07-0.07,0.14-0.07c0-0.07,0.07-0.07,0.07,0c0.07,0,0.07,0.14,0.14,0.14
		c0-0.07,0.07-0.2,0.2-0.27c0-0.07,0.07-0.14,0.14-0.14v0.14c0.2,0.2-0.2,0.34-0.41,0.41c0,0.2,0.27-0.2,0.2,0.14
		c0.2-0.2,0,0,0.2,0.07c0.07-0.07,0.27,0,0.34-0.2l0.2-0.14c0-0.07,0-0.14,0.07-0.14c0,0.07,0,0.14-0.07,0.14
		c0.07,0.07,0.07,0.14,0.07,0.27h0.07v-0.2c0.2,0.2,0.07,0,0.27,0v0.2c0.2-0.07,0.07-0.34,0.27-0.41c0.2,0.2,0.61-0.14,0.81,0.34
		c0.07,0,0.14-0.14,0.2-0.14c-0.14-0.14-0.14-0.2,0-0.2c0.07,0.27,0.34,0,0.54,0c-0.2,0.2-0.07,0.2-0.14,0.41
		c0.27,0.07,0.34-0.07,0.54-0.07c0-0.2,0.07-0.27,0.14-0.34c0.07,0.2,0.07-0.07,0.14-0.07c0.07,0.27-0.14,0.14-0.2,0.34
		c0.2-0.2,0.41,0.14,0.47-0.14c-0.2,0-0.27-0.07-0.2-0.14c0.07,0.2,0.2-0.14,0.27,0.07c0.2-0.07,0.07-0.27,0.34-0.2
		c0,0.07-0.07,0.07-0.07,0.14c0.2-0.07,0.14-0.14,0.41-0.14c0.07,0.2,0.34,0,0.54,0.2c-0.2,0.2-0.34-0.14-0.54,0.07v0.2
		c0.27,0.2,0-0.2,0.2-0.2c0,0.27,0.54,0.07,0.81,0c0,0.2-0.07,0.14-0.07,0.2h0.14c0.07,0,0.14,0,0.14-0.07
		c-0.27-0.2,0.54-0.14,0.2-0.34c0,0.2-0.41,0.2-0.34,0c0.2-0.2,0.81,0,1.02-0.27c0,0.14,0,0.2,0.07,0.2c0-0.07,0.07-0.07,0.07,0
		c0.07,0,0.27-0.2,0.27,0c-0.2,0-0.34,0.2-0.14,0.27c0.2-0.47,0.54,0.07,1.02-0.2c-0.07-0.2-0.07,0.07-0.27,0
		c0-0.2,0-0.27,0.07-0.27c-0.2,0.27,0.47,0.07,0.2,0.27c0,0.07,0.07,0.14,0.07,0.2c0.14,0.07,0.2,0.07,0.14-0.14
		c0.2-0.07,0.41-0.07,0.61,0l0.2-0.14c0-0.14,0-0.2,0.07-0.2c0.07,0.07,0.07,0.14-0.07,0.2c0.07,0.2,0.14,0,0.2,0
		c0,0.14,0.07,0.2,0.14,0.2c0-0.47,0.47,0,0.54-0.27c-0.2-0.07-0.07-0.41,0.14-0.2c0.07-0.2-0.14,0-0.14-0.2
		c0.2-0.07-0.14-0.2,0.07-0.27c0.2,0.81,0.68,0.34,1.02,0.61c-0.07,0.07-0.27,0-0.27,0.2l0.47-0.14c0.07-0.2-0.14,0-0.14-0.2
		c0.07-0.07,0.41-0.14,0.2,0.07c0.34,0.07,0-0.27,0.2-0.34c0.2,0.2,0.07,0.27,0.27,0.07c0.07,0,0.34,0.41,0.34,0.14
		c0.27,0.2-0.2,0.14-0.14,0.34c0.47-0.2,0.95,0.14,1.15-0.14c-0.07-0.2-0.14,0-0.2,0v-0.2c-0.07,0-0.07,0-0.07-0.07
		c0.07,0,0.07,0,0.07,0.07c0.07-0.07,0.14-0.07,0.27-0.07c0,0.34,0-0.07,0.2,0c0,0.07,0,0.14,0.07,0.14c0-0.2,0.07-0.2,0.07,0
		c0.27,0.07-0.27,0.2,0,0.27c0-0.2,0.34,0.07,0.41-0.14v-0.14c-0.07,0-0.2,0.27-0.27,0.07c0.2-0.2,0.07-0.2,0.27-0.41
		c0.2,0.07,0.07,0.07,0.07,0.27c0.2-0.2,0,0,0.2,0.07c0.27-0.2,0.61,0,0.88,0c-0.47,0.2-0.88-0.07-1.15,0.14
		c0.47,0.07,0.75,0,1.35,0c0.07-0.27-0.14,0.07-0.14-0.14c0.07-0.2,0.41,0,0.41,0.07c0-0.14,0.07-0.2,0.14-0.2
		c0,0.07,0.2-0.07,0.2,0.14c0.2,0,0.07-0.27,0.27-0.2c0,0.14,0,0.2,0.07,0.2c0-0.07,0-0.14,0.07-0.14c0,0.27,0.07,0,0.14,0
		c0.2,0.2-0.34,0.14-0.07,0.34c0-0.2,0.27,0.14,0.27-0.14c-0.07,0-0.14,0-0.14-0.07c0.07,0,0.07-0.07,0.14-0.07
		c0.14,0.14,0.2,0.2,0.2,0.14c0.07,0,0.07,0.07,0.07,0.14c0.34,0,0.47-0.07,0.41-0.2c0,0.07-0.2,0.07,0,0c-0.07-0.2,0.34-0.2,0.27,0
		c0.2-0.2,0.14-0.07,0.07,0.14c0.34-0.2,0.47,0.41,0.75,0.2c0.07-0.47,0.95,0.14,1.29-0.2c-0.34,0,0.27-0.34,0.27-0.07
		c-0.07,0,0,0.07-0.2,0.07c0.07,0.2-0.47,0.14-0.2,0.34c0.44-0.31,0.98,0.17,1.23-0.12c-0.05,0.01-0.1-0.08-0.14-0.08
		c0,0.07,0,0.07-0.07,0.07c0-0.07,0-0.07,0.07-0.07v-0.2c-0.2,0-0.07,0.07-0.27,0.07v0.14c0.07,0,0.07,0.07,0,0.07v-0.07
		c-0.2,0-0.07-0.07-0.07-0.14c-0.2-0.07-0.2,0.14-0.27-0.07c0-0.14,0-0.2,0.07-0.2c0.07,0.27,0.41,0,0.61,0.07v0.2
		c0.2,0,0.07-0.14,0.27-0.2c-0.07,0-0.14,0-0.14-0.07c0.07,0,0.07-0.07,0.14-0.07v0.14c0.2-0.07,0.07,0.14,0.27-0.14v0.34
		c0.2,0.2,0.54,0.07,0.75,0.14c0.07,0,0.07,0.07,0.14,0.07c0-0.27,0.07-0.14,0.27-0.14c0-0.07,0-0.14,0.07-0.14
		c0,0.07,0,0.14-0.07,0.14c-0.14,0.14-0.14,0.2,0,0.2c0.07-0.2,0.07,0.07,0.14,0.07c-0.2-0.34,0.34-0.2,0.41-0.14
		c0-0.2,0.2-0.14,0.27-0.34c-0.14,0-0.2,0-0.2-0.07c0.2,0,0.14-0.2,0.34-0.14c-0.2,0.2,0,0.27,0.2,0.34
		c-0.14,0.07-0.14,0.14-0.07,0.2c0.34,0.2,0.68-0.14,1.15,0.07c0-0.07,0-0.14,0.07-0.14c0-0.07,0-0.14,0.07-0.14
		c0,0.07,0,0.14-0.07,0.14c0.07,0.2,0.27-0.07,0.34-0.14c0,0.2,0.07,0.14,0.07,0.2c0.2,0,0.07-0.2,0.27,0c0-0.07,0-0.14,0.07-0.14
		c0-0.07,0-0.14,0.07-0.14c0.2,0.2,0.14-0.14,0.41-0.07v0.2c0.07,0,0.14-0.14,0.14,0.07c0.2,0.07-0.07,0.07,0,0.27l0.41-0.14v0.2
		c0.34,0,0.07-0.34,0.54-0.14c0-0.07,0.07-0.07,0.07-0.14h0.14c0,0.07,0,0.14,0.07,0.14c0.07-0.07,0.07-0.07,0.07,0.14
		c-0.2-0.07-0.27,0-0.54-0.07c0.2,0.34,0.95,0.14,1.49,0.2c0,0.07-0.07,0.07-0.07,0.14c0.2,0,0.2,0.07,0.27,0.07
		c0.14-0.14,0.2-0.2,0.14-0.2c0.07,0.27,0.34-0.07,0.54,0.14c0-0.2,0.07-0.27,0.14-0.27c-0.2,0.47,0.14,0.14,0.34,0.34
		c-0.47,0.2-0.75-0.07-0.95,0.41c-0.07-0.07-0.2,0.14-0.41-0.07c0,0.07-0.07,0.07-0.14,0.07c0,0.07-0.14,0.14-0.14,0.07
		c0-0.07,0.07-0.07,0.14-0.07v-0.14c-0.2,0.07-0.2,0.14-0.41,0.07c-0.07,0.07,0.07,0.27-0.14,0.27c-0.2,0.07-0.07-0.14-0.27-0.14
		c-0.07,0.14-0.2,0.2-0.34,0.2c0.07-0.2-0.14-0.14-0.2-0.07c0,0.07,0.07,0.07,0.07,0.27c-0.2,0-0.2,0.2-0.2,0
		c0.2-0.07-0.07-0.07,0.14-0.27c-0.07-0.2-0.27,0.07-0.34-0.14c-0.2,0,0.07,0.41-0.2,0.2c0,0.2-0.2,0.14-0.27,0.2
		c-0.07-0.07,0-0.27-0.2-0.2c0,0.07,0.07,0,0.07,0.2c0.07,0,0.07,0.14,0,0.14v-0.14c-0.2,0.2,0,0.41,0.2,0.41
		c-0.2,0.07-0.14,0.2-0.2,0.27c-0.07,0-0.14-0.07-0.14-0.14c-0.07,0,0.07,0.2-0.14,0.2c0-0.14-0.07-0.2-0.14-0.14
		c0,0.07,0,0.14-0.07,0.14c0-0.07,0-0.14,0.07-0.14c-0.2-0.27-0.34,0.14-0.54-0.07c0.07,0.2-0.27,0.07-0.2,0.34
		c0.2-0.07,0.34,0.2,0.14,0.27c0-0.27-0.2,0.07-0.2-0.2c-0.07,0-0.14,0.07-0.14,0.14c0.2-0.2,0.2,0.47,0,0.27
		c0-0.27-0.88-0.27-0.88,0.2c-0.07-0.2-0.14,0-0.2,0c0-0.14-0.07-0.27-0.27-0.34c0,0.2-0.07,0.07-0.14,0.07
		c-0.27,0.27-0.68,0.2-1.15,0.41c0,0.2,0.07,0.14,0.07,0.2c-0.2,0-0.27,0-0.34,0.07c0-0.2,0.07-0.14,0.07-0.2
		c-0.2,0-0.14-0.07-0.2-0.07c0,0.07,0,0.14-0.07,0.14c0,0.2,0.2,0,0.14,0.2h-0.27c0,0.2-0.2,0.2-0.27,0.14
		c-0.07,0.2,0.2,0.07,0.14,0.27c-0.2-0.2-0.61-0.34-0.41,0c0-0.2,0.2,0,0.2,0.07l-0.41,0.07c0-0.07,0-0.14-0.07-0.14
		c0,0.07-0.07,0.14-0.14,0.14c0,0.07,0,0.14-0.07,0.14c0-0.07,0-0.14,0.07-0.14c0-0.07,0.07-0.14,0.14-0.14
		c-0.07-0.2-0.2,0.14-0.41-0.07v0.2c0.2-0.2,0.27,0.2,0.07,0.2c0-0.07-0.07,0-0.07-0.2c-0.07,0-0.14-0.07-0.2-0.07
		c-0.07,0.14-0.07,0.27,0,0.34h-0.2c-0.2,0.2-0.61,0.27-0.34,0.61c0.2-0.34,0.34,0.07,0.68-0.14c0.07-0.07,0.07-0.2,0.27-0.2
		c0.07,0.27-0.07,0.41-0.27,0.2c0,0.07-0.2,0.27,0,0.27c0.07-0.2,0.07,0.07,0.14,0.07c0-0.07,0.07-0.07,0.2-0.07
		c0.07,0,0.14,0,0.2,0.07c-0.07,0.07-0.07,0.14-0.07,0.27c-0.07-0.07-0.2-0.07-0.27,0.07c0.2,0.07,0.34,0,0.54,0.2
		c0-0.2,0.27-0.14,0.34-0.07c0.2-0.2,0-0.07-0.07-0.27c0.2,0.2,0.2-0.27,0.41-0.07c0,0.07-0.14,0.07-0.14,0.14
		c0.54,0.07,1.08-0.07,1.56-0.34c0.54,0.2,1.22-0.41,1.96-0.2c0-0.2,0.07-0.27,0.14-0.27c0.07,0,0.14,0.07,0.14,0.2
		c1.02-0.2,1.76,0,2.84-0.47c0.47,0.27,1.08-0.14,1.56,0.07c0.2-0.07-0.14-0.27,0.07-0.34c0.2,0.2,0.54,0.34,0.75,0.14
		c-0.2,0-0.2-0.2,0-0.2c0.75,0.27,1.56,0,2.57-0.2c0.47-0.07,0.88,0.07,1.35,0c0.2,0,0.34-0.2,0.54-0.2
		c0.61-0.07,1.29,0.14,1.76-0.07c0.2-0.07,0.41-0.34,0.68-0.14c0-0.07,0-0.14,0.07-0.14c2.64,0.34,5.01-0.27,6.91-0.27
		c0-0.54,0.41-0.61,0.07-0.95c0.2,0,0-0.2,0.2-0.2c0,0.07,0.07,0.14,0.2,0.14c0.07-0.41,0.07-0.74,0-1.08c0.2-0.07,0.2,0.2,0.27,0
		C105.18,41.27,105.11,41.14,105.04,40.8z M36.7,45.4c-0.07-0.07,0-0.14,0.2-0.14C36.9,45.33,36.83,45.4,36.7,45.4z M39.14,44.86
		c-0.2-0.07,0.07-0.14,0.07-0.2C39.41,44.73,39.14,44.79,39.14,44.86z M40.02,44.66C40.22,44.66,39.95,44.93,40.02,44.66
		c-0.2-0.07,0.07-0.14,0.07-0.2C40.29,44.52,40.02,44.59,40.02,44.66z M41.78,44.25c-0.07,0-0.2-0.07-0.27-0.14
		c0-0.07,0.14-0.07,0.34-0.07C41.85,44.12,41.78,44.18,41.78,44.25z M42.59,44.05c-0.27,0-0.47,0.07-0.54,0.07
		c-0.2-0.2,0.14-0.07,0.07-0.27c0.2,0.07,0.34-0.07,0.61-0.07C42.79,43.98,42.52,43.84,42.59,44.05z M43.34,43.91
		c-0.07,0,0.07-0.2-0.14-0.2c0-0.07,0.14-0.07,0.14-0.14c0.2-0.07,0.07,0.14,0.27,0.14C43.54,43.98,43.4,43.64,43.34,43.91z
		 M43.81,43.64c-0.2-0.27,0.27,0,0.27-0.2C44.28,43.51,44.01,43.71,43.81,43.64z M46.32,43.03C46.11,43.24,46.11,42.83,46.32,43.03
		C46.38,43.03,46.38,43.24,46.32,43.03z M46.52,43.17c-0.2-0.07,0-0.14,0-0.2C46.72,43.03,46.52,43.1,46.52,43.17z M46.79,42.96
		c0-0.07,0.07-0.07,0.14-0.07C46.93,42.96,46.86,42.96,46.79,42.96z M49.43,42.63c-0.07,0-0.07-0.07-0.14-0.07v-0.14
		c0.27-0.2,0.27,0.14,0.54-0.07C49.91,42.69,49.5,42.42,49.43,42.63z M50.31,41.88h-0.14v-0.14h0.14V41.88z M51.67,41.81
		c-0.14-0.14-0.2-0.14-0.2,0C51.26,41.61,51.74,41.47,51.67,41.81z M52.75,41.54c0.07,0,0.07,0.07,0.07,0.2
		C52.62,41.68,52.55,41.75,52.75,41.54z M55.19,41.61c-0.07,0,0,0.07-0.2,0.07v-0.2c0.07,0,0.07,0,0.07,0.07
		c0.07,0,0.07-0.07,0.07-0.14C55.19,41.41,55.19,41.47,55.19,41.61C55.26,41.61,55.26,41.81,55.19,41.61z M56.41,41.2h-0.14v-0.14
		h0.14V41.2z M57.9,40.93h-0.14V40.8h0.14V40.93z M59.19,41.14v-0.2C59.39,40.86,59.39,41.34,59.19,41.14z M61.02,40.39h-0.14v-0.14
		h0.14V40.39z M63.45,40.46c-0.14-0.07-0.14-0.14-0.07-0.2C63.45,40.26,63.45,40.32,63.45,40.46
		C63.52,40.46,63.52,40.66,63.45,40.46z M63.66,40.46c-0.07,0-0.14-0.07-0.14-0.2C63.59,40.26,63.66,40.32,63.66,40.46
		C63.72,40.46,63.72,40.66,63.66,40.46z M68.74,40.26c-0.07,0-0.07,0.07-0.07,0.14c-0.2,0-0.14-0.2-0.07-0.27
		c0.07,0.2,0.34,0,0.27,0.2C68.8,40.32,68.74,40.32,68.74,40.26z M68.94,40.32c-0.07-0.07,0-0.14,0.2-0.14
		C69.14,40.26,69.08,40.32,68.94,40.32z M72.8,40.12c-0.07,0,0,0.07-0.2,0.07c0-0.2,0.2-0.07,0.14-0.27
		C72.8,39.92,72.8,39.98,72.8,40.12C72.87,40.12,72.87,40.32,72.8,40.12z M73.61,39.85c0-0.27,0.41-0.27,0.41,0
		C73.75,39.85,73.82,39.78,73.61,39.85z M78.69,39.85c0.2-0.07,0.07,0.2,0.27,0.14C78.96,40.19,78.63,40.12,78.69,39.85z
		 M79.71,40.12h0.07C79.78,40.19,79.71,40.19,79.71,40.12z M82.35,39.98c0.07,0,0.14,0.07,0.14,0.2
		C82.42,40.26,82.35,40.19,82.35,39.98z M83.3,40.05h-0.14c0.2,0.2-0.07,0.14-0.27,0.2c0-0.2,0.2-0.14,0.27-0.2
		c0-0.07,0.07-0.14,0.14-0.14V40.05z M85.6,40.12c-0.2-0.07,0-0.14,0-0.2C85.81,39.98,85.6,40.05,85.6,40.12z M87.91,40.66
		c-0.2-0.07,0.07-0.14,0-0.34C88.11,40.39,87.84,40.46,87.91,40.66z M88.85,40.86c-0.14-0.14-0.2-0.2-0.27-0.2
		c0-0.2,0.14,0,0.34-0.07C88.92,40.8,88.85,40.66,88.85,40.86z M88.92,40.53c0-0.2,0.41-0.2,0.34,0.07
		C89.06,40.39,89.12,40.73,88.92,40.53z M89.33,40.46c0.2,0.2,0.07,0,0.27,0C89.6,40.66,89.26,40.73,89.33,40.46z M80.79,45.13
		c-0.07-0.2,0.14,0,0.14-0.2C81.13,44.93,81,45.2,80.79,45.13z M81.27,45.61c-0.2-0.2,0.07-0.34,0.34-0.27
		C81.67,45.61,81.34,45.4,81.27,45.61z M81.4,45c-0.07,0-0.07-0.14-0.14-0.14c0,0.07-0.07,0.14-0.2,0.14c0-0.07,0.07-0.14,0.2-0.14
		c0.07-0.07,0.14-0.07,0.34-0.14C81.61,44.93,81.4,44.79,81.4,45z M82.08,45.61c-0.2,0.34-0.34-0.54,0-0.34
		C82.01,45.47,82.01,45.54,82.08,45.61z M81.88,44.66c0,0.07-0.07,0.14-0.14,0.14v-0.14c-0.2,0,0.07-0.27,0,0H81.88
		c0.2-0.2,0.47-0.14,0.75-0.2C82.42,44.93,82.15,44.66,81.88,44.66z M82.55,45.2c-0.07-0.07-0.14-0.07-0.2,0.07
		c-0.07,0-0.07,0-0.07-0.07v-0.14c0.07,0,0.14,0,0.14-0.07c0.07,0,0.07,0.07,0.14,0.07c0-0.07,0.07-0.07,0.07,0
		C82.83,45.13,82.62,45.54,82.55,45.2z M82.76,44.66c-0.07,0-0.07,0-0.07-0.07v-0.14h0.41C82.89,44.66,82.83,44.39,82.76,44.66z
		 M83.1,43.57c0,0.2,0.14,0.14,0.07,0.34c-0.2-0.07-0.27,0.07-0.47,0.07c-0.27-0.2,0.2-0.2,0.27-0.27c-0.07-0.07-0.2,0-0.54,0.07
		c0.27-0.34,0.61-0.34,1.08-0.34C83.43,43.64,83.37,43.51,83.1,43.57z M83.57,44.25c0.2,0.07-0.07,0.14-0.07,0.2
		C83.3,44.39,83.57,44.32,83.57,44.25z M83.64,45C83.71,45.27,83.43,45,83.64,45c0-0.07-0.07-0.07-0.14-0.07
		c0-0.2,0.2-0.14,0.27-0.07C83.77,44.93,83.71,45,83.64,45z M84.72,44.18c-0.2-0.07,0-0.14,0-0.2
		C84.93,44.05,84.72,44.12,84.72,44.18z M84.86,44.05c0.14,0.14,0.2,0.14,0.2,0C85.26,44.25,84.79,44.39,84.86,44.05z M86.96,41.81
		c0,0.07-0.07,0.14-0.2,0.14C86.75,41.88,86.82,41.81,86.96,41.81z M86.62,42.02c0.2,0.07,0.14,0.54-0.14,0.34
		C86.42,42.15,86.69,42.22,86.62,42.02z M85.4,43.3C85.33,43.03,85.6,43.3,85.4,43.3C85.47,43.57,85.2,43.3,85.4,43.3z M86.08,43.03
		c-0.07,0-0.14-0.07-0.14-0.14c-0.34,0.07-0.34-0.14-0.54,0.07c-0.07-0.27,0.34-0.27,0.54-0.07c0.07,0,0.14-0.07,0.14-0.2
		c0.27,0.07,0.47-0.2,0.75,0C86.62,42.96,86.28,42.56,86.08,43.03z M87.16,42.69v-0.07c0.07,0,0-0.07,0.2-0.07
		C87.36,42.63,87.3,42.69,87.16,42.69z M87.16,42.29c-0.07,0-0.14-0.14-0.14,0.07h-0.07c0,0.2-0.07,0.2-0.07,0
		c-0.2-0.27,0.68-0.61,0.68-0.14C87.36,42.15,87.16,42.08,87.16,42.29z M87.63,42.15v-0.14c0.14,0,0.2,0.07,0.2,0.14H87.63z
		 M87.97,41.95c0.07,0,0.14,0.07,0.14,0.2C87.91,42.22,87.91,42.15,87.97,41.95z M88.04,42.49c0.07,0.07,0.14,0.07,0.14,0
		C88.45,42.56,87.84,42.76,88.04,42.49z M88.79,41.95c0.07,0,0.14,0.07,0.14,0.2C88.85,42.15,88.79,42.08,88.79,41.95z M89.33,41.27
		c0-0.07,0.14-0.07,0.14,0C89.46,41.47,89.4,41.27,89.33,41.27z M90.34,40.8c0.07-0.2,0.34,0,0.34-0.2c0.2,0.07,0.07,0.07,0.07,0.27
		C90.55,40.8,90.55,41,90.34,40.8z M90.95,41.14c-0.07-0.07-0.2-0.07-0.27,0.07c-0.2-0.07,0.07-0.2,0.07-0.27
		C90.82,41,91.02,40.93,90.95,41.14z M90.89,40.59c0.07-0.07,0.14,0.07,0.14,0.27C90.95,40.86,90.89,40.8,90.89,40.59z M91.22,40.8
		c0-0.2,0.2-0.14,0.2,0.07C91.36,40.86,91.29,40.8,91.22,40.8z"/>
	<path class="st0" d="M83.84,42.15c-0.07-0.2-0.41,0.07-0.2,0.14C83.64,42.08,83.84,42.22,83.84,42.15z"/>
	<path class="st0" d="M83.5,42.22c-0.14,0-0.2,0.07-0.2,0.14C83.43,42.35,83.5,42.29,83.5,42.22z"/>
	<path class="st0" d="M81.54,42.63c-0.07,0-0.2,0.07-0.27,0.14C81.47,42.76,81.54,42.69,81.54,42.63z"/>
	<path class="st0" d="M82.55,43.3c0.07,0,0.14,0,0.14-0.07C82.62,43.24,82.55,43.24,82.55,43.3z"/>
	<rect x="83.57" y="42.49" class="st0" width="0.14" height="0.14"/>
	<path class="st0" d="M84.11,42.96c0-0.07-0.14-0.07-0.14,0C84.04,42.96,84.11,43.17,84.11,42.96z"/>
	<path class="st0" d="M79.83,30.03c0.04,0,0.04,0,0.04-0.04h-0.04V30.03z"/>
	<path class="st0" d="M84.65,42.83c-0.2,0-0.14,0.07-0.2,0.07v0.07C84.59,42.96,84.65,42.9,84.65,42.83z"/>
	<path class="st0" d="M84.72,41.95c-0.2,0.07-0.47,0-0.47,0.2C84.45,41.95,84.72,42.22,84.72,41.95z"/>
	<path class="st0" d="M84.38,42.69c-0.07,0.07-0.07,0.14,0.07,0.2C84.45,42.76,84.45,42.69,84.38,42.69z"/>
	<path class="st0" d="M81.9,26.24V26.2C81.86,26.2,81.86,26.24,81.9,26.24z"/>
	<path class="st0" d="M87.56,17.32c0.04-0.12,0.16-0.04,0.04-0.16C87.56,17.16,87.44,17.32,87.56,17.32z"/>
	<path class="st0" d="M86.89,42.35h0.07C86.96,42.29,86.89,42.29,86.89,42.35z"/>
	<rect x="81.13" y="43.84" class="st0" width="0.14" height="0.14"/>
	<path class="st0" d="M82.62,45.06h-0.07v0.14C82.62,45.2,82.62,45.13,82.62,45.06z"/>
	<path class="st0" d="M80.86,43.84h-0.2c0,0.14,0,0.2,0.07,0.2C80.73,43.84,80.93,44.05,80.86,43.84z"/>
	<path class="st0" d="M80.05,44.18c0.07,0,0.07,0.07,0.14,0.07C80.25,44.05,79.98,43.91,80.05,44.18z"/>
	<path class="st0" d="M80.12,43.1c-0.2-0.07-0.14,0.14-0.2,0.2C80.05,43.3,80.12,43.24,80.12,43.1z"/>
	<path class="st0" d="M79.71,44.25c0.07,0.07,0.2,0.07,0.34-0.07C79.91,44.05,79.78,44.05,79.71,44.25z"/>
	<path class="st0" d="M82.78,26.16c0-0.04,0.04-0.08,0.04-0.12h-0.04C82.7,26.12,82.7,26.16,82.78,26.16z"/>
	<path class="st0" d="M96.96,16.72c-0.12-0.12,0.04-0.16-0.08-0.28c0,0.12-0.08,0.04-0.08,0.16c0.04,0,0.08,0.04,0.08,0.08
		c-0.16-0.04-0.08,0.12-0.08,0.24C96.84,16.88,96.96,16.84,96.96,16.72z"/>
	<path class="st0" d="M84.69,22.78c0,0.04,0,0.08-0.04,0.08v0.04C84.77,23.02,84.81,22.78,84.69,22.78z"/>
	<path class="st0" d="M82.98,25.81c-0.04,0-0.04,0-0.04,0.04C82.98,25.85,82.98,25.85,82.98,25.81z"/>
	<path class="st0" d="M81.62,24.13v-0.04C81.5,24.09,81.5,24.13,81.62,24.13z"/>
	<path class="st0" d="M86.88,18c0-0.04,0.04-0.04,0.12-0.04c0-0.12-0.08-0.12,0.08-0.12c0-0.12,0.04-0.24-0.08-0.2
		c-0.12,0.12-0.12,0.24-0.24,0.28v0.12C86.88,18.04,86.84,18,86.88,18z"/>
	<path class="st0" d="M75.45,17.72h-0.04c-0.04,0.04-0.04,0.08-0.04,0.12C75.41,17.84,75.45,17.8,75.45,17.72z"/>
	<path class="st0" d="M75.72,17.16c0.2,0,0.16-0.28,0.28-0.4C75.8,16.8,75.84,17.04,75.72,17.16z"/>
	<path class="st0" d="M76,16.76c0.04,0,0.04,0.04,0.08,0.04c0-0.04-0.04-0.12-0.08-0.16V16.76z"/>
	<path class="st0" d="M82.06,15.17v0.04C82.1,15.21,82.1,15.17,82.06,15.17z"/>
	<path class="st0" d="M81.26,28.08v0.12C81.38,28.2,81.38,28.08,81.26,28.08z"/>
	<path class="st0" d="M79.23,30.47c0.04,0,0.04,0,0.04-0.04C79.23,30.43,79.23,30.43,79.23,30.47z"/>
	<polygon class="st0" points="79.91,30.19 79.91,30.07 79.79,30.19 	"/>
	<path class="st0" d="M88.92,41.07v0.2C89.12,41.47,89.12,41,88.92,41.07z"/>
	<path class="st0" d="M79.27,30.43c0.04,0,0.04,0,0.04-0.04C79.27,30.39,79.27,30.39,79.27,30.43z"/>
	<path class="st0" d="M82.58,26.4c-0.04,0-0.04,0-0.04,0.04C82.58,26.44,82.58,26.44,82.58,26.4z"/>
	<path class="st0" d="M85.13,42.35c-0.07,0-0.07,0-0.07-0.07h-0.14c-0.07,0.07,0,0.14,0.2,0.14V42.35z"/>
	<path class="st0" d="M80.67,29.19h0.04C80.71,29.15,80.67,29.15,80.67,29.19z"/>
	<path class="st0" d="M80.43,29.55c-0.04,0-0.04-0.08-0.08-0.08C80.31,29.59,80.43,29.67,80.43,29.55z"/>
	<path class="st0" d="M21.66,10.42c-0.04,0-0.04,0-0.04,0.04C21.66,10.46,21.66,10.46,21.66,10.42z"/>
	<path class="st0" d="M97.36,22.94c-0.04,0-0.08,0-0.08,0.04C97.32,22.98,97.36,22.98,97.36,22.94z"/>
	<path class="st0" d="M52.18,22.46c0.2-0.04,0.2-0.28,0.32-0.4c-0.28,0.12-0.04-0.04,0-0.16c-0.2,0.04-0.24,0.24-0.36,0.36
		C52.3,22.26,52.14,22.34,52.18,22.46z"/>
	<path class="st0" d="M97.04,16.4c-0.12,0,0-0.24-0.12-0.12C96.88,16.4,97,16.52,97.04,16.4z"/>
	<path class="st0" d="M75.61,17.12c0-0.08-0.04-0.12-0.08-0.12C75.52,17.12,75.56,17.16,75.61,17.12z"/>
	<path class="st0" d="M96,15.64c-0.04,0-0.08,0-0.08,0.04h0.04C95.97,15.68,95.97,15.68,96,15.64z"/>
	<path class="st0" d="M52.66,21.34h-0.04c-0.08,0.08-0.08,0.12,0,0.12C52.62,21.42,52.66,21.38,52.66,21.34z"/>
	<path class="st0" d="M82.14,15.17c0.04,0,0.08,0,0.08-0.04C82.18,15.13,82.14,15.13,82.14,15.17z"/>
	<path class="st0" d="M35.88,21.7c0.04-0.04,0.04-0.08,0.04-0.2h-0.04C35.84,21.54,35.76,21.7,35.88,21.7z"/>
	<path class="st0" d="M52.85,20.43c0.04,0,0.04-0.04,0.04-0.08C52.85,20.35,52.85,20.39,52.85,20.43z"/>
	<path class="st0" d="M52.54,20.74H52.5C52.5,20.86,52.54,20.86,52.54,20.74z"/>
	<path class="st0" d="M60.27,41c0,0.27,0.47,0.14,0.47-0.07C60.54,40.93,60.47,41.2,60.27,41z"/>
	<path class="st0" d="M28.83,18.35c0.12,0,0.16,0,0.16-0.04C28.87,18.31,28.83,18.31,28.83,18.35z"/>
	<path class="st0" d="M25.76,37.2v0.04c0.08,0.08,0.12,0.08,0.12,0C25.84,37.24,25.8,37.2,25.76,37.2z"/>
	<path class="st0" d="M50.82,17.36c-0.08,0-0.16,0.04-0.2,0.08h0.16C50.78,17.4,50.82,17.4,50.82,17.36z"/>
	<path class="st0" d="M40.62,10.62c-0.04,0-0.08,0-0.08,0.04C40.58,10.66,40.62,10.66,40.62,10.62z"/>
	<path class="st0" d="M52.82,41.95c-0.14,0-0.27,0.07-0.34,0.14c0.2,0.07,0.41,0.27,0.47,0C52.89,42.08,52.82,42.02,52.82,41.95z"/>
	<path class="st0" d="M31.14,18.04c-0.04,0.04-0.08,0.04-0.16,0.04C30.94,18.27,31.3,18.16,31.14,18.04z"/>
	<path class="st0" d="M56.27,41.68c0.14,0,0.2-0.07,0.2-0.14C56.34,41.54,56.27,41.61,56.27,41.68z"/>
	<path class="st0" d="M31.74,17.92c-0.12-0.04-0.28,0.08-0.28-0.04c0.76-0.16,1.35,0.08,2.03-0.4c0.16,0,0.32-0.04,0.48-0.08
		c-0.04-0.2-0.2-0.04-0.08-0.32c0.28-0.12,0.44-0.16,0.76-0.44c-0.12,0-0.16-0.04-0.16-0.08c0.16,0,0.24-0.04,0.24-0.08
		c-0.12,0.04-0.24-0.28-0.28-0.12c0.16,0.12-0.12,0.16,0,0c-0.12-0.04-0.32-0.04-0.36-0.16c0.2,0.04,0.28-0.04,0.32-0.16
		c-0.12,0-0.2,0-0.2-0.04c0.28-0.04-0.08,0-0.04-0.12c0.12-0.12,0.24-0.04,0.28-0.16c-3.51-0.12-7.17-0.36-11.04-0.08
		c-0.12,0.2-0.16,0.36-0.2,0.48c0,0.6,0.2,1.04,0.24,1.47c0.12,0.28,0.4,0.6,0.44,0.92c1.71-0.16,3.23-0.08,4.78-0.08
		c0.04-0.12-0.24-0.12-0.12-0.28c0.68-0.12,1.16,0.24,1.67-0.04c-0.12-0.16-0.44,0-0.48-0.04c0.28-0.2,1.08-0.16,1.39-0.04
		C31.26,17.88,31.58,18.08,31.74,17.92z M26.12,18.23c-0.16-0.12,0.12-0.12,0.12-0.16C26.4,18.19,26.12,18.19,26.12,18.23z
		 M26.36,18.23c0-0.12,0.2-0.04,0.32-0.08C26.56,18.27,26.52,18.19,26.36,18.23z M26.72,18.23c0-0.04,0.08-0.08,0.24-0.08
		C27,18.19,26.92,18.23,26.72,18.23z M28.07,18.23c-0.24,0.04-0.48,0.04-0.72-0.04c0,0.04-0.04,0.04-0.04,0.08
		c-0.12,0,0-0.12-0.12-0.08c0-0.12,0.12,0,0.16,0c0.2-0.04,0.48-0.08,0.76-0.04C28.11,18.19,27.95,18.19,28.07,18.23z M28.11,18.27
		c0-0.04,0.08-0.08,0.28-0.08C28.35,18.35,28.31,18.23,28.11,18.27z M29.27,17.92c0.12,0,0.12,0.12,0.32,0.08
		C29.59,18.04,29.23,18.08,29.27,17.92z"/>
	<rect x="57.56" y="41.27" class="st0" width="0.14" height="0.14"/>
	<path class="st0" d="M56.61,41.61c0.2-0.2,0.34,0.07,0.41-0.14C56.88,41.34,56.75,41.41,56.61,41.61z"/>
	<path class="st0" d="M63.09,20.71h-0.08c0,0.04-0.04,0.04-0.04,0.08c0.04,0,0.08,0.04,0.12,0.04V20.71z"/>
	<path class="st0" d="M62.89,21.1c-0.04,0.12,0.16,0,0.12-0.04h-0.08C62.89,21.06,62.89,21.06,62.89,21.1z"/>
	<path class="st0" d="M30.3,18.04c0,0.04-0.04,0.08-0.04,0.12c0.12,0,0.24-0.04,0.28-0.12C30.42,18.04,30.34,18.08,30.3,18.04z"/>
	<path class="st0" d="M62.78,21.74c-0.04,0-0.08,0-0.08,0.04C62.74,21.78,62.78,21.78,62.78,21.74z"/>
	<path class="st0" d="M63.05,20.43c0,0.12-0.08,0.08-0.08,0.2h0.16C63.13,20.51,63.09,20.47,63.05,20.43z"/>
	<path class="st0" d="M63.25,20.51c0.04,0,0.08,0.12,0.08,0C63.33,20.47,63.25,20.47,63.25,20.51z"/>
	<path class="st0" d="M54.05,19.03c-0.2,0.32-0.24,0.88-0.44,1.08c-0.04-0.04-0.08-0.08-0.12-0.08c-0.44,0.84-0.52,1.91-0.8,2.99
		c-0.12,0.04-0.16,0.12-0.2,0.16c0.04,0.32-0.04,0.72-0.08,1c0.12,0.32,0,1-0.04,1.51c0.12,1.67,2.11,2.03,3.55,2.15
		c0.52,0.04,1-0.08,1.43-0.44c0-0.12-0.04-0.24,0.08-0.2c0.12,0,0,0,0,0.12c0.48-0.12,0.68-0.52,1.04-0.8c0.44-0.64,1-1.08,1.2-1.91
		c0.28,0.04,0.2-0.28,0.4-0.32c0,1.75,2.07,2.23,3.83,2.11c0.16-0.12,0.28-0.2,0.48-0.24c0.12-0.32,0.48-0.32,0.68-0.52
		c0.04-0.12,0-0.12,0.04-0.28h0.12v-0.16c0.42-0.08,0.53-0.38,0.7-0.65c-0.01,0.24-0.03,0.47-0.03,0.73
		c0.12,0.2-0.24,0.64,0.16,0.64c0,0.12,0.04,0.2,0.12,0.24c-0.12-0.28,0.2,0,0,0c0.12,0.12,0.04,0.24,0.2,0.12
		c0.12,0.2-0.04,0.32,0.08,0.44c0.12-0.04,0.04-0.32,0.08-0.36c0.2,0.12-0.04,0.32,0.16,0.36c-0.04-0.12,0-0.24,0.08-0.28
		c0.04,0.2-0.04,0.32,0.08,0.36c0.04-0.04,0-0.2,0.12-0.2c0.16,0.28,0.44,0.44,0.8,0.56c0.04,0.36,0.68,0.08,0.84,0.4
		c0.36-0.44,0.44-1.16,0.64-1.79c0.44-2.67,1.59-4.9,2.83-6.97c-0.16,1.31-0.72,2.79-0.72,4.22c0,0.44-0.12,1.12,0.2,1.55
		c0.52,0.2,0.64,0.72,1.24,0.76c0,0.12,0.12,0.08,0.08,0.2c0.28-0.04,0.4,0.2,0.72,0.08c0.08,0.12,0.16,0.2,0.28,0.16
		c0.6-0.44,0.8-1.16,1.12-1.83c0.04-0.2,0.08-0.6,0.36-0.76c0.28-0.92,0.76-1.55,1.08-2.47c0,0.04,0,0.08,0.04,0.08
		c0.76-1.71,1.91-3.27,2.75-4.86c0.08,0,0.12,0,0.12,0.04c-0.68,1.87-1.16,3.95-1.83,5.82c-0.04,0.12,0.04,0.16,0.04,0.28
		c-0.32,0.68-0.32,1.63-0.64,2.23c-0.28,1.47-0.44,3.31-0.56,4.58c0.16,0.32,0.08,0.52,0.28,0.96c0.68,0.6,1.47,0.92,2.55,0.8
		c-0.04-0.12,0.08-0.04,0.08-0.16c-0.04,0-0.08,0-0.08-0.04c0.04,0,0.12-0.16,0.16-0.04c0.04-0.2,0.32-0.12,0.44-0.24
		c-0.12-0.04-0.12-0.16,0-0.16c-0.04,0.12,0.08,0.08,0.08,0.04c-0.04,0-0.04-0.04,0-0.04c0-0.04-0.08-0.04-0.08-0.08
		c0.12,0,0.12-0.12,0.24-0.16c0-0.04,0-0.04,0.04-0.04c0,0.04,0,0.04-0.04,0.04c0,0.16-0.16,0.12-0.12,0.24
		c0.04,0,0.04,0.04,0.04,0.08c0.28-0.12,0.16-0.44,0.44-0.6c0.12-0.12,0.44-0.08,0.48-0.36c-0.12-0.04,0,0.08-0.12,0.08
		c0,0.04-0.04,0.04-0.04,0c-0.04,0-0.08,0-0.08-0.04l0.28-0.32c-0.04,0-0.08,0-0.08-0.04c-0.24,0.24,0.12-0.36,0,0
		c0.04,0,0.08,0,0.08,0.04c0.12,0,0.04-0.16,0.16-0.12v0.12c0.16,0,0.12-0.16,0.24-0.2c-0.32,0,0.12-0.32-0.08-0.24
		c0,0.04-0.12,0.04,0,0c-0.04-0.12,0.12-0.08,0.08-0.2c-0.12-0.04-0.16,0.12-0.16,0c0.04-0.04,0.04-0.24,0.16-0.12
		c0-0.12-0.04-0.28,0.12-0.24c0,0.12,0.12,0.04,0,0.16c0.12-0.04,0.08,0,0.24,0c-0.04-0.12,0-0.28,0.12-0.4
		c0.08,0,0.12,0.04,0.12,0.08h0.04c0.12-0.16,0.04-0.2,0.08-0.36c-0.04,0.04-0.08,0.04-0.08,0c0.04-0.12,0.12-0.16,0.16-0.28
		c-0.12,0-0.12,0.04-0.16,0.04c0,0.04-0.12,0.04,0,0c-0.04-0.12,0.16-0.16,0.04-0.28c0,0.04-0.04,0.08-0.12,0.08
		c0.2-0.2,0.16-0.44,0.44-0.64c-0.12-0.12,0.16-0.36,0.2-0.24c0,0.16-0.08,0.12-0.2,0.24c0,0.16-0.2,0.24-0.08,0.36
		c-0.2,0-0.12,0.16-0.12,0.28c0.28-0.04,0.24-0.28,0.4-0.4v0.08c0.04,0,0.08-0.04,0.08-0.12c-0.12-0.12,0.08-0.2,0.08-0.32
		c0.04-0.04,0.2-0.28,0.2-0.08c0.08-0.04,0.12-0.08,0.12-0.2c-0.04,0.04-0.08,0.04-0.08,0c0-0.28,0.4-0.2,0.28-0.36
		c0,0.04-0.04,0.04-0.04,0h0.04c0-0.08,0-0.12,0.04-0.12c0-0.03,0.01-0.06,0.02-0.07c0,0.01,0.01,0.01,0.01,0.02
		c0,0.03-0.01,0.05-0.04,0.05v0.04c0.04,0,0.06-0.02,0.08-0.04c0.91,1.21,2.46,1.84,4.11,1.43c0.63-0.41,1.43-0.68,2.09-1.07
		c-0.03,0.07-0.06,0.12-0.09,0.2c-0.2,0.12-0.32,0.28-0.44,0.44c-0.04,0.6-0.16,0.8-0.28,1.39c0.04,0.44,0.32,0.84,0.64,1.12
		c0.76,0.12,1.83,0.56,2.63,0.2c0-0.6,0.48-0.76,0.96-1.2c0.16-0.12,0.28-0.32,0.4-0.44c0.48-0.44,1.04-0.6,1.47-0.96
		c0.6-0.28,1.28-0.48,1.75-0.92c0.36,0.12,0.36-0.24,0.64-0.12c0.04-0.12-0.12-0.04-0.08-0.16c0.36-0.16,0.92-0.2,1.04-0.48
		c0.44,0,0.64-0.12,0.92-0.24c-0.08,0-0.12-0.04-0.12-0.08c0.16,0,0.2,0.08,0.36,0.04c0.44-0.36,1.32-0.32,1.67-0.76
		c0.92-0.44,1.99-0.6,2.83-1.12c0-0.12-0.08-0.12-0.04-0.24c0.28,0.04,0-0.16,0.16-0.16c0.2,0,0.28-0.08,0.48-0.08
		c-0.04-0.2,0.12-0.16,0.24-0.32c0.12-0.16-0.12,0-0.12-0.12c0.04-0.12,0.28,0,0.24-0.16c-0.64-0.12-1.39,0.2-1.83,0
		c0-0.12,0.16,0,0.16-0.12c-1.75,0.32-3.83,0.8-5.62,1.44c0,0.08,0,0.12-0.04,0.12c-1.55,0.6-3.03,1.39-4.42,1.99
		c0-0.12,0.12-0.16,0.16-0.28c0.04,0.04,0.08,0.04,0.16,0.04c0.04-0.2,0.04-0.4,0.24-0.36c0.04-0.12-0.04-0.24,0.08-0.36
		c0.12,0,0.04,0.04,0.16,0.04c0.04-0.12-0.08-0.12-0.04-0.24c0.16-0.12,0.28-0.28,0.48-0.32c-0.04,0-0.04-0.04-0.04-0.12
		c0.12-0.04,0.12,0.04,0.24-0.08c0.12-0.12-0.12-0.16,0-0.2c0.12,0,0.08,0.04,0.12,0.04c0.04-0.16,0.12-0.28,0.12-0.4
		c0.16,0.04,0.16-0.04,0.28-0.16c-0.04-0.04-0.16,0-0.12-0.12c0.32,0,0.4-0.24,0.56-0.4c-0.08,0-0.12,0-0.12-0.04
		c0.16-0.12-0.04-0.2,0.24-0.24c0-0.08,0.04-0.12,0.08-0.12c0.12-0.12,0.08-0.28,0.28-0.16c0.04-0.12-0.04-0.08-0.04-0.2
		c0.32,0.12,0.4-0.28,0.6-0.4c0.04-0.12-0.12-0.04-0.08-0.16c0.16,0.12,0.32-0.12,0.28-0.24c0.32-0.2,0.6-0.44,0.88-0.8
		c-0.08,0-0.12,0-0.12-0.04c0.04-0.08,0.12-0.08,0.24-0.04c0.12-0.28,0.36-0.32,0.48-0.6c-0.12-0.04-0.12,0.12-0.16,0
		c0.12-0.04,0.16-0.32,0.28-0.2c-0.04,0.04-0.04,0.08,0.04,0.08c0.2-0.32,0.6-0.4,0.64-0.88c0.04,0.04,0.08,0.04,0.16,0.04
		c0.92-1.08,1.87-2.07,2.79-3.15c0.12,0.04,0.08-0.04,0.2-0.04c0.44-0.6,0.92-1.08,1.39-1.59h0.12c0-0.2,0.08-0.28,0.2-0.4
		c-0.2-0.28-0.28-0.52-0.32-0.8c-0.44-0.28-0.68-0.6-1.12-0.76c-0.04,0.12-0.24,0.24-0.36,0.36c-0.52-0.44-1.24-0.12-1.67-0.4
		c-0.12,0.12-0.2,0.04-0.32,0.16c-0.2,0-0.28-0.08-0.44-0.12c-1.55,0.32-2.95,0.12-4.34-0.16c-0.28,0.6,0.12,1,0.16,1.75
		c0.64,0.6,1.59,1.23,2.75,1.08c0.04,0.04,0.08,0.08,0.12,0.08c0.6,0,0.88,0.04,1.47,0.04l-2.71,2.79c0,0-0.04,0-0.12,0
		c-0.01,0.02-0.01,0.02-0.02,0.04c0.01-0.03,0.02-0.05,0.02-0.08c-0.08,0.04-0.16,0.08-0.2,0.04c-0.04,0.12-0.08,0.24-0.16,0.32
		c0.04-0.44,0.24-0.68,0.36-1.04c-0.12-0.04-0.16-0.12-0.16-0.24c-0.2-0.04-0.08,0.2-0.2,0.16c-0.16-0.2,0.08-0.36-0.04-0.64
		c-0.04,0.12,0,0.2-0.12,0.32c0,0.04-0.04,0.08-0.08,0.08c0-0.04,0.04-0.08,0.08-0.08c-0.04-0.12-0.12-0.12-0.16-0.24
		c-0.16,0.16,0,0.32-0.12,0.48c0-0.12,0-0.16-0.04-0.16c-0.04,0.2,0.12,0.48-0.16,0.6c-0.04-0.04-0.08-0.08-0.08-0.12h0.16
		c0.04-0.12-0.2-0.04-0.08-0.16c0.04-0.12,0.12,0.08,0.12-0.12c-0.04,0-0.04-0.04-0.08-0.04c-0.12,0.12-0.08,0.16-0.12,0.2
		c0,0.04-0.04,0.04-0.04,0h0.04v-0.16c-0.12-0.04-0.16,0.24-0.2,0.12c0-0.04,0.12-0.2,0-0.2c-0.12,0.16-0.12,0.32-0.28,0.36
		c-0.04,0.12,0.04,0.08,0.04,0.2c-0.28,0-0.16,0.6-0.44,0.48c-0.04,0.08-0.04,0.16,0,0.24c-0.2,0-0.28,0.28-0.48,0.24
		c0.12,0.28-0.24,0.6-0.44,0.76c-0.12-0.12,0.12-0.04,0.08-0.16c-0.2,0-0.16,0.24-0.28,0.36l-0.04-0.04h-0.04
		c-0.8,0.96-1.71,1.83-2.51,2.75c-1.63,1.32-2.87,2.91-5.06,3.63c-0.04-0.04-0.08-0.04-0.16-0.04c-0.44,0.2-1.12,0.2-1.55,0
		c-0.06-0.41-0.09-0.84-0.06-1.23c0.09-0.11,0.14-0.25,0.23-0.36h-0.08c0,0.08-0.06,0.07-0.1,0.02c0-0.03,0.01-0.05,0.01-0.08
		c0.03,0.02,0.06,0.06,0.09,0.06c0.12-0.12,0,0-0.04-0.12c0.04-0.12,0.2-0.08,0.16-0.28c0.04,0,0.04,0.04,0.08,0.04
		c0.05-0.07,0.05-0.17,0.05-0.26c0.11,0.07,0.22,0.14,0.31,0.22c1.91-0.12,2.67-1.59,3.87-2.59c1.31-1.71,2.59-3.31,3.67-5.34
		c0-0.12-0.08,0-0.08-0.12c0.36-0.36,0.48-1.04,0.44-1.55c-0.36-0.48-0.64-1.32-1.23-1.59c-0.28,0.04-0.28-0.12-0.44-0.12
		c-0.12,0.12,0.2,0.12,0.08,0.16c-0.52-0.28-1,0.2-1.35,0.4c-0.2,0.12-0.52,0.12-0.56,0.32c-0.44,0.2-0.8,0.32-1,0.76
		c-0.04,0-0.08-0.04-0.12-0.04c-0.76,0.76-1.63,1.28-2.15,2.23c-0.44,0.28-0.64,0.64-0.92,1.08c-0.12-0.12-0.16,0.04-0.28,0.04
		c-0.52,0.92-1.08,1.71-1.55,2.63c0.04,0.28-0.12,0.52-0.28,0.64c-0.04,0.2-0.04,0.32,0,0.36c-0.32,0.59-0.71,1.89-0.68,2.73
		c-0.01,0.02-0.03,0.03-0.04,0.06c0.04,0,0.04,0.12,0,0c-0.28,0.36-0.52,0.88-0.72,1.08c0.04,0,0.08,0.04,0.08,0.12
		c-0.04,0-0.08-0.04-0.08-0.12c-0.04,0-0.04,0.04-0.04,0.16c0.04,0,0.04,0.04,0,0.04c-0.12,0.04-0.04,0.2-0.16,0.08v0.16
		c-0.04-0.04-0.08-0.04-0.12,0.04c-0.76,0.96-1.36,2.15-2.19,3.15v-0.68c-0.04,0-0.12-0.04-0.16-0.08c0.16-0.16,0.16-0.56,0.16-1.08
		c0.12,0,0.12-0.04,0.16-0.04c0.12-0.44,0-0.8,0.28-1.16c0.04-0.12-0.08-0.08-0.08-0.2c0.12-0.04,0.12-0.08,0.04-0.16
		c0.2-0.16,0.2-0.44,0.16-0.64c0.08-0.08,0.12-0.12,0.16-0.12c0.04-0.36,0.08-0.88,0.28-1.16c-0.04,0-0.08-0.04-0.08-0.16
		c0.28-0.28,0.2-0.88,0.48-1.19c-0.04,0-0.04-0.04-0.04-0.08c0.16-0.16,0.16-0.36,0.28-0.64c-0.12-0.04-0.08-0.12-0.2-0.16
		c0.12-0.04,0.08,0.08,0.2,0.08c0.28-0.84,0.4-1.47,0.6-2.27c-0.12-0.04-0.08-0.36,0.04-0.4c0.04,0.16-0.16,0.28,0,0.32l0.36-1.28
		c0.12,0,0.04-0.12,0.16-0.12c-0.04-0.2,0.16-0.32,0.04-0.44c-0.16,0,0.04,0.12-0.16,0.08c0.12-0.04-0.04-0.24,0.08-0.28
		c0.04,0,0.04,0.2,0.16,0.08c-0.12-0.04,0.16-0.08,0.04-0.2c-0.04-0.12-0.12,0-0.16-0.12c0.16,0,0,0,0.04-0.12h0.12
		c0-0.12-0.04-0.12-0.04-0.16c-0.04,0-0.04-0.04,0-0.04v-0.08c0.12,0.04,0.08-0.12,0.2-0.08c-0.04-0.16,0.12-0.28-0.04-0.32
		c0,0.2-0.04,0.32-0.16,0.32c0.12-0.12-0.04-0.44,0.24-0.44c-0.04,0.04-0.04,0.08,0.04,0.08c0.16-0.76,0.4-1.55,0.28-2.55
		c-0.12,0-0.04,0.04-0.16,0.04c-0.2-0.48-0.48-0.92-1-1.08v-0.12c-0.2,0-0.28,0-0.32,0.04c-0.84-0.6-1.71,0.28-1.99,0.96
		c-0.28-0.12-0.36,0.24-0.48,0.4c0.04,0,0.04,0.12,0,0c-0.16,0.2-0.48,0.52-0.52,0.72c0.04-0.08,0.08-0.12,0.2-0.12
		c0.04,0.12-0.04,0.24-0.2,0.28c-0.04,0.16,0.12,0.12,0.12,0.24c-0.12,0-0.04,0.16-0.16,0.12c-0.04-0.12,0.12-0.16,0-0.2
		c-0.12,0.16-0.16,0.28-0.44,0.16c-0.04,0.12,0.12,0.12,0,0.16c0,0.04-0.12,0.04,0,0v-0.04c-0.12,0.04-0.2,0.12-0.24,0.32
		c0.12,0-0.04,0.16,0,0c-0.28,0.16-0.36,0.52-0.52,0.8c0.16,0.04,0.2-0.4,0.32-0.12c-0.16,0-0.12,0.2-0.24,0.32
		c0.16,0,0.12-0.2,0.24-0.24c0,0.04,0.12-0.04,0.12,0.08c-0.12,0.12-0.16,0.2-0.2,0.28c-0.32,0.6-0.64,1.2-1.08,1.71
		c-0.04,0.28-0.2,0.44-0.32,0.64c0-0.12,0-0.16-0.04-0.16c-0.04,0.12-0.24,0-0.24,0.28c0.12,0.04,0.2-0.12,0.24,0
		c-0.16,0.2-0.16,0.52-0.44,0.68c-0.04-0.2,0.08-0.24,0.08-0.4c-0.04,0.04-0.08,0.04-0.16,0.04c0-0.12-0.08-0.2,0.04-0.24
		c0.08,0.08,0.12,0.12,0.08,0.12c0.04-0.12,0.08-0.36,0.04-0.48c-0.04,0.12-0.12,0.08-0.24,0.2c-0.04-0.12,0-0.28,0.12-0.44
		c0.04,0.04,0.08,0.08,0.12,0.08c0.12-0.52,0.24-0.88,0.36-1.47c-0.04-0.12-0.08,0.08-0.12-0.04c0.04-0.12,0.12-0.2,0.16-0.2
		c0.04-0.12-0.08,0-0.08-0.12c0.44-0.32,0.08-1,0.32-1.47c-0.12,0-0.2-0.2-0.36-0.16c-0.28-0.68-0.76-1.08-1.43-1.16
		c0-0.12-0.12-0.04-0.08-0.16c-0.12,0.12-0.08,0.12-0.2-0.04c-0.6,0.28-1.12,0.52-1.39,1.12h-0.16v0.16
		c-0.76,0.48-0.92,1.39-1.55,1.99c0.2-0.64,0.2-1.39,0.48-2.03c-0.16-0.28-0.56-0.8-0.92-0.84c-0.36-0.4-0.88-0.6-1.55-0.6
		c-0.36,0.12-0.44,0.48-0.6,0.76c0.04,0.04,0,0.12,0.12,0.16c-0.13,1.84-0.69,3.67-1.2,5.54c-0.42,0.68-0.84,1.35-1.35,1.99
		c0,0.12,0.08,0.08,0.04,0.2c-0.12,0.12-0.04,0-0.16,0c0.04,0.36-0.44,0.44-0.4,0.92c-0.12,0-0.12,0.04-0.16,0.04
		c-0.6,1.08-1.32,1.95-2.23,2.59c-0.44-0.64-0.08-1.55-0.28-2.23c-0.12,0-0.2-0.04-0.2-0.08c0.16-0.28,0.08-0.88,0.4-0.84
		c-0.04-0.04,0.08-0.2-0.04-0.2c0,0.12-0.04,0.2-0.16,0.16c0.12-0.2-0.12-0.56,0.32-0.44v-0.32c-0.12,0-0.12,0.08-0.16-0.04
		c0.12-0.28,0.4-0.32,0.52-0.44c0,0.16,0.04,0.12,0,0.24c0.16-0.04,0.2-0.28,0.16-0.44c-0.16,0.12-0.2,0.08-0.36,0.04
		c0.12-0.12,0.24-0.2,0.44-0.2c0.12-0.32,0.08-0.36,0.2-0.64c-0.04-0.04-0.04-0.08-0.04-0.12c0.16-0.52,0.4-1.08,0.44-1.67
		c0.6-1.16,0.6-2.67,0.96-3.59c-0.08-0.2-0.24-0.36-0.44-0.44c-0.12-0.44-0.6-0.48-0.88-0.76c-0.16,0.12-0.12,0.04-0.4,0.04
		c-0.12,0.52-0.52,0.76-0.52,1.28c-0.2,0.04-0.24,0.16-0.16,0.28c-0.36,0.12-0.28,0.68-0.64,0.8c0.12-0.6,0.44-1.2,0.56-2.03
		c-0.16,0,0.04-0.08,0-0.2c-0.04-0.16-0.24-0.2-0.44-0.36c-0.12-0.12-0.12-0.24-0.24-0.36c-0.32-0.32-0.8-0.44-1.08-0.6
		c-0.12-0.04-0.08,0.04-0.2,0.04c-0.08-0.08-0.12-0.12-0.12-0.08c-0.6-0.04-0.84,0.44-1.35,0.6c-0.64,0.68-1.47,1.19-1.95,2.03
		c0.04,0,0.08,0.04,0.08,0.08c-0.48,0.6-0.96,1.2-1.39,1.79c-0.04,0.16-0.12,0.24-0.2,0.28c-0.32,0.6-0.68,1.16-1,1.79
		c-0.04-0.04-0.12-0.04-0.16,0v0.12c0.04,0,0.04,0.08,0,0.08c0,0.28-0.16,0.4-0.28,0.56c-0.12,0-0.04-0.12-0.16-0.08
		c-0.04,0.28-0.12,0.32-0.24,0.6C53.93,18.99,54.05,18.91,54.05,19.03z M53.41,20.55c0-0.04,0.04-0.04,0.08-0.04
		C53.49,20.55,53.45,20.55,53.41,20.55z M96.48,16.72c0,0.04,0,0.04-0.04,0.04H96.4C96.4,16.72,96.44,16.72,96.48,16.72z
		 M96.36,17.42c0,0-0.01,0-0.01,0.01c0-0.01,0-0.02,0.01-0.03C96.36,17.4,96.36,17.41,96.36,17.42z M96.12,16
		c0.12-0.04,0.04,0.04,0.08,0.16C96.08,16.16,96.08,16.12,96.12,16z M95.57,17.16c-0.04,0.12-0.04,0-0.08,0
		C95.49,17.12,95.57,17.12,95.57,17.16z M95.33,17.48c0,0.08-0.04,0.12-0.12,0.12C95.25,17.56,95.21,17.44,95.33,17.48z M95.21,16.8
		c0,0,0,0.04,0,0.12C95.17,16.88,95.17,16.84,95.21,16.8z M94.85,17.48c0.04-0.2,0.12-0.28,0.24-0.48
		C95.21,17.16,94.97,17.36,94.85,17.48C94.85,17.52,94.73,17.52,94.85,17.48z M94.25,18.19c0,0,0.04,0,0.08,0.04
		c-0.04,0.04-0.04,0.04-0.04,0.08c-0.04,0-0.04-0.04-0.08-0.04C94.21,18.23,94.25,18.23,94.25,18.19z M80.94,28.12
		c0-0.04,0.04-0.08,0.12-0.08C81.06,28.08,81.02,28.12,80.94,28.12z M81.06,28c0-0.12,0.08-0.16,0.12-0.28
		C81.26,27.8,81.22,27.88,81.06,28z M81.26,27.28c-0.12,0.04-0.08,0.12-0.2,0.12c0.12-0.12,0.08-0.2,0.2-0.32
		C81.42,27.12,81.1,27.24,81.26,27.28z M81.38,27.76c-0.12-0.16,0.12,0,0.12-0.12C81.62,27.68,81.5,27.76,81.38,27.76z M81.46,26.24
		C81.46,26.28,81.34,26.28,81.46,26.24C81.42,26.09,81.58,26.24,81.46,26.24z M81.58,26.56c0-0.04,0.04-0.04,0.16-0.04
		C81.74,26.64,81.62,26.6,81.58,26.56z M81.74,27C81.74,26.84,81.9,27,81.74,27C81.78,27.16,81.62,27,81.74,27z M81.86,27.44
		c0,0.04-0.08,0.04-0.08,0.08c-0.04,0-0.04,0-0.04-0.04V27.4C81.78,27.4,81.74,27.44,81.86,27.44z M82.02,26.12
		C82.06,26.12,82.06,26.24,82.02,26.12c-0.12,0,0.04,0.24-0.12,0.12c-0.04,0.12-0.12,0.32-0.24,0.2c0.08-0.04,0.16-0.2,0.2-0.4h0.04
		c0.04,0.2,0.04-0.08,0.16-0.04C82.06,26.04,82.02,26.01,82.02,26.12z M82.34,25.53c0-0.04,0.04-0.04,0.08-0.04
		C82.42,25.53,82.38,25.53,82.34,25.53z M82.42,24.85c-0.12,0.04,0,0.24-0.16,0.2c-0.04-0.12,0-0.12-0.04-0.28
		c0.12,0,0.12,0.08,0.16-0.04c0.04,0,0.04,0.04,0.08,0.04c0-0.16,0,0,0.12,0c0,0.08-0.04,0.08-0.12,0v0.12
		C82.42,24.89,82.42,24.89,82.42,24.85z M83.73,22.66c0,0.04-0.12,0.16-0.12,0.04C83.65,22.7,83.61,22.66,83.73,22.66z M83.65,23.65
		c-0.04,0-0.04-0.04,0-0.04V23.65z M83.77,23.3c0-0.04,0-0.08,0.04-0.08C83.81,23.26,83.81,23.3,83.77,23.3z M84.05,22.46
		c0,0.04,0,0.04-0.04,0.04C84.01,22.46,84.01,22.46,84.05,22.46z M83.34,23.37v-0.04C83.37,23.34,83.37,23.37,83.34,23.37z
		 M83.93,21.14c0-0.04,0.04-0.08,0.08-0.08C84.01,21.1,83.97,21.14,83.93,21.14z M83.02,22.66c0-0.04,0.04-0.08,0.08-0.08
		C83.1,22.62,83.06,22.66,83.02,22.66z M82.88,24.77c-0.01,0.01-0.02,0.03-0.02,0.04c-0.1,0-0.08-0.09-0.03-0.13
		C82.84,24.71,82.86,24.74,82.88,24.77z M82.74,24.97c-0.12,0.04-0.04,0.16-0.16,0.16C82.58,25.01,82.62,24.97,82.74,24.97z
		 M82.46,24.49c-0.04-0.12,0.08-0.04,0.08-0.16c0.12,0,0.04,0.12,0.16,0.08C82.7,24.57,82.58,24.53,82.46,24.49z M82.46,23.85
		C82.5,24.01,82.34,23.85,82.46,23.85C82.46,23.73,82.62,23.89,82.46,23.85z M82.46,26.36c-0.12,0.16-0.16-0.08-0.04-0.12
		C82.54,26.24,82.34,26.36,82.46,26.36z M82.54,25.25h-0.08c0-0.04,0.04-0.08,0.04-0.12c0.04,0,0.04,0.08,0.08,0.08
		C82.58,25.25,82.58,25.25,82.54,25.25z M82.78,25.77c-0.12,0-0.04-0.16,0.08-0.12C82.86,25.69,82.78,25.73,82.78,25.77z
		 M83.06,25.17c-0.2,0.12-0.24,0.4-0.4,0.56c0-0.04-0.08-0.04-0.08-0.08c0.2,0,0.16-0.2,0.2-0.36h-0.04c0,0.04-0.04,0.16-0.04,0.04
		c0-0.04,0-0.04,0.04-0.04c0-0.04,0.04-0.04,0.04,0h0.04c0-0.04-0.04-0.08-0.08-0.12h0.2c0.02-0.07,0.04-0.11,0.07-0.16
		c0.03,0.05,0.06,0.1,0.09,0.14C83.09,25.16,83.08,25.17,83.06,25.17z M83.97,24.05c0-0.04,0.04-0.08,0.08-0.08
		C84.05,24.01,84.01,24.05,83.97,24.05z M84.33,23.49c-0.01,0-0.01,0-0.02,0c0-0.03,0.01-0.06,0.01-0.09
		C84.33,23.43,84.33,23.46,84.33,23.49z M84.49,22.78c0,0,0.04-0.04,0.08-0.16C84.69,22.62,84.61,22.82,84.49,22.78z M86.34,19.77
		c0.01-0.01,0.02-0.02,0.03-0.03C86.37,19.75,86.35,19.76,86.34,19.77z M88.51,15.25c0,0.04,0,0.04-0.04,0.04h-0.04
		C88.43,15.25,88.47,15.25,88.51,15.25z M90.67,13.69c0.12,0.16-0.28,0.36-0.24,0.64c-1.27,1.68-2.53,3.37-4.04,4.81
		c0.01-0.01,0.01-0.02,0.02-0.03c-0.04,0-0.04,0-0.04-0.04c0-0.04,0.04-0.04,0.12-0.04c-0.12-0.24,0.44-0.56,0.36-0.76l-0.8,1.12
		c0,0,0.03,0,0.07,0c-0.02,0.02-0.04,0.04-0.06,0.06c-0.01-0.01-0.02-0.01-0.05-0.02c-0.03,0.03-0.04,0.06-0.04,0.1
		c-0.11,0.1-0.21,0.21-0.32,0.3c0,0,0,0,0,0c0.11-0.14,0.18-0.29,0.29-0.47c0-0.04,0-0.04,0.04-0.04c0.08-0.08,0.08-0.12,0-0.12
		c-0.02,0.07-0.04,0.07-0.08,0.07c0.01-0.03,0.02-0.06,0.04-0.09c0.01,0.01,0.03,0.02,0.04,0.02c0-0.03-0.01-0.06-0.02-0.08
		c0.14-0.25,0.34-0.47,0.46-0.71c0.01,0.01,0.02,0.03,0.04,0.03c0-0.15,0.14-0.2,0.05-0.34c0-0.01,0-0.01,0.01-0.02
		c0.08,0.01,0.12,0,0.13-0.04c0,0,0,0,0.01,0c0.03-0.04,0.06-0.08,0.09-0.12c0.01,0,0.01,0,0.03,0c0-0.02,0-0.03-0.01-0.04
		c0.07-0.11,0.15-0.21,0.23-0.32c0,0,0,0,0-0.01c0.06-0.08,0.11-0.16,0.17-0.24c0,0,0,0,0,0c0.01-0.01,0-0.02,0.01-0.02
		C88.18,15.91,89.34,14.71,90.67,13.69z M82.22,23.97c0-0.04,0.12-0.16,0-0.16c0-0.04,0.04-0.04,0.12-0.04c0-0.04-0.04,0-0.04-0.12
		c0.14,0.03,0.13-0.11,0.17-0.19c0.01,0.04,0.01,0.08,0.02,0.13C82.42,23.73,82.33,23.86,82.22,23.97
		C82.22,24.01,82.1,24.01,82.22,23.97z M82.18,24.09c-0.04,0.12-0.08,0.08-0.12,0.2c-0.12-0.16-0.08,0.04-0.2,0.04
		C81.9,24.21,81.98,24.13,82.18,24.09z M82.06,24.93c0.04,0,0.04,0.08,0.08,0.08c-0.04,0.04-0.12,0.08-0.16,0.08
		C81.98,24.97,82.1,25.05,82.06,24.93z M81.9,24.69C81.86,24.53,82.02,24.69,81.9,24.69C81.9,24.73,81.78,24.73,81.9,24.69z
		 M82.06,25.17c-0.04,0-0.08,0.04-0.08,0.08C81.86,25.25,82.06,25.05,82.06,25.17c0.08,0,0.12,0,0.12,0v-0.12
		c0.04,0,0.08,0.04,0.08,0.12h-0.08c-0.12,0.12-0.04,0.2-0.16,0.24c0,0.04-0.08,0.08-0.08,0.12c-0.12,0-0.04-0.16,0.08-0.12
		c0-0.04-0.04-0.04-0.04-0.08l-0.12,0.12C81.7,25.29,82.1,25.33,82.06,25.17z M81.78,25.73c0.04,0.16-0.08,0.12-0.08,0.24
		c-0.04-0.2,0.04-0.16-0.16-0.16C81.58,25.77,81.66,25.73,81.78,25.73z M81.54,25.33c0,0.04-0.08,0.08-0.08,0.12
		C81.34,25.45,81.42,25.29,81.54,25.33z M81.46,26.88c0,0.04-0.04,0.04-0.08,0.04C81.38,26.88,81.42,26.88,81.46,26.88z M81.46,27.4
		c0,0.16-0.2,0.44-0.24,0.16c0.12-0.04,0.16,0.04,0.2-0.12h-0.08C81.34,27.4,81.38,27.4,81.46,27.4z M81.22,26.32
		c0-0.04,0.04-0.08,0.12-0.08C81.34,26.28,81.3,26.32,81.22,26.32z M81.22,25.73C81.26,25.89,81.1,25.73,81.22,25.73
		C81.22,25.57,81.38,25.73,81.22,25.73z M81.22,25.49c0,0.12-0.12,0.12-0.12,0.24C80.98,25.69,81.1,25.53,81.22,25.49z M80.98,25.77
		c0.12,0,0.08,0.04,0.12,0.04C81.1,25.92,80.86,25.89,80.98,25.77z M81.06,26.56c0-0.04-0.04,0-0.04-0.12
		c0.04,0,0.08,0.04,0.12,0.04c0,0.04-0.04,0.04-0.04,0.08H81.06c0,0.12-0.08,0.16-0.12,0.28C80.82,26.72,80.94,26.6,81.06,26.56z
		 M80.9,27.6c0.16,0,0.04,0.16,0,0.2C80.79,27.76,80.94,27.72,80.9,27.6z M80.79,27.92C80.79,27.76,80.94,27.92,80.79,27.92
		c0,0.04,0,0.08-0.04,0.08c0,0.04-0.12,0.04,0,0C80.75,27.96,80.75,27.92,80.79,27.92z M80.71,27.44c-0.04,0.04-0.08,0-0.08-0.12
		C80.67,27.32,80.71,27.36,80.71,27.44z M80.63,28.08c0.12,0.04,0.04,0.04,0.04,0.16C80.59,28.2,80.59,28.12,80.63,28.08z
		 M80.47,28.36c-0.12-0.04,0-0.08,0-0.12C80.59,28.28,80.47,28.32,80.47,28.36z M80.43,26.68c0.12,0,0.04,0.16-0.08,0.12
		C80.35,26.76,80.43,26.72,80.43,26.68z M79.75,28.64C79.75,28.67,79.63,28.67,79.75,28.64C79.71,28.48,79.87,28.64,79.75,28.64z
		 M79.59,29.83c0,0.04-0.04,0.04-0.08,0.04C79.51,29.83,79.55,29.83,79.59,29.83z M78.87,26.52c0-0.04,0.04-0.04,0.08-0.04
		C78.95,26.52,78.91,26.52,78.87,26.52z M81.86,16.04c0,0.12,0.08,0.16-0.08,0.16c0,0.04,0.04,0.08,0.08,0.08
		c-0.12,0.12-0.24-0.08-0.08-0.08C81.66,16.16,81.74,16.04,81.86,16.04z M81.3,10.98c0.04,0,0.08,0.04,0.08,0.12
		c-0.12,0-0.08-0.04-0.12-0.04C81.26,11.02,81.3,11.02,81.3,10.98z M81.22,18.11c0,0.12-0.04,0-0.08,0
		C81.14,18.08,81.22,18.08,81.22,18.11z M81.1,17.68c-0.04,0-0.04,0-0.04,0.04c-0.04,0-0.04-0.04-0.04-0.12
		C81.06,17.6,81.1,17.64,81.1,17.68z M81.06,18.59c0.12,0.04,0.04,0.28-0.08,0.24C80.98,18.79,81.02,18.71,81.06,18.59z M80.9,18.95
		c0.04,0,0.04,0,0.04-0.04h0.08v0.12H80.9V18.95z M80.51,20.27C80.47,19.99,80.67,20.27,80.51,20.27
		C80.51,20.31,80.39,20.31,80.51,20.27z M80.31,20.94C80.35,21.1,80.19,20.94,80.31,20.94C80.27,20.79,80.43,20.94,80.31,20.94z
		 M80.23,21.14V21.1C80.43,21.06,80.03,21.34,80.23,21.14z M79.95,22.1c0.04,0,0.04,0.08,0.08,0.08c0,0.04-0.08,0.04-0.08,0.08
		C79.83,22.22,79.99,22.22,79.95,22.1z M79.83,22.62c0,0.12,0,0.2-0.04,0.24C79.67,22.82,79.79,22.62,79.83,22.62z M79.75,23.18
		c0,0.04-0.04,0.04-0.08,0.04C79.67,23.18,79.71,23.18,79.75,23.18z M79.39,15.01h0.08v0.08h-0.08V15.01z M79.43,15.37
		c-0.12,0.2,0.04,0.36-0.24,0.36C79.31,15.6,79.23,15.37,79.43,15.37z M79.07,15.64c0,0.04-0.04,0.04-0.08,0.04
		C78.99,15.64,79.03,15.64,79.07,15.64z M78.47,13.45c0-0.04,0.04-0.04,0.08-0.04C78.55,13.45,78.51,13.45,78.47,13.45z
		 M78.67,12.81c0-0.04,0-0.04-0.04-0.04c0-0.04,0.04-0.04,0.12-0.04C78.75,12.78,78.71,12.81,78.67,12.81z M78.47,12.74
		c0-0.04,0.04-0.04,0.04-0.08c0.04,0,0.04,0.04,0.08,0.04c-0.08-0.12-0.04-0.24,0.16-0.28c0-0.12,0.16,0.04,0,0
		c0.04,0.16-0.12,0.12-0.12,0.28h-0.04c0,0.04-0.04,0.04-0.04,0.08C78.51,12.78,78.51,12.74,78.47,12.74
		C78.51,13.01,78.35,12.86,78.47,12.74z M78.43,13.21c-0.04,0-0.04,0-0.04,0.04c-0.04,0-0.04-0.04-0.04-0.12
		C78.39,13.13,78.43,13.17,78.43,13.21z M77.96,13.81v0.16c-0.04,0-0.08-0.04-0.08-0.16H77.96z M77.96,15.8
		C78.07,15.84,78,16,77.88,16C77.88,15.88,77.96,15.92,77.96,15.8z M76.64,18.11C76.64,18.27,76.48,18.11,76.64,18.11
		C76.52,18,76.76,18,76.64,18.11z M76.96,19.31c0-0.04,0.04-0.04,0.08-0.04C77.04,19.31,77,19.31,76.96,19.31z M77,16.36
		c0.12,0,0.08,0.24-0.08,0.2C76.92,16.44,77.04,16.48,77,16.36z M77.04,18.91c0-0.04,0.08-0.04,0.08,0
		C77.12,19.03,77.08,18.91,77.04,18.91z M77.16,16.28c0-0.08,0-0.12-0.04-0.12c0.04-0.04,0.08-0.04,0.2-0.08
		C77.2,16.2,77.28,16.24,77.16,16.28C77.16,16.32,77.04,16.32,77.16,16.28z M77.24,18.59c-0.12-0.04,0.04-0.16,0.04-0.2
		c0.04,0,0.08,0.04,0.08,0.12C77.28,18.59,77.24,18.63,77.24,18.59z M77.36,17.56c-0.12,0-0.08-0.16,0.04-0.16
		C77.36,17.44,77.36,17.48,77.36,17.56z M77.28,16.84c0-0.04,0.04-0.04,0.12-0.04C77.4,16.84,77.36,16.84,77.28,16.84z M77.44,18.31
		c-0.04-0.28,0.08-0.36,0.2-0.48c0.12,0.04,0.04,0.12,0.08,0.24C77.44,17.92,77.64,18.27,77.44,18.31z M77.44,16.56
		c0.16-0.04,0.08-0.28,0.24-0.32C77.72,16.4,77.56,16.76,77.44,16.56z M77.76,15.21h0.08c0,0.04-0.04,0.08-0.12,0.08
		C77.72,15.25,77.76,15.25,77.76,15.21z M77.72,13.93c-0.04,0-0.04,0-0.04,0.04c-0.04,0-0.04-0.04-0.04-0.12
		C77.68,13.85,77.72,13.89,77.72,13.93z M77.6,15.25h0.08v0.08H77.6V15.25z M77.72,15.44c-0.12,0.12-0.12,0.28-0.28,0.32
		C77.48,15.56,77.6,15.49,77.72,15.44z M77.28,14.41c0.12-0.12,0.08-0.2,0.2-0.32C77.6,14.21,77.44,14.41,77.28,14.41z M77.32,14.53
		c0-0.04,0-0.04,0.04-0.04h0.08C77.56,14.61,77.28,14.69,77.32,14.53z M77.44,15.64c-0.04,0.04-0.08,0-0.08-0.12
		C77.4,15.53,77.44,15.56,77.44,15.64z M77.44,15.84c0,0.12-0.12,0.04-0.08,0.16C77.24,15.96,77.32,15.8,77.44,15.84z M77.08,15.72
		c0.04-0.12,0.12-0.16,0.2-0.16C77.24,15.68,77.24,15.76,77.08,15.72z M77.12,15.33h0.08v0.08h-0.08V15.33z M77.08,15.44
		c0.12,0.04,0,0.08,0,0.12C76.96,15.53,77.08,15.49,77.08,15.44z M77,15.84c0.12,0.04,0.04,0.2-0.08,0.16
		C76.88,15.88,77.04,15.96,77,15.84z M76.88,16.08c0.04,0,0.04,0,0.04-0.04H77v0.08c-0.04,0-0.04,0-0.04,0.04h-0.08V16.08z
		 M76.92,16.64c0.12,0.04,0,0.24-0.12,0.2c0-0.04,0-0.08-0.04-0.08C76.76,16.64,76.92,16.76,76.92,16.64z M76.8,17.6
		c0.04,0,0.08,0.08,0.12,0.08c-0.04,0.08-0.12,0.12-0.16,0.12C76.76,17.68,76.84,17.72,76.8,17.6z M76.6,17.24
		c0-0.08,0-0.12,0.04-0.16c0.12,0,0,0.12,0,0.16H76.6C76.6,17.28,76.48,17.28,76.6,17.24z M76.44,19.87
		c0.12,0.04,0.04,0.2-0.08,0.16C76.32,19.91,76.44,19.99,76.44,19.87z M76.28,17.6c0.16,0,0,0.08,0.04,0.2
		C76.2,17.76,76.28,17.72,76.28,17.6z M76.32,20.71c0,0.04-0.04,0.08-0.12,0.08C76.2,20.74,76.24,20.71,76.32,20.71z M76.08,17h0.12
		c-0.04,0.04,0,0.16-0.12,0.12V17z M75.88,21.02c0-0.04,0.04-0.04,0.08-0.04C75.96,21.02,75.92,21.02,75.88,21.02z M75.92,18.43
		c0,0.04-0.04,0.04-0.08,0.04C75.84,18.43,75.88,18.43,75.92,18.43z M75.68,21.3h0.08c0-0.12,0.04-0.04,0.04-0.16
		c0.12,0,0.08,0.2-0.04,0.16c0,0.04-0.04,0.08-0.08,0.08V21.3z M75.37,21.94c0-0.04,0.08-0.04,0.08,0c0.04,0,0.04,0,0.04,0.04
		c0.04,0,0.04,0.12,0,0c-0.04,0-0.04,0-0.04-0.04H75.37C75.37,21.98,75.25,21.98,75.37,21.94z M75.76,15.09
		c0,0.04-0.04,0.04-0.08,0.04C75.68,15.09,75.72,15.09,75.76,15.09z M74.93,22.98c-0.04-0.12,0.08-0.04,0.08-0.16
		C75.13,22.82,75.05,23.02,74.93,22.98z M74.93,20.19C75.09,20.15,74.93,20.31,74.93,20.19C74.77,20.23,74.93,20.07,74.93,20.19z
		 M75.01,18.59c0.04,0,0.08,0.04,0.08,0.12C75.05,18.71,75.01,18.67,75.01,18.59z M75.25,18.39c-0.08,0-0.12-0.04-0.12-0.16
		C75.21,18.23,75.25,18.27,75.25,18.39z M75.21,18.47c0,0.04-0.04,0.04-0.16,0.04C75.05,18.39,75.17,18.43,75.21,18.47z
		 M74.93,16.84c0.04,0,0.04,0,0.04-0.04c0.12,0,0.08,0.24-0.04,0.12V16.84z M74.85,17.36c0.04,0,0.04-0.04,0.04-0.08
		c0.08,0.04,0.08,0.08,0.04,0.12h-0.08V17.36z M74.89,18.95c0.12,0.04,0,0.08,0,0.12C74.77,19.03,74.89,18.99,74.89,18.95z
		 M75.01,23.02c-0.04,0.12-0.04,0.2-0.2,0.2C74.85,23.1,74.93,23.02,75.01,23.02z M74.61,20.79c0-0.04,0.04-0.04,0.08-0.04
		C74.69,20.79,74.65,20.79,74.61,20.79z M74.53,18.27c0-0.04,0.04-0.04,0.12-0.04c-0.04,0.16-0.04,0.36-0.2,0.4
		C74.45,18.51,74.65,18.39,74.53,18.27z M71.26,19.71c0,0.04-0.04,0.04-0.08,0.04C71.18,19.71,71.22,19.71,71.26,19.71z
		 M63.85,17.84c-0.04-0.12-0.2,0-0.16-0.12C63.81,17.72,63.89,17.76,63.85,17.84z M63.65,18.27c0,0.04-0.04,0.04-0.08,0.04
		C63.57,18.27,63.61,18.27,63.65,18.27z M63.49,18.95c0.12,0.08,0.16,0.16,0.04,0.2C63.41,19.11,63.49,19.07,63.49,18.95z
		 M62.5,23.81c-0.16-0.28-0.08-0.44-0.12-0.88C62.5,23.22,62.62,23.53,62.5,23.81z M62.38,22.38c0.16,0.04,0,0.16,0.04,0.32
		C62.3,22.66,62.42,22.5,62.38,22.38z M58.43,26.28c0-0.28,0.24-0.28,0.36-0.4C58.83,26.01,58.55,26.16,58.43,26.28z M58.79,25.85
		c-0.04-0.12,0.04-0.12-0.08-0.24c0.12,0,0.16,0,0.16-0.04C58.99,25.69,58.79,25.73,58.79,25.85z M59.99,24.09
		C59.87,24.09,60.03,23.93,59.99,24.09C60.03,24.09,60.03,24.21,59.99,24.09z M61.9,15.05c0.12,0,0.04-0.04,0.16-0.04
		c-0.04,0.12,0.04,0.16-0.08,0.2c0,0.04,0,0.08-0.04,0.12c-0.08-0.04-0.08-0.08-0.04-0.12h0.08C61.98,15.09,61.86,15.17,61.9,15.05z
		 M61.78,15.88c-0.12,0.04,0,0.2-0.12,0.16C61.66,15.92,61.7,15.88,61.78,15.88z M59.91,11.3h0.08v0.08h-0.08V11.3z M57.75,13.21
		c0-0.04,0-0.04,0.04-0.04C57.79,13.21,57.79,13.21,57.75,13.21c0,0.04,0,0.04-0.04,0.04C57.71,13.21,57.71,13.21,57.75,13.21z
		 M55.13,21.46h0.08v0.08h-0.08V21.46z M54.89,23.73c0.2-2.83,1.55-4.98,2.79-7.17c0.68-0.76,1.19-1.59,1.87-2.35
		c0.12,0.32-0.36,0.72-0.24,1.23c0.48,0.52,1.12,0.84,1.79,1.12c-0.04,0.28-0.04,0.6-0.32,0.72c0,0.12,0.08,0.16,0.04,0.28
		c-0.32,0.28-0.48,0.92-0.76,1.2c0.12,0.04,0.08,0.16,0.12,0.2c-0.24,0.2-0.36,0.4-0.4,0.6c-0.12,0.04-0.12,0.12-0.24,0.16
		c-0.04,0.36-0.36,0.4-0.36,0.84c-0.28,0.2-0.32,0.48-0.44,0.8c-1.28,1.71-2.03,3.94-4.07,4.9c0-0.52-0.12-1.39,0.08-1.83
		c0.04-0.12-0.08-0.08-0.12-0.12C54.85,24.13,54.73,23.89,54.89,23.73z M54.53,24.49c0.04,0,0.08,0.04,0.08,0.16
		C54.49,24.69,54.41,24.61,54.53,24.49z M54.49,24.93c0.12,0,0.08,0.04,0.12,0.04C54.61,25.09,54.37,25.05,54.49,24.93z"/>
	<path class="st0" d="M75.76,16.6c0.12,0,0.24-0.2,0.12-0.24C75.84,16.48,75.76,16.48,75.76,16.6z"/>
	<path class="st0" d="M41.34,33.66c0.08,0,0.16-0.04,0.2-0.12C41.42,33.54,41.38,33.58,41.34,33.66z"/>
	<path class="st0" d="M21.62,10.54v-0.08C21.58,10.46,21.58,10.54,21.62,10.54z"/>
	<path class="st0" d="M14.33,12.54c-0.12,0-0.12-0.16-0.12,0C14.29,12.62,14.33,12.62,14.33,12.54z"/>
	<path class="st0" d="M21.06,12.81c0.2-0.28,0.52-0.72,0.48-1L21.06,12.81z"/>
	<path class="st0" d="M27.79,40.59c-0.28,0-0.36-0.16-0.48-0.32c0.04,0,0.04,0.04,0.08,0.04c-0.12-0.28-0.32-0.24-0.44-0.52
		c0-0.12,0.16-0.04,0.12-0.16c-0.04-0.16-0.24-0.16-0.2-0.36c-0.28,0.16-0.36-0.16-0.52-0.28l0.16-0.32c-0.2-0.2-0.32-0.4-0.52-0.68
		c0.04-0.12,0.12-0.04,0.12-0.16c-0.12,0-0.16-0.04-0.16-0.08c-0.2-0.6-0.6-0.92-1.04-1.24c0-0.44-0.68-0.64-0.56-1.16
		c-0.12,0-0.16-0.04-0.16-0.08c0.04,0,0.08-0.04,0.08-0.08c-0.04,0-0.08-0.04-0.12-0.04c0,0.04-0.12,0.04,0,0
		c-0.08-0.24-0.2-0.44-0.36-0.6c0,0.04-0.12,0.04,0,0c0-0.12-0.04-0.08-0.04-0.12c-0.12-0.04-0.16,0.08-0.28-0.04
		c0-0.04,0.08-0.08,0.08-0.12c-0.2-0.08-0.28-0.24-0.2-0.52c-0.12-0.12-0.16,0-0.28-0.16c0.04-0.12,0.12,0.08,0.16-0.04
		c-0.2-0.04-0.08-0.16-0.2-0.28c0,0.08,0,0.12-0.04,0.12c-0.04-0.12-0.28-0.12-0.16-0.32c-0.12,0-0.16-0.04-0.16-0.08
		c0.16-0.2-0.2-0.44-0.32-0.64c-0.12-0.28,0.04-0.6-0.24-0.4c0.12-0.12-0.04-0.16-0.16-0.2c0-0.12,0.12,0,0.12-0.12
		c-0.04-0.04-0.16,0-0.16-0.12c0.08-0.08,0.12-0.12,0.12-0.08c-0.12-0.04-0.08-0.12-0.2-0.24c-0.32,0.2-0.16-0.68-0.36-0.88
		c-0.12-0.12-0.2,0-0.24-0.2c0.04-0.04,0.08-0.08,0.08-0.12h-0.08c0,0.04-0.12,0.04,0,0c0.04-0.2-0.08-0.2-0.08-0.36
		c-0.16,0.12-0.2-0.12-0.24-0.24c0.08,0,0.12-0.04,0.12-0.08H20.9c0.04-0.28-0.28-0.28-0.16-0.72c-0.12,0-0.12,0.08-0.16-0.04
		c0.04-0.44-0.24-0.88-0.44-1.2c0.04,0,0.04,0.04,0.08,0.04c-0.2-0.44-0.28-0.96-0.6-1.39c0.04,0.04,0.08,0.04,0.08-0.04
		c-0.16-0.32-0.16-0.8-0.48-0.96c0.16-0.16,0-0.44-0.12-0.56c0,0.04-0.04,0.08-0.12,0.08c-0.12-0.48-0.32-0.72-0.44-1.23
		c0.04-0.04,0.06-0.05,0.08-0.05c-0.16-0.17-0.42-0.34-0.32-0.75c-0.16-0.28-0.36-0.68-0.32-0.96c0.12,0.04,0.08,0.36,0.2,0.24
		c-0.16-0.28-0.2-0.56-0.36-0.84c-0.04,0.12,0.08,0.2-0.04,0.2c-0.28-0.28-0.24-0.8-0.52-1.24c0,0.12-0.12,0.12-0.12,0h0.12
		c-0.16-0.32-0.16-0.52-0.28-0.88c-0.12-0.04-0.04,0.12-0.16,0.08c-0.12-0.52-0.2-0.92-0.4-1.35c-0.12-0.12-0.08,0.16-0.12,0.04
		c0.2-0.28-0.08-0.4-0.2-0.56c-0.04,0-0.04-0.12,0-0.12v0.12h0.08C16.16,17,16.24,17,16.12,16.8c0.12-0.12,0.24-0.2,0.24-0.4
		c-0.2,0.04-0.16,0.28-0.36,0.32c0,0.04,0,0.08-0.04,0.08c-0.08-0.04-0.12-0.08-0.12-0.16c0.12-0.16,0.4-0.16,0.36-0.48
		c0.48-0.28,0.64-0.8,0.96-1.24c0.04,0.04,0.08,0.04,0.12,0.04c0.44-0.64,0.92-1.08,1.35-1.71c0.44-0.28,0.52-0.8,0.96-1
		c0.04-0.2,0.24-0.44,0.4-0.44c0,0.12-0.12,0.12-0.08,0.28c0.44-0.32,0.68-0.76,1.16-1.08c-0.28,0.2-0.32,0.52-0.36,0.8
		c0.2-0.16,0.16-0.56,0.44-0.68c-0.12-0.44,0.44-0.56,0.56-1c0.04,0.12-0.04,0.16-0.04,0.28c0.08,0,0.12,0.04,0.12,0.12
		c0,0.04-0.04,0.04-0.12,0.04c0.04,0.2,0.08,0.48-0.12,0.6V11.1c-0.12,0.04-0.24,0.2-0.12,0.24c0.08-0.12,0.12-0.12,0.16,0
		c0.12-0.2,0.16-0.4,0.32-0.56c0,0.44-0.32,0.52-0.36,0.96c0.44-0.12,0.44-0.84,0.8-1.12c-0.12-0.28,0.2-0.44,0.32-0.4
		c-0.2,0.2-0.32,0.48-0.4,0.84c0.08,0,0.12,0,0.12,0.04c-0.04,0.04-0.16,0.08-0.12-0.04h-0.04c0.04,0.36-0.44,0.6-0.28,0.88
		c0.12-0.28,0.2-0.6,0.48-0.76c0,0.04-0.12,0.16,0,0.16c0.2-0.52,0.44-1.08,0.72-1.39c0.28-0.84,0.88-1.32,1.08-2.23
		c0.12-0.8-0.12-1.67-0.8-2.03c0.04-0.12-0.04-0.12-0.08-0.24h-0.24c-0.04-0.04,0-0.16-0.12-0.12c-0.12-0.12-0.12,0.12-0.24,0
		c-1.28,0.84-2.19,2.07-3.11,3.31c-0.4,0.36-0.72,0.8-0.96,1.24c-0.04,0-0.08-0.04-0.12-0.04c-0.76,0.92-1.35,1.79-2.11,2.55
		c0.04,0,0.04,0.08,0,0.08v-0.08H16.4c0.04,0.28-0.28,0.24-0.12,0.36c-0.64,0.32-0.84,1.2-1.35,1.39c0.04-0.36-0.2-0.48-0.24-0.76
		c-0.12,0-0.04,0.24-0.24,0.12c0.12-0.12-0.12-0.24,0.16-0.24c-0.12-0.12-0.04-0.28-0.16-0.32c-0.04,0.12,0.12,0.2,0,0.24l-0.2-0.12
		c0.04-0.2-0.04-0.32-0.04-0.52c-0.28-0.12-0.36-0.48-0.52-0.76c-0.68-1.12-1-2.87-2.31-3.47c-0.12,0.16-0.32-0.08-0.48-0.08
		c-0.28,0.04-0.68,0.08-1.16,0.04c-0.32,0.32-0.76,0.44-1.04,0.8c0,0.28,0.12,0.44,0.08,0.72l0.44,0.48c0.36,0,0.56,0.48,0.84,0.68
		c0.04,0.52,0.6,0.8,0.64,1.43c0.44,0.52,0.64,1.47,1.08,2.15c0.28,0.76,0.64,1.55,0.96,2.31c-0.48,0.52-0.88,1.12-1.39,1.59
		c-0.6,1-1.47,1.55-1.95,2.63c-0.44,0.28-0.6,0.72-1.04,1c0,0.12-0.08,0.12-0.04,0.24c-1.71,1.79-2.99,3.95-4.7,5.74
		c0,0.2-0.12,0.28-0.16,0.44c0.16,0.16,0.16,0.32,0.44,0.28c0.32,0.64,1.35,0.76,2.15,0.8c0.6-0.52,0.96-1.16,1.39-1.83
		c0.44-0.4,0.8-0.88,1.08-1.39c1.16-1.39,2.07-2.91,3.39-4.14c0.52-1,1.28-1.71,1.95-2.55c0.28,0.28,0.2,0.72,0.48,1
		c0.04,0.36,0.36,0.96,0.48,1.47c0.32,0.28,0.28,0.92,0.56,1.28c0.28,0.92,0.6,1.75,1.04,2.59c-0.04,0.16,0.16,0.24,0.04,0.36
		c0.08,0,0.12,0,0.12,0.04c0,0.28,0.16,0.36,0.16,0.64c0.6,1.31,1,2.83,1.75,4.06c0.32,0.68,0.52,1.43,1,1.95
		c0.28,0.84,0.84,1.39,1.2,2.19c0.12,0.12,0.08-0.08,0.2,0.04c0,0.04-0.08,0.08-0.08,0.12c0.12,0.12,0.2,0.2,0.2,0.36
		c0.12,0.08,0.24,0.24,0.28,0.44l1.28,1.79c0.44,0.36,0.72,0.92,1.24,1.24v0.12c0.96,0.76,1.71,1.63,3.27,1.63
		c0.12,0.12,0.4,0,0.44,0.16c0.12-0.12,0.24-0.04,0.36-0.16C27.83,40.75,27.67,40.79,27.79,40.59z M22.57,10.03h0.08v0.08h-0.08
		V10.03z M21.94,10.5c0,0.12-0.04,0-0.08,0C21.86,10.46,21.94,10.46,21.94,10.5z M21.94,10.62c-0.04,0.12-0.12,0.08-0.16,0.2
		C21.66,10.78,21.78,10.58,21.94,10.62z M20.66,11.3c-0.04,0-0.04-0.04-0.04-0.12c0.04,0,0.08,0.04,0.08,0.08
		C20.66,11.26,20.66,11.26,20.66,11.3z M21.14,10.46c-0.12,0,0-0.12-0.12-0.12C21.06,10.23,21.18,10.34,21.14,10.46z M21.06,10.5
		c0.04,0.12-0.08,0.04-0.08,0.16c-0.04,0-0.04-0.08-0.08-0.08C20.94,10.54,21.02,10.5,21.06,10.5z M20.78,10.7
		c0.04,0,0.08,0.04,0.08,0.08c-0.28,0.32-0.48,0.76-0.76,0.96C20.22,11.3,20.62,11.14,20.78,10.7z M17.59,13.89
		c0,0.04-0.04,0.04-0.08,0.04C17.51,13.89,17.55,13.89,17.59,13.89z M17.31,13.61c0.04,0,0.04,0,0.04-0.04h0.04
		c0-0.04,0-0.04,0.04-0.04c0-0.04,0.04-0.08,0.08-0.08v0.08h-0.08c0,0.04,0,0.04-0.04,0.04c0,0.12-0.04,0.16-0.08,0.12V13.61z
		 M16.76,13.57c0.12,0.04,0,0.08,0,0.12C16.64,13.65,16.76,13.61,16.76,13.57z M11.14,22.54c-0.12,0-0.04-0.16,0.08-0.12
		C11.22,22.46,11.14,22.5,11.14,22.54z M11.77,21.7c0.12,0,0.08,0.04,0.12,0.04C11.89,21.86,11.66,21.82,11.77,21.7z M12.77,20.51
		v-0.08c0.04,0,0.04,0,0.04-0.04C12.93,20.39,12.89,20.63,12.77,20.51z M12.93,20.35c-0.12-0.12,0.04-0.2,0.16-0.2
		C13.05,20.27,12.97,20.23,12.93,20.35z M13.29,19.91c-0.04-0.2,0.16-0.16,0.16-0.32C13.61,19.71,13.41,19.87,13.29,19.91z
		 M14.76,13.73c-0.04,0-0.12-0.08-0.16-0.2C14.72,13.57,14.76,13.65,14.76,13.73z M14.68,13.93c0.12-0.12,0.2,0.2,0.2,0.32
		C14.68,14.29,14.8,13.97,14.68,13.93z M16.6,18.63c0-0.04,0.04-0.04,0.08-0.04C16.68,18.63,16.64,18.63,16.6,18.63z M17.23,20.23
		c0.12,0,0.08,0.04,0.12,0.04C17.35,20.39,17.11,20.35,17.23,20.23z M17.83,21.22c0.04,0,0.08,0.08,0.08,0.2
		C17.79,21.42,17.79,21.26,17.83,21.22z M18.19,22.82c0-0.04,0.04-0.04,0.08-0.04C18.27,22.82,18.23,22.82,18.19,22.82z
		 M19.43,25.45c0.04,0.04,0.08,0.12,0.08,0.16C19.39,25.65,19.31,25.57,19.43,25.45z"/>
	<path class="st0" d="M37.75,25.69c0.12,0,0,0.12,0.12,0.12c0-0.04,0.04-0.04,0.04-0.16C37.79,25.65,37.79,25.57,37.75,25.69z"/>
	<path class="st0" d="M38.27,33.66c0.2,0.16,0.44,0.32,0.72,0.2c0.6,0.28,1.24-0.04,1.99-0.16c0-0.28,0.44-0.2,0.72-0.2
		c0.04-0.2,0.24-0.24,0.4-0.36c0,0.08,0,0.12,0.04,0.12c0.04-0.2,0.36-0.12,0.48-0.24v-0.08c-0.04,0-0.08,0-0.08-0.04
		c0.04,0,0.08,0,0.08,0.04h0.16c0-0.04,0.08-0.08,0.08-0.12c0.52-0.2,0.76-0.68,1.23-0.96c0-0.2,0.04-0.32,0.16-0.32
		c-0.04,0.04-0.04,0.08-0.04,0.12c0.32-0.04,0.32-0.4,0.64-0.44c0.12-0.44,0.6-0.4,0.88-0.68c0.12-0.12,0-0.04,0-0.16
		c0.76-0.44,1.24-1.08,1.71-1.59l0.84-0.88c-0.04,0-0.08-0.04-0.08-0.16c0.28-0.04,0-0.32,0.28-0.44c0.04,0.12,0.16,0.12,0.04,0.24
		c0.44-0.16,0.48-0.68,0.76-0.8c-0.04-0.16,0.04-0.4,0.24-0.44c-0.04-0.04-0.04-0.08,0.04-0.16c-0.08,0-0.12,0-0.12-0.04
		c0.12-0.16,0.16-0.08,0.32-0.04c0.04-0.04,0.04-0.12,0-0.2c0.04,0.04,0.16,0.08,0.16-0.04c-0.08-0.08-0.12-0.12-0.12-0.08
		c0.12-0.12,0.12-0.44,0.4-0.28c0.12-0.28,0.12-0.56,0.4-0.68c0.12-0.04-0.04,0.2,0.08,0.16c0-0.04,0.04-0.08,0.08-0.08
		c0.16-0.16-0.04-0.6,0.24-0.48c-0.12-0.16,0.12-0.16-0.04-0.28c0.16,0.04,0.08-0.24,0.28-0.12c-0.04-0.12,0.08-0.12,0.04-0.24
		c0.12,0.04,0.12-0.08,0.24-0.04c-0.04-0.28,0.12-0.32,0.28-0.28c-0.2-0.44,0.44-0.6,0.32-0.92c-0.12,0-0.12,0.12-0.12,0
		c0-0.12,0.24-0.16,0.04-0.16h-0.04c0,0.04-0.04,0.08-0.08,0.08c0-0.04,0.04-0.08,0.08-0.08c0.12-0.36,0.36-0.56,0.56-0.84
		c-0.12-0.04-0.04-0.04-0.04-0.16c-0.12,0-0.12,0.2-0.24,0.08c0.04-0.12,0.2-0.24,0.24-0.08c0.12-0.04,0.24-0.2,0.12-0.32
		c0,0.04-0.04,0.12-0.12,0.2c-0.12-0.12-0.2-0.2-0.16-0.4c0.12,0.04,0.04-0.12,0.16-0.12c0.12-0.28,0.2-0.32,0.32-0.48
		c0.04,0,0.08,0.04,0.08,0.08h0.08c0.12-0.12,0.12-0.2,0.24-0.32c0,0.04,0.04,0.08,0.08,0.08c0-0.12,0.08-0.08,0.04-0.2
		c-0.04,0-0.04-0.04-0.04-0.12c0.04,0,0.08,0,0.08,0.04c0.28-0.44,0.32-0.88,0.6-1.31c0-0.32-0.2-0.4-0.2-0.68
		c-0.52-0.2-0.6-1.04-1.28-1.04l-0.2-0.24c-0.28-0.04-0.24,0.08-0.52-0.04c-0.12,0.2-0.44,0.4-0.24,0.68
		c-0.32,0.04-0.44,0.24-0.76,0.24c0,0.04-0.2,0.16-0.16,0h-0.08c-0.76,0.32-1.55,0.76-2.39,0.8c-1.39,0.32-2.51,0.8-4.1,0.68
		c-0.16-0.2-0.48-0.32-0.44-0.6c-0.16,0-0.16-0.16-0.32-0.16c-1.04,0.84-0.72,2.39-0.12,3.27c2.47,0.44,4.7-0.36,6.81-1
		c-0.68,1.08-1.44,1.99-2.23,2.95c0.04,0.28-0.12,0.2-0.08,0.48c-1.08,1.39-2.55,2.51-3.63,4.07c0.04,0,0,0.2-0.04,0.24
		c-0.2-0.12-0.16,0.08-0.32-0.04c-0.04,0.2-0.48,0.32-0.32,0.44c-0.12,0.12-0.28,0.16-0.24,0.28c-0.12-0.12-0.12,0.12-0.24,0.12
		c-0.64,0.32-1.55,0.88-2.07,1.32c-0.12,0.04-0.12,0-0.28,0.04c-0.12,0.12,0.08,0.16-0.04,0.2c-0.12,0.04,0-0.08-0.12-0.08
		c-0.12,0.12-0.24,0.4-0.4,0.24c0,0.16-0.24,0.2-0.28,0.08c-0.12,0.12-0.16,0.2-0.28,0.24c0.12-0.16-0.16,0-0.28-0.04
		c-0.04,0.16,0.12-0.04,0.12,0.12c-0.16,0-0.2,0.08-0.32,0.08c0-0.04,0.16-0.12,0-0.12c-0.2,0,0,0.12-0.16,0.16
		c-0.2-0.12-0.28,0.12-0.48,0c0-0.28-0.4-0.32-0.4-0.68c0.2-0.48-0.32-1.28-0.12-1.75c-0.04-0.12-0.28-0.24-0.16-0.4
		c0.12-0.48,0.04-0.88,0.16-1.39c-0.12-0.04-0.16,0.16-0.2-0.12c0.12,0,0.16,0,0.2-0.04c0-0.12-0.16-0.16-0.04-0.28
		c-0.12-0.16,0.12-0.28,0.12-0.48c-0.32-0.12-0.2-0.48,0.08-0.6c0.12-0.48-0.08-0.76,0.2-1.12c-0.12-0.12,0-0.36-0.04-0.4
		c0,0.12-0.12,0-0.12-0.04c0.2-0.28,0.08-0.68,0.4-0.96c-0.12-0.12,0-0.24-0.12-0.36c0.16-0.32,0.56-0.76,0.4-1.2
		c0.12-0.48-0.04-1.04,0.48-1.16c-0.04-0.28,0.04-0.28-0.08-0.44c0.12-0.04,0.04,0.08,0.16,0.08c-0.04-0.16-0.08-0.16-0.08-0.32
		c0.12,0,0.12-0.12,0.24-0.16c-0.12-0.44,0.2-1,0.4-1.2c-0.12-0.04,0.04-0.44,0.2-0.56c-0.16-0.28,0.16-0.48,0.28-0.76
		c-0.12-0.44,0.48-0.92,0.36-1.28c0.44-0.36,0.36-1.04,0.8-1.35c0.16-0.6,0.6-0.92,0.76-1.55c-0.04-0.12-0.12,0.08-0.16-0.04
		c0.44-0.16,0.4-0.76,0.76-0.96c-0.04-0.16,0.2-0.32,0.2-0.6c0.44-0.16,0.68-0.52,0.52-0.96c0.12-0.32,0.4-0.68,0.68-0.72
		c0.12-0.6,0.68-1,0.88-1.63c0.84-0.8,1.55-1.67,2.47-2.43c0-0.12,0.08-0.08,0.08-0.2c0.88-0.44,1.23-1.31,2.39-1.51
		c0.12,0.2-0.04,0.44,0.12,0.72c-0.2,2.19-0.8,3.71-1.43,5.46c-0.28,0.36-0.48,0.96-0.84,1.08c0,0.28-0.16,0.28-0.16,0.48
		c-0.04,0.48,0.44,0.64,0.72,1.08c0.28,0.12,0.48,0.16,0.6,0.36c0.36,0.04,0.68,0.12,1.12,0.12c0.64-0.28,0.64-0.8,0.84-1.28
		c-0.04,0-0.08,0-0.08-0.04c0.28-0.84,0.56-1.95,0.92-2.79c-0.12-0.48,0.36-0.84,0.48-1.31c0.12-0.68-0.2-1.32,0.16-1.91
		c0.12-0.68,0.12-1.12,0.12-1.79c-0.28-1.08-1.12-1.67-2.11-2.11c-0.48-0.12-1.59-0.36-2.27,0.28v0.2c-0.32,0.04-0.4,0.28-0.6,0.4
		c-1.43,0.64-2.31,1.83-3.27,2.91L44.05,5.6c-0.28,0.48-0.56,0.96-1,1.16c0,0.16-0.16,0.16-0.04,0.28c-0.2-0.04-0.12,0.16-0.24,0.2
		c0.04,0,0.04,0.12,0,0c-0.32,0.68-0.92,1.04-1.2,1.79c-0.44,0.12-0.56,0.72-0.68,1.16h0.04c0-0.04,0.04-0.08,0.04,0.04
		c-0.04,0-0.08,0.08-0.08-0.04c-0.12,0,0,0.24-0.12,0.2c0,0.04-0.04,0.08-0.12,0.08c0.04,0.16,0.04,0.24-0.04,0.28
		c-0.04,0-0.08-0.04-0.08-0.08c-0.16,0.12-0.2,0.24-0.36,0.36c-0.32,0.84-1.16,1.71-1.31,2.71c-0.52,0.76-0.88,1.55-1.2,2.47
		c0.12,0.04,0.2,0.04,0.16,0.2c-0.12-0.04-0.08-0.12-0.2-0.12c-0.68,1.59-1.31,3.31-1.63,4.9c0.12-0.12,0.04-0.32,0.2-0.36
		c0.12,0.12-0.16,0.8-0.28,0.56v0.12c0.2,0.28,0.16,0.84-0.28,0.88c-0.12,0.52-0.32,0.92-0.28,1.39c0.04,0,0.04,0.08,0,0.08v-0.08
		c-0.32,0.44,0.28,0.76-0.12,1.04c0,0.2-0.04,0.36-0.08,0.4c0-0.2,0.04-0.36,0.08-0.4c0-0.16,0-0.28,0.04-0.36
		c-0.32,0.76-0.36,1.75-0.36,2.67c0,0.44-0.12,0.92-0.12,1.35c0,0.44,0.12,0.88,0.24,1.32C35.32,31.7,36.4,33.22,38.27,33.66z
		 M51.94,22.06c0.04,0,0.04,0,0.04-0.04h0.08v0.08c-0.04,0-0.04,0-0.04,0.04h-0.08V22.06z M51.78,22.86
		C51.78,22.74,51.94,22.9,51.78,22.86C51.78,22.9,51.66,22.9,51.78,22.86z M51.5,22.94h0.08v0.08H51.5V22.94z M50.78,24.53
		c0,0.2-0.08,0.28-0.24,0.24C50.54,24.61,50.62,24.53,50.78,24.53z M49.71,25.89c-0.04,0.04-0.12,0.08-0.16,0.08
		C49.55,25.81,49.59,25.89,49.71,25.89z M48.95,27.04c0,0.04-0.04,0.04-0.08,0.04C48.87,27.04,48.91,27.04,48.95,27.04z
		 M48.71,27.16c-0.04,0.04-0.04,0.08-0.04,0.12c-0.12,0-0.2-0.04-0.16-0.16C48.63,27.12,48.67,27.12,48.71,27.16z M48.19,27.56h0.08
		v0.08h-0.08V27.56z M47.32,28.48c0.04,0,0.04,0,0.04-0.04c0.08,0.04,0.08,0.08,0.04,0.12h-0.08V28.48z M46.8,29.27
		c0.12,0,0,0.12,0,0.16C46.68,29.39,46.84,29.39,46.8,29.27z M45.4,4.37c0.12,0.04,0,0.08,0,0.12C45.28,4.45,45.4,4.41,45.4,4.37z
		 M41.62,13.37c0.08,0.08,0.12,0.12,0.12,0.16c-0.12,0-0.08,0.08-0.2,0.08C41.5,13.49,41.58,13.49,41.62,13.37z M41.02,14.61
		c0,0.12-0.08,0.08-0.08,0.2C40.82,14.77,40.9,14.57,41.02,14.61z M40.78,15.17c-0.04,0.04,0.04,0.16-0.08,0.16
		c0.04,0.16-0.12,0,0,0C40.66,15.21,40.66,15.17,40.78,15.17z M38.07,24.25c-0.04,0-0.08-0.08-0.12-0.08
		C37.95,24.05,38.11,24.13,38.07,24.25z M37.91,16.28c0-0.08,0-0.12,0.04-0.16c0.12,0,0,0.12,0,0.16H37.91
		C37.91,16.32,37.79,16.32,37.91,16.28z M37.83,16.52c0,0.2-0.24,0.12-0.2-0.04C37.75,16.48,37.71,16.56,37.83,16.52z M35.92,22.42
		C35.88,22.26,36.04,22.42,35.92,22.42C35.96,22.58,35.8,22.42,35.92,22.42z M35.6,22.86C35.6,22.9,35.48,22.9,35.6,22.86
		C35.56,22.7,35.72,22.86,35.6,22.86z"/>
	<path class="st0" d="M40.5,33.97c0-0.12,0.16,0,0.2-0.12C40.58,33.82,40.38,33.85,40.5,33.97z"/>
	<path class="st0" d="M20.62,12.02c-0.04-0.12,0.12-0.08,0.08-0.2C20.58,11.82,20.5,11.98,20.62,12.02z"/>
	<path class="st0" d="M25.72,37.04c-0.12-0.04-0.08-0.12-0.2-0.16C25.52,37,25.6,37.16,25.72,37.04z"/>
	<path class="st0" d="M18.63,23.29c0.03,0.03,0.06,0.06,0.08,0.09C18.68,23.35,18.67,23.29,18.63,23.29z"/>
	<path class="st0" d="M18.99,24.25c0,0.12,0.04,0.2,0.12,0.24C19.07,24.37,19.11,24.25,18.99,24.25z"/>
	<path class="st0" d="M15.92,16.64c0,0.04,0.04,0.08,0.08,0.08v-0.08H15.92z"/>
	<path class="st0" d="M18.47,22.7c-0.04-0.16-0.04-0.36-0.2-0.4c0,0.12,0.08,0.12,0.04,0.24C18.43,22.54,18.31,22.74,18.47,22.7z"/>
	<path class="st0" d="M21.62,10.54c0,0.04,0,0.04,0.04,0.04C21.66,10.54,21.66,10.54,21.62,10.54z"/>
	<path class="st0" d="M18.47,22.78c0,0.12,0.04,0.16,0.08,0.12C18.55,22.82,18.51,22.78,18.47,22.78z"/>
	<path class="st0" d="M21.02,12.5c0-0.12,0.12-0.04,0.08-0.16C20.98,12.3,20.9,12.5,21.02,12.5z"/>
	<path class="st0" d="M24.88,36.13c0-0.08-0.04-0.12-0.08-0.12C24.81,36.09,24.85,36.13,24.88,36.13z"/>
	<path class="st0" d="M18.63,23.14c0.04-0.12-0.08-0.24-0.12-0.12C18.63,23.02,18.47,23.26,18.63,23.14z"/>
	<path class="st0" d="M53.33,19.91c0.04,0,0.04-0.04,0.04-0.08C53.33,19.83,53.33,19.87,53.33,19.91z"/>
	<path class="st0" d="M24.81,36.01c0-0.12-0.12-0.24-0.16-0.12C24.77,35.89,24.69,36.01,24.81,36.01z"/>
	<path class="st0" d="M18.91,23.85c-0.04-0.12,0-0.24-0.12-0.24C18.79,23.77,18.83,23.85,18.91,23.85z"/>
	<path class="st0" d="M19.03,24.13c0-0.08-0.04-0.12-0.08-0.12C18.95,24.09,18.99,24.13,19.03,24.13z"/>
	<path class="st0" d="M21.42,11.58c0.04,0,0.04-0.04,0.04-0.08C21.42,11.5,21.42,11.54,21.42,11.58z"/>
	<path class="st0" d="M21.3,11.74v-0.12h-0.04C21.3,11.74,21.14,11.74,21.3,11.74z"/>
	<path class="st0" d="M21.42,11.06c-0.08,0-0.16,0.08-0.2,0.2C21.38,11.3,21.38,11.18,21.42,11.06z"/>
	<path class="st0" d="M21.54,10.66c0,0.12-0.08,0.08-0.04,0.2C21.54,10.86,21.66,10.7,21.54,10.66z"/>
	<path class="st0" d="M19.59,12.42c-0.36,0.6-0.84,0.96-1.2,1.47c0.52-0.28,0.76-0.88,1.2-1.24C19.55,12.54,19.7,12.46,19.59,12.42z
		"/>
	<path class="st0" d="M67.72,40.59c-0.07,0.27,0.2,0.14,0.27,0.07v-0.07C67.79,40.59,67.92,40.8,67.72,40.59z"/>
	<path class="st0" d="M38.39,45.2c-0.2,0-0.14-0.07-0.2-0.07c0,0.07,0,0.14-0.07,0.14v0.07C38.19,45.33,38.32,45.27,38.39,45.2z"/>
	<path class="st0" d="M60.2,40.93c0.07,0,0.14,0,0.14-0.07C60.27,40.86,60.2,40.86,60.2,40.93z"/>
	<path class="st0" d="M47.74,43.1c0-0.07,0.27-0.14,0.07-0.2c0,0.07-0.07,0.07-0.14,0.07C47.67,43.03,47.67,43.1,47.74,43.1z"/>
	<path class="st0" d="M66.5,40.73c0.2,0,0.34-0.07,0.27-0.14C66.7,40.59,66.57,40.66,66.5,40.73z"/>
	<path class="st0" d="M60.07,40.93h0.07C60.13,40.86,60.07,40.86,60.07,40.93z"/>
	<path class="st0" d="M60.54,40.32h-0.14C60.41,40.39,60.54,40.39,60.54,40.32z"/>
	<path class="st0" d="M35.55,46.15h-0.07C35.48,46.22,35.55,46.22,35.55,46.15z"/>
	<path class="st0" d="M51.74,42.02c-0.07,0.2-0.27,0.14-0.34,0.34c0.2,0.2,0.54-0.07,0.75-0.14c0.07-0.2-0.14-0.14-0.2-0.2
		C51.94,42.29,51.8,42.08,51.74,42.02z"/>
	<path class="st0" d="M62.91,40.73c-0.07,0-0.07-0.07-0.14-0.07v0.14C62.84,40.8,62.91,40.8,62.91,40.73z"/>
	<path class="st0" d="M62.23,40.93c0-0.07,0.27,0.07,0.34-0.14C62.37,40.8,61.96,40.73,62.23,40.93z"/>
	<path class="st0" d="M62.91,40.73h0.07C62.98,40.66,62.91,40.66,62.91,40.73z"/>
	<path class="st0" d="M60.95,40.93c0-0.14,0-0.2-0.07-0.2C60.88,40.86,60.88,40.93,60.95,40.93z"/>
	<path class="st0" d="M54.72,41.75c-0.2,0-0.14,0.07-0.2,0.07v0.07C54.65,41.88,54.72,41.81,54.72,41.75z"/>
	<path class="st0" d="M61.08,41.2c0-0.07-0.07-0.2-0.14-0.27C60.95,41.14,61.02,41.27,61.08,41.2z"/>
	<path class="st0" d="M87.48,17.48c-0.12,0-0.04,0.16-0.16,0.2C87.44,17.68,87.44,17.6,87.48,17.48z"/>
	<path class="st0" d="M87.12,17.4v0.04C86.92,17.64,87.32,17.36,87.12,17.4z"/>
	<path class="st0" d="M81.67,43.71c-0.07,0.07-0.47,0-0.27,0.2c0,0,0.07,0,0.2,0C81.61,43.84,81.67,43.91,81.67,43.71z"/>
	<path class="st0" d="M87.36,17.28c-0.12-0.04,0,0.12-0.12,0.16C87.32,17.44,87.36,17.4,87.36,17.28z"/>
	<path class="st0" d="M87.56,17c-0.12,0-0.08,0.04-0.12,0.04v0.04C87.52,17.08,87.56,17.04,87.56,17z"/>
	<path class="st0" d="M85.06,42.76h-0.07v0.07C85.06,42.83,85.06,42.83,85.06,42.76z"/>
	<path class="st0" d="M64.67,40.53c0,0.34,0.07,0,0.27,0.2c0-0.07,0-0.14,0.07-0.14v-0.07C64.88,40.59,64.74,40.59,64.67,40.53z"/>
	<path class="st0" d="M80.05,40.19h0.07C80.12,40.12,80.05,40.12,80.05,40.19z"/>
	<path class="st0" d="M86.28,40.26c-0.07,0-0.07,0.07-0.14,0.07c0.2,0.2,0.2,0.27,0.27,0C86.35,40.32,86.28,40.32,86.28,40.26z"/>
	<path class="st0" d="M64.27,40.59h0.07v-0.07C64.27,40.53,64.27,40.53,64.27,40.59z"/>
	<path class="st0" d="M74.36,39.98c-0.07,0-0.07,0-0.07,0.07C74.36,40.05,74.36,40.05,74.36,39.98z"/>
	<path class="st0" d="M85.94,42.08c0.2-0.2,0-0.2-0.07-0.27c-0.27,0.07-0.27,0-0.47,0.07v0.14c0.07,0,0.07,0.2,0,0h-0.14
		c0,0.07,0,0.07-0.07,0.07c0,0.2-0.07,0.14-0.07,0.2c0.2,0.07,0-0.14,0.2-0.14c0,0.14,0,0.2,0.07,0.2c-0.07-0.27,0.2-0.2,0.41-0.2
		c0,0.14,0,0.2,0.07,0.2c0-0.2,0.41-0.14,0.2,0.07C86.28,42.35,86.14,42.02,85.94,42.08z M85.53,42.02c0-0.07,0.07-0.07,0.27-0.07
		C85.81,42.15,85.6,42.08,85.53,42.02z"/>
	<path class="st0" d="M85.94,41.75c-0.07,0-0.07,0-0.07,0.07C85.94,41.81,85.94,41.81,85.94,41.75z"/>
	<path class="st0" d="M85.26,42.02c0-0.07-0.07-0.14-0.14-0.14c0,0.07,0,0.07-0.07,0.07v0.14h0.14
		C85.2,42.02,85.2,42.02,85.26,42.02z"/>
	<path class="st0" d="M47.67,42.96v-0.14C47.6,42.83,47.6,42.96,47.67,42.96z"/>
	<path class="st0" d="M80.05,46.35c0.07,0,0.14,0,0.14-0.07C80.12,46.28,80.05,46.28,80.05,46.35z"/>
	<path class="st0" d="M79.1,40.32v0.14h0.2C79.3,40.39,79.24,40.32,79.1,40.32z"/>
	<path class="st0" d="M79.1,45.4c0-0.07-0.07-0.14-0.14-0.14c0,0.14,0,0.2,0.07,0.2C79.03,45.4,79.03,45.4,79.1,45.4z"/>
	<path class="st0" d="M80.12,45.54h-0.07c0,0.14,0.07,0.2,0.14,0.2C80.18,45.54,80.12,45.61,80.12,45.54z"/>
	<path class="st0" d="M80.12,46.22c0-0.07,0.2-0.14,0-0.2C80.12,46.08,79.91,46.15,80.12,46.22z"/>
	<path class="st0" d="M67.25,40.32h-0.07C66.98,40.53,67.31,40.59,67.25,40.32z"/>
	<path class="st0" d="M79.78,45.47c-0.2,0.2-0.47,0.14-0.81,0.34c0.34,0.27,0.68-0.47,0.95,0c-0.07-0.2,0.2-0.27,0-0.34
		C79.91,45.54,79.85,45.54,79.78,45.47z"/>
	<path class="st0" d="M80.32,45.88c-0.14,0.14-0.14,0.2,0,0.2C80.45,45.94,80.45,45.88,80.32,45.88z"/>
	<path class="st0" d="M78.42,45.2c-0.07,0.27-0.41,0.2-0.41,0.47c0.2,0,0.27,0,0.34,0.07c0.07-0.2-0.2-0.2,0-0.27l0.2,0.2v-0.14
		c0.07,0.07,0.14,0.07,0.27,0.07c-0.07-0.2,0.07-0.14,0.07-0.34C78.63,45.27,78.63,45.4,78.42,45.2z"/>
	<path class="st0" d="M79.71,46.22h0.07C79.78,46.15,79.71,46.15,79.71,46.22z"/>
	<path class="st0" d="M75.92,40.46c0.07,0,0.14,0,0.14-0.07C75.98,40.39,75.92,40.39,75.92,40.46z"/>
	<path class="st0" d="M77.41,40.46c0.14,0,0.2-0.07,0.2-0.14C77.47,40.32,77.41,40.39,77.41,40.46z"/>
	<path class="st0" d="M79.37,46.35c0.14,0,0.2-0.07,0.2-0.14C79.37,46.22,79.3,46.28,79.37,46.35z"/>
	<path class="st0" d="M79.78,46.49c0-0.07,0.2-0.27,0-0.27C79.85,46.42,79.57,46.42,79.78,46.49z"/>
	<path class="st0" d="M80.32,46.08v0.14c0.2,0,0.27-0.07,0.27-0.14C80.39,46.08,80.52,46.28,80.32,46.08z"/>
	<path class="st0" d="M82.28,40.39c0.07,0,0.07,0,0.07-0.07C82.28,40.32,82.28,40.32,82.28,40.39z"/>
	<path class="st0" d="M81.2,40.32c-0.02,0.04-0.04,0.06-0.06,0.08C81.16,40.4,81.18,40.38,81.2,40.32z"/>
	<path class="st0" d="M73.75,40.19c-0.14-0.07-0.2-0.07-0.27,0v0.07C73.68,40.26,73.75,40.26,73.75,40.19z"/>
	<path class="st0" d="M73.88,40.05h-0.07C73.82,40.12,73.88,40.12,73.88,40.05z"/>
	<path class="st0" d="M68.06,40.53c0,0.07,0,0.14-0.07,0.14c0.2,0.07,0.34,0.07,0.47-0.07C68.26,40.39,68.26,40.73,68.06,40.53z"/>
	<path class="st0" d="M87.4,17.04h0.04C87.44,17,87.4,17,87.4,17.04z"/>
	<path class="st0" d="M81.67,43.71h0.07C81.74,43.64,81.67,43.64,81.67,43.71z"/>
	<path class="st0" d="M86.14,41.61c-0.14,0-0.2,0.07-0.2,0.14c0.07,0,0.14,0,0.2-0.07V41.61z"/>
	<path class="st0" d="M86.89,41.41c-0.07,0-0.07,0-0.07,0.07C86.89,41.47,86.89,41.47,86.89,41.41z"/>
	<path class="st0" d="M85.94,40.39c0.2,0,0.14-0.07,0.2-0.07v-0.07C86.01,40.26,85.94,40.32,85.94,40.39z"/>
	<path class="st0" d="M79.57,44.66l0.41,0.07C80.05,44.52,79.57,44.59,79.57,44.66z"/>
	<path class="st0" d="M88.58,41.2c-0.07,0-0.07,0-0.07,0.07C88.58,41.27,88.58,41.27,88.58,41.2z"/>
	<path class="st0" d="M88.58,41.2h0.14C88.72,41.14,88.58,41.14,88.58,41.2z"/>
</g>
</svg>
