<svg width="42" height="32" viewBox="0 0 42 32" fill="none" xmlns="http://www.w3.org/2000/svg">
<path fill-rule="evenodd" clip-rule="evenodd" d="M41.2899 24.4916C40.4761 25.5134 38.4823 26.2423 38.4823 26.2423L23.6506 31.5442V27.6341L34.5657 23.7636C35.8044 23.322 35.9946 22.6976 34.9878 22.3699C33.9828 22.0412 32.1632 22.1354 30.9236 22.5789L23.6506 25.1282V21.0703L24.0698 20.929C24.0698 20.929 26.1714 20.1888 29.1266 19.863C32.0818 19.539 35.7003 19.9072 38.541 20.9789C41.7422 21.9856 42.1027 23.4698 41.2899 24.4916ZM25.0624 17.8335V7.83426C25.0624 6.65992 24.8448 5.57881 23.7376 5.27275C22.8898 5.00247 22.3637 5.78599 22.3637 6.95939V32L15.578 29.8566V0C18.4632 0.53302 22.6665 1.79306 24.9261 2.55115C30.6728 4.51466 32.6212 6.95845 32.6212 12.4647C32.6212 17.8317 29.2922 19.8658 25.0624 17.8335ZM3.12705 27.2254C-0.159321 26.3044 -0.706262 24.3852 0.791674 23.2796C2.17606 22.2587 4.53036 21.4903 4.53036 21.4903L14.2598 18.0473V21.9725L7.25844 24.4662C6.02168 24.9078 5.83148 25.5331 6.83641 25.8609C7.84229 26.1886 9.6629 26.0954 10.9016 25.6527L14.2598 24.4398V27.9515C14.0469 27.9892 13.8094 28.0268 13.5899 28.0636C10.2307 28.6098 6.65283 28.3819 3.12705 27.2254ZM39.1286 28.7802C39.5535 28.7802 39.9519 28.9441 40.2518 29.2464C40.5518 29.544 40.7174 29.9414 40.7174 30.3633C40.7174 30.7871 40.5518 31.1826 40.2518 31.4802C39.9519 31.7806 39.5535 31.9444 39.1286 31.9444C38.7037 31.9444 38.3063 31.7806 38.0054 31.4802C37.7054 31.1826 37.5408 30.7871 37.5408 30.3633C37.5408 29.4912 38.2524 28.7802 39.1286 28.7802ZM37.8076 30.3633C37.8076 30.7145 37.9448 31.0451 38.1947 31.2918C38.4435 31.5423 38.7766 31.6779 39.1286 31.6779C39.8582 31.6779 40.4496 31.0884 40.4496 30.3633C40.4496 30.0111 40.3133 29.6805 40.0626 29.4328C39.8137 29.1823 39.4806 29.0477 39.1286 29.0477C38.7766 29.0477 38.4435 29.1823 38.1947 29.4328C37.9448 29.6805 37.8076 30.0111 37.8076 30.3633ZM39.6084 29.511C39.7825 29.5873 39.8705 29.7342 39.8705 29.9433C39.8705 30.0506 39.8478 30.141 39.8014 30.2117C39.7683 30.2625 39.721 30.3039 39.668 30.3397C39.7096 30.3642 39.7465 30.3934 39.774 30.4273C39.8118 30.4763 39.8336 30.5544 39.8364 30.6609L39.8449 30.8859C39.8478 30.9462 39.8516 30.9923 39.861 31.0206C39.8705 31.062 39.8885 31.0884 39.9112 31.0969L39.9348 31.1082V31.1336V31.1722V31.2108H39.896H39.615H39.5923L39.5809 31.1911C39.5715 31.1722 39.5649 31.1506 39.5582 31.1223C39.5535 31.0969 39.5488 31.0526 39.5459 30.9848L39.5317 30.7051C39.5279 30.6081 39.4948 30.5479 39.4324 30.5159C39.3936 30.498 39.3292 30.4895 39.2422 30.4895H38.7605V31.1722V31.2108H38.7208H38.4918H38.453V31.1722V29.4894V29.4508H38.4918H39.2743C39.4087 29.4508 39.5213 29.4705 39.6084 29.511L39.6084 29.511ZM38.7605 30.2201H39.2507C39.3491 30.2201 39.4276 30.2022 39.4835 30.1655C39.5346 30.1288 39.5592 30.0619 39.5592 29.9649C39.5592 29.8594 39.5242 29.7907 39.4503 29.754C39.4097 29.7342 39.3529 29.7229 39.281 29.7229H38.7605V30.2201Z" fill="white"/>
</svg>
